STARTFONT 2.1
FONT -FreeType-76London-Medium-R-Normal--311-1500-150-150-P-1253-ISO10646-1
SIZE 150 150 150
FONTBOUNDINGBOX 328 379 -10 -67
STARTPROPERTIES 16
FOUNDRY "FreeType"
FAMILY_NAME "76London"
WEIGHT_NAME "Medium"
SLANT "R"
SETWIDTH_NAME "Normal"
ADD_STYLE_NAME ""
PIXEL_SIZE 256
POINT_SIZE 1500
RESOLUTION_X 150
RESOLUTION_Y 150
SPACING "P"
AVERAGE_WIDTH 1253
CHARSET_REGISTRY "ISO10646"
CHARSET_ENCODING "1"
FONT_ASCENT 312
FONT_DESCENT 66
ENDPROPERTIES
CHARS 12
STARTCHAR 0020
ENCODING 32
SWIDTH 294 0
DWIDTH 92 0
BBX 0 0 0 0
BITMAP
ENDCHAR
STARTCHAR 0021
ENCODING 33
SWIDTH 294 0
DWIDTH 92 0
BBX 51 242 19 0
BITMAP
0003FFFFFC0000
007FFFFFFFE000
01FFFFFFFFF800
07FFFFFFFFFE00
0FFFFFFFFFFF00
1FFFFFFFFFFF80
3FFFFFFFFFFF80
3FFFFFFFFFFFC0
7FFFFFFFFFFFC0
7FFFFFFFFFFFC0
7FFFFFFFFFFFC0
7FFFFFFFFFFFC0
7FFFFFFFFFFFE0
FFFFFFFFFFFFE0
FFFFFFFFFFFFE0
FFFFFFFFFFFFE0
FFFFFFFFFFFFE0
FFFFFFFFFFFFE0
FFFFFFFFFFFFE0
FFFFFFFFFFFFE0
FFFFFFFFFFFFE0
FFFFFFFFFFFFE0
FFFFFFFFFFFFE0
FFFFFFFFFFFFE0
FFFFFFFFFFFFE0
FFFFFFFFFFFFE0
FFFFFFFFFFFFE0
FFFFFFFFFFFFE0
FFFFFFFFFFFFE0
FFFFFFFFFFFFE0
FFFFFFFFFFFFE0
FFFFFFFFFFFFE0
FFFFFFFFFFFFE0
FFFFFFFFFFFFE0
FFFFFFFFFFFFE0
FFFFFFFFFFFFE0
FFFFFFFFFFFFE0
FFFFFFFFFFFFE0
FFFFFFFFFFFFE0
FFFFFFFFFFFFE0
FFFFFFFFFFFFE0
FFFFFFFFFFFFE0
FFFFFFFFFFFFE0
FFFFFFFFFFFFE0
FFFFFFFFFFFFE0
FFFFFFFFFFFFE0
FFFFFFFFFFFFE0
FFFFFFFFFFFFE0
FFFFFFFFFFFFE0
FFFFFFFFFFFFE0
FFFFFFFFFFFFE0
FFFFFFFFFFFFE0
FFFFFFFFFFFFE0
FFFFFFFFFFFFE0
FFFFFFFFFFFFE0
FFFFFFFFFFFFE0
FFFFFFFFFFFFE0
FFFFFFFFFFFFE0
FFFFFFFFFFFFE0
FFFFFFFFFFFFE0
FFFFFFFFFFFFE0
FFFFFFFFFFFFE0
FFFFFFFFFFFFE0
FFFFFFFFFFFFE0
FFFFFFFFFFFFE0
FFFFFFFFFFFFE0
FFFFFFFFFFFFE0
FFFFFFFFFFFFE0
FFFFFFFFFFFFE0
FFFFFFFFFFFFE0
FFFFFFFFFFFFE0
FFFFFFFFFFFFE0
FFFFFFFFFFFFE0
FFFFFFFFFFFFE0
FFFFFFFFFFFFE0
FFFFFFFFFFFFE0
FFFFFFFFFFFFE0
FFFFFFFFFFFFE0
FFFFFFFFFFFFE0
FFFFFFFFFFFFE0
FFFFFFFFFFFFE0
FFFFFFFFFFFFE0
FFFFFFFFFFFFE0
FFFFFFFFFFFFE0
FFFFFFFFFFFFE0
FFFFFFFFFFFFE0
FFFFFFFFFFFFE0
FFFFFFFFFFFFE0
FFFFFFFFFFFFE0
FFFFFFFFFFFFE0
FFFFFFFFFFFFE0
FFFFFFFFFFFFE0
FFFFFFFFFFFFE0
FFFFFFFFFFFFE0
FFFFFFFFFFFFE0
FFFFFFFFFFFFE0
FFFFFFFFFFFFE0
FFFFFFFFFFFFE0
FFFFFFFFFFFFE0
FFFFFFFFFFFFE0
FFFFFFFFFFFFE0
FFFFFFFFFFFFE0
FFFFFFFFFFFFE0
FFFFFFFFFFFFE0
FFFFFFFFFFFFE0
FFFFFFFFFFFFE0
FFFFFFFFFFFFE0
FFFFFFFFFFFFE0
FFFFFFFFFFFFE0
FFFFFFFFFFFFE0
FFFFFFFFFFFFE0
FFFFFFFFFFFFE0
FFFFFFFFFFFFE0
FFFFFFFFFFFFE0
FFFFFFFFFFFFE0
FFFFFFFFFFFFE0
FFFFFFFFFFFFE0
FFFFFFFFFFFFE0
FFFFFFFFFFFFE0
FFFFFFFFFFFFE0
FFFFFFFFFFFFE0
FFFFFFFFFFFFE0
FFFFFFFFFFFFE0
FFFFFFFFFFFFE0
FFFFFFFFFFFFE0
FFFFFFFFFFFFE0
FFFFFFFFFFFFE0
FFFFFFFFFFFFE0
FFFFFFFFFFFFE0
FFFFFFFFFFFFE0
FFFFFFFFFFFFE0
FFFFFFFFFFFFE0
FFFFFFFFFFFFE0
FFFFFFFFFFFFE0
FFFFFFFFFFFFE0
FFFFFFFFFFFFE0
FFFFFFFFFFFFE0
FFFFFFFFFFFFE0
FFFFFFFFFFFFE0
FFFFFFFFFFFFE0
FFFFFFFFFFFFE0
FFFFFFFFFFFFE0
FFFFFFFFFFFFE0
FFFFFFFFFFFFE0
FFFFFFFFFFFFE0
FFFFFFFFFFFFE0
FFFFFFFFFFFFE0
FFFFFFFFFFFFE0
FFFFFFFFFFFFE0
FFFFFFFFFFFFE0
FFFFFFFFFFFFE0
FFFFFFFFFFFFE0
FFFFFFFFFFFFE0
FFFFFFFFFFFFE0
FFFFFFFFFFFFE0
FFFFFFFFFFFFE0
FFFFFFFFFFFFE0
FFFFFFFFFFFFE0
FFFFFFFFFFFFE0
FFFFFFFFFFFFE0
FFFFFFFFFFFFE0
FFFFFFFFFFFFE0
FFFFFFFFFFFFE0
FFFFFFFFFFFFE0
FFFFFFFFFFFFE0
FFFFFFFFFFFFE0
FFFFFFFFFFFFE0
FFFFFFFFFFFFE0
FFFFFFFFFFFFE0
FFFFFFFFFFFFE0
FFFFFFFFFFFFE0
FFFFFFFFFFFFE0
FFFFFFFFFFFFE0
FFFFFFFFFFFFE0
FFFFFFFFFFFFE0
FFFFFFFFFFFFE0
FFFFFFFFFFFFE0
FFFFFFFFFFFFE0
FFFFFFFFFFFFE0
FFFFFFFFFFFFE0
FFFFFFFFFFFFE0
FFFFFFFFFFFFE0
FFFFFFFFFFFFE0
FFFFFFFFFFFFE0
FFFFFFFFFFFFE0
FFFFFFFFFFFFE0
FFFFFFFFFFFFE0
00000000000000
00000000000000
00000000000000
00000000000000
00000000000000
00000000000000
00000000000000
00000000000000
00000000000000
00000000000000
0003FFFFFC0000
007FFFFFFFE000
01FFFFFFFFF800
07FFFFFFFFFE00
0FFFFFFFFFFF00
1FFFFFFFFFFF00
1FFFFFFFFFFF80
3FFFFFFFFFFF80
3FFFFFFFFFFFC0
7FFFFFFFFFFFC0
7FFFFFFFFFFFC0
7FFFFFFFFFFFC0
7FFFFFFFFFFFE0
7FFFFFFFFFFFE0
FFFFFFFFFFFFE0
FFFFFFFFFFFFE0
FFFFFFFFFFFFE0
FFFFFFFFFFFFE0
FFFFFFFFFFFFE0
FFFFFFFFFFFFE0
FFFFFFFFFFFFE0
FFFFFFFFFFFFE0
FFFFFFFFFFFFE0
FFFFFFFFFFFFE0
FFFFFFFFFFFFE0
FFFFFFFFFFFFE0
FFFFFFFFFFFFE0
FFFFFFFFFFFFE0
FFFFFFFFFFFFE0
FFFFFFFFFFFFE0
FFFFFFFFFFFFE0
FFFFFFFFFFFFE0
7FFFFFFFFFFFE0
7FFFFFFFFFFFC0
7FFFFFFFFFFFC0
7FFFFFFFFFFFC0
7FFFFFFFFFFFC0
3FFFFFFFFFFF80
3FFFFFFFFFFF80
1FFFFFFFFFFF00
0FFFFFFFFFFE00
07FFFFFFFFFC00
03FFFFFFFFF800
007FFFFFFFC000
0007FFFFF80000
ENDCHAR
STARTCHAR 0022
ENCODING 34
SWIDTH 432 0
DWIDTH 135 0
BBX 88 73 23 169
BITMAP
007FFFF000000007FFFF00
07FFFFFE0000007FFFFFE0
1FFFFFFF800001FFFFFFF8
3FFFFFFFC00003FFFFFFFC
7FFFFFFFE00007FFFFFFFE
FFFFFFFFE0000FFFFFFFFE
FFFFFFFFE0000FFFFFFFFE
FFFFFFFFE0000FFFFFFFFE
FFFFFFFFF0000FFFFFFFFF
FFFFFFFFF0000FFFFFFFFF
FFFFFFFFF0000FFFFFFFFF
FFFFFFFFF0000FFFFFFFFF
FFFFFFFFF0000FFFFFFFFF
FFFFFFFFE0000FFFFFFFFE
FFFFFFFFE0000FFFFFFFFE
FFFFFFFFE0000FFFFFFFFE
FFFFFFFFE0000FFFFFFFFE
FFFFFFFFE0000FFFFFFFFE
FFFFFFFFE0000FFFFFFFFE
FFFFFFFFE0000FFFFFFFFE
FFFFFFFFE0000FFFFFFFFE
7FFFFFFFE00007FFFFFFFE
7FFFFFFFC00007FFFFFFFC
7FFFFFFFC00007FFFFFFFC
7FFFFFFFC00007FFFFFFFC
7FFFFFFFC00007FFFFFFFC
7FFFFFFFC00007FFFFFFFC
7FFFFFFFC00007FFFFFFFC
7FFFFFFFC00007FFFFFFFC
3FFFFFFFC00003FFFFFFFC
3FFFFFFF800003FFFFFFF8
3FFFFFFF800003FFFFFFF8
3FFFFFFF800003FFFFFFF8
3FFFFFFF800003FFFFFFF8
3FFFFFFF800003FFFFFFF8
3FFFFFFF800003FFFFFFF8
1FFFFFFF800001FFFFFFF8
1FFFFFFF000001FFFFFFF0
1FFFFFFF000001FFFFFFF0
1FFFFFFF000001FFFFFFF0
1FFFFFFF000001FFFFFFF0
1FFFFFFF000001FFFFFFF0
1FFFFFFF000001FFFFFFF0
1FFFFFFF000001FFFFFFF0
0FFFFFFF000000FFFFFFF0
0FFFFFFE000000FFFFFFE0
0FFFFFFE000000FFFFFFE0
0FFFFFFE000000FFFFFFE0
0FFFFFFE000000FFFFFFE0
0FFFFFFE000000FFFFFFE0
0FFFFFFE000000FFFFFFE0
07FFFFFE0000007FFFFFE0
07FFFFFE0000007FFFFFE0
07FFFFFC0000007FFFFFC0
07FFFFFC0000007FFFFFC0
07FFFFFC0000007FFFFFC0
07FFFFFC0000007FFFFFC0
07FFFFFC0000007FFFFFC0
07FFFFFC0000007FFFFFC0
03FFFFFC0000003FFFFFC0
03FFFFF80000003FFFFF80
03FFFFF80000003FFFFF80
03FFFFF80000003FFFFF80
03FFFFF80000003FFFFF80
03FFFFF80000003FFFFF80
03FFFFF80000003FFFFF80
01FFFFF80000001FFFFF80
01FFFFF80000001FFFFF80
01FFFFF00000001FFFFF00
01FFFFF00000001FFFFF00
01FFFFF00000001FFFFF00
01FFFFF00000001FFFFF00
01FFFFF00000001FFFFF00
ENDCHAR
STARTCHAR 0023
ENCODING 35
SWIDTH 604 0
DWIDTH 189 0
BBX 181 242 2 1
BITMAP
0000000000000000003FFFFFFC00000003FFFFFFE00000
0000000000000000003FFFFFF800000003FFFFFFC00000
0000000000000000007FFFFFF800000003FFFFFFC00000
0000000000000000007FFFFFF800000003FFFFFFC00000
0000000000000000007FFFFFF800000007FFFFFFC00000
0000000000000000007FFFFFF000000007FFFFFF800000
0000000000000000007FFFFFF000000007FFFFFF800000
000000000000000000FFFFFFF000000007FFFFFF800000
000000000000000000FFFFFFF000000007FFFFFF800000
000000000000000000FFFFFFE00000000FFFFFFF800000
000000000000000000FFFFFFE00000000FFFFFFF000000
000000000000000001FFFFFFE00000000FFFFFFF000000
000000000000000001FFFFFFE00000000FFFFFFF000000
000000000000000001FFFFFFE00000001FFFFFFF000000
000000000000000001FFFFFFC00000001FFFFFFE000000
000000000000000003FFFFFFC00000001FFFFFFE000000
000000000000000003FFFFFFC00000001FFFFFFE000000
000000000000000003FFFFFFC00000001FFFFFFE000000
000000000000000003FFFFFF800000003FFFFFFE000000
000000000000000003FFFFFF800000003FFFFFFC000000
000000000000000007FFFFFF800000003FFFFFFC000000
000000000000000007FFFFFF800000003FFFFFFC000000
000000000000000007FFFFFF800000007FFFFFFC000000
000000000000000007FFFFFF000000007FFFFFF8000000
00000000000000000FFFFFFF000000007FFFFFF8000000
00000000000000000FFFFFFF000000007FFFFFF8000000
00000000000000000FFFFFFF00000000FFFFFFF8000000
00000000000000000FFFFFFE00000000FFFFFFF0000000
00000000000000001FFFFFFE00000000FFFFFFF0000000
00000000000000001FFFFFFE00000000FFFFFFF0000000
00000000000000001FFFFFFE00000000FFFFFFF0000000
00000000000000001FFFFFFE00000001FFFFFFF0000000
00000000000000001FFFFFFC00000001FFFFFFE0000000
00000000000000003FFFFFFC00000001FFFFFFE0000000
00000000000000003FFFFFFC00000001FFFFFFE0000000
00000000000000003FFFFFFC00000003FFFFFFE0000000
00000000000000003FFFFFF800000003FFFFFFC0000000
00000000000000007FFFFFF800000003FFFFFFC0000000
00000000000000007FFFFFF800000003FFFFFFC0000000
00000000000000007FFFFFF800000003FFFFFFC0000000
00000000000000007FFFFFF000000007FFFFFFC0000000
0000000000000000FFFFFFF000000007FFFFFF80000000
0000000000000000FFFFFFF000000007FFFFFF80000000
0000000000000000FFFFFFF000000007FFFFFF80000000
0000000000000000FFFFFFF00000000FFFFFFF80000000
0000000000000000FFFFFFE00000000FFFFFFF00000000
0000000000000001FFFFFFE00000000FFFFFFF00000000
0000000000000001FFFFFFE00000000FFFFFFF00000000
0000000000000001FFFFFFE00000000FFFFFFF00000000
0000000000000001FFFFFFC00000001FFFFFFF00000000
0000000000000003FFFFFFC00000001FFFFFFE00000000
0000000000000003FFFFFFC00000001FFFFFFE00000000
0000000000000003FFFFFFC00000001FFFFFFE00000000
0000000000000003FFFFFFC00000003FFFFFFE00000000
0000000000000007FFFFFF800000003FFFFFFC00000000
0000000000000007FFFFFF800000003FFFFFFC00000000
0000000000000007FFFFFF800000003FFFFFFC00000000
0000000000000007FFFFFF800000007FFFFFFC00000000
0000000000000007FFFFFF000000007FFFFFF800000000
000000000000000FFFFFFF000000007FFFFFF800000000
000000000000000FFFFFFF000000007FFFFFF800000000
000000000000000FFFFFFF000000007FFFFFF800000000
000000000000000FFFFFFF00000000FFFFFFF800000000
000000000000001FFFFFFE00000000FFFFFFF000000000
000000000000001FFFFFFE00000000FFFFFFF000000000
0000003FFFFFFFFFFFFFFFFFFFFFFFFFFFFFFFFFFFFFF8
0000003FFFFFFFFFFFFFFFFFFFFFFFFFFFFFFFFFFFFFF0
0000003FFFFFFFFFFFFFFFFFFFFFFFFFFFFFFFFFFFFFF0
0000003FFFFFFFFFFFFFFFFFFFFFFFFFFFFFFFFFFFFFF0
0000007FFFFFFFFFFFFFFFFFFFFFFFFFFFFFFFFFFFFFF0
0000007FFFFFFFFFFFFFFFFFFFFFFFFFFFFFFFFFFFFFF0
0000007FFFFFFFFFFFFFFFFFFFFFFFFFFFFFFFFFFFFFE0
0000007FFFFFFFFFFFFFFFFFFFFFFFFFFFFFFFFFFFFFE0
0000007FFFFFFFFFFFFFFFFFFFFFFFFFFFFFFFFFFFFFE0
000000FFFFFFFFFFFFFFFFFFFFFFFFFFFFFFFFFFFFFFE0
000000FFFFFFFFFFFFFFFFFFFFFFFFFFFFFFFFFFFFFFC0
000000FFFFFFFFFFFFFFFFFFFFFFFFFFFFFFFFFFFFFFC0
000000FFFFFFFFFFFFFFFFFFFFFFFFFFFFFFFFFFFFFFC0
000001FFFFFFFFFFFFFFFFFFFFFFFFFFFFFFFFFFFFFFC0
000001FFFFFFFFFFFFFFFFFFFFFFFFFFFFFFFFFFFFFF80
000001FFFFFFFFFFFFFFFFFFFFFFFFFFFFFFFFFFFFFF80
000001FFFFFFFFFFFFFFFFFFFFFFFFFFFFFFFFFFFFFF80
000003FFFFFFFFFFFFFFFFFFFFFFFFFFFFFFFFFFFFFF80
000003FFFFFFFFFFFFFFFFFFFFFFFFFFFFFFFFFFFFFF00
000003FFFFFFFFFFFFFFFFFFFFFFFFFFFFFFFFFFFFFF00
000003FFFFFFFFFFFFFFFFFFFFFFFFFFFFFFFFFFFFFF00
000003FFFFFFFFFFFFFFFFFFFFFFFFFFFFFFFFFFFFFF00
000007FFFFFFFFFFFFFFFFFFFFFFFFFFFFFFFFFFFFFF00
000007FFFFFFFFFFFFFFFFFFFFFFFFFFFFFFFFFFFFFE00
000007FFFFFFFFFFFFFFFFFFFFFFFFFFFFFFFFFFFFFE00
000007FFFFFFFFFFFFFFFFFFFFFFFFFFFFFFFFFFFFFE00
00000FFFFFFFFFFFFFFFFFFFFFFFFFFFFFFFFFFFFFFE00
00000FFFFFFFFFFFFFFFFFFFFFFFFFFFFFFFFFFFFFFC00
00000FFFFFFFFFFFFFFFFFFFFFFFFFFFFFFFFFFFFFFC00
0000000000000FFFFFFF000000007FFFFFF80000000000
0000000000000FFFFFFF000000007FFFFFF80000000000
0000000000000FFFFFFF00000000FFFFFFF80000000000
0000000000001FFFFFFF00000000FFFFFFF80000000000
0000000000001FFFFFFE00000000FFFFFFF00000000000
0000000000001FFFFFFE00000000FFFFFFF00000000000
0000000000001FFFFFFE00000001FFFFFFF00000000000
0000000000001FFFFFFE00000001FFFFFFF00000000000
0000000000003FFFFFFC00000001FFFFFFE00000000000
0000000000003FFFFFFC00000001FFFFFFE00000000000
0000000000003FFFFFFC00000003FFFFFFE00000000000
0000000000003FFFFFFC00000003FFFFFFE00000000000
0000000000007FFFFFF800000003FFFFFFC00000000000
0000000000007FFFFFF800000003FFFFFFC00000000000
0000000000007FFFFFF800000007FFFFFFC00000000000
0000000000007FFFFFF800000007FFFFFFC00000000000
000000000000FFFFFFF000000007FFFFFF800000000000
000000000000FFFFFFF000000007FFFFFF800000000000
000000000000FFFFFFF00000000FFFFFFF800000000000
000000000000FFFFFFF00000000FFFFFFF800000000000
000000000001FFFFFFE00000000FFFFFFF000000000000
000000000001FFFFFFE00000000FFFFFFF000000000000
000000000001FFFFFFE00000001FFFFFFF000000000000
000000000001FFFFFFE00000001FFFFFFF000000000000
000000000003FFFFFFC00000001FFFFFFE000000000000
000000000003FFFFFFC00000001FFFFFFE000000000000
000000000003FFFFFFC00000003FFFFFFE000000000000
000000000003FFFFFFC00000003FFFFFFE000000000000
000000000007FFFFFF800000003FFFFFFC000000000000
000000000007FFFFFF800000003FFFFFFC000000000000
000000000007FFFFFF800000007FFFFFFC000000000000
000000000007FFFFFF800000007FFFFFFC000000000000
000000000007FFFFFF000000007FFFFFF8000000000000
00000000000FFFFFFF000000007FFFFFF8000000000000
00000000000FFFFFFF00000000FFFFFFF8000000000000
00000000000FFFFFFF00000000FFFFFFF8000000000000
00000000000FFFFFFE00000000FFFFFFF0000000000000
00000000001FFFFFFE00000000FFFFFFF0000000000000
00000000001FFFFFFE00000001FFFFFFF0000000000000
00000000001FFFFFFE00000001FFFFFFF0000000000000
00000000001FFFFFFC00000001FFFFFFE0000000000000
00000000003FFFFFFC00000001FFFFFFE0000000000000
00000000003FFFFFFC00000003FFFFFFE0000000000000
00000000003FFFFFFC00000003FFFFFFE0000000000000
00000000003FFFFFF800000003FFFFFFC0000000000000
00000000007FFFFFF800000003FFFFFFC0000000000000
00000000007FFFFFF800000007FFFFFFC0000000000000
00000000007FFFFFF800000007FFFFFFC0000000000000
00000000007FFFFFF000000007FFFFFF80000000000000
0000000000FFFFFFF000000007FFFFFF80000000000000
01FFFFFFFFFFFFFFFFFFFFFFFFFFFFFFFFFFFFFF800000
01FFFFFFFFFFFFFFFFFFFFFFFFFFFFFFFFFFFFFF800000
03FFFFFFFFFFFFFFFFFFFFFFFFFFFFFFFFFFFFFF800000
03FFFFFFFFFFFFFFFFFFFFFFFFFFFFFFFFFFFFFF000000
03FFFFFFFFFFFFFFFFFFFFFFFFFFFFFFFFFFFFFF000000
03FFFFFFFFFFFFFFFFFFFFFFFFFFFFFFFFFFFFFF000000
07FFFFFFFFFFFFFFFFFFFFFFFFFFFFFFFFFFFFFF000000
07FFFFFFFFFFFFFFFFFFFFFFFFFFFFFFFFFFFFFE000000
07FFFFFFFFFFFFFFFFFFFFFFFFFFFFFFFFFFFFFE000000
07FFFFFFFFFFFFFFFFFFFFFFFFFFFFFFFFFFFFFE000000
0FFFFFFFFFFFFFFFFFFFFFFFFFFFFFFFFFFFFFFE000000
0FFFFFFFFFFFFFFFFFFFFFFFFFFFFFFFFFFFFFFC000000
0FFFFFFFFFFFFFFFFFFFFFFFFFFFFFFFFFFFFFFC000000
0FFFFFFFFFFFFFFFFFFFFFFFFFFFFFFFFFFFFFFC000000
1FFFFFFFFFFFFFFFFFFFFFFFFFFFFFFFFFFFFFFC000000
1FFFFFFFFFFFFFFFFFFFFFFFFFFFFFFFFFFFFFF8000000
1FFFFFFFFFFFFFFFFFFFFFFFFFFFFFFFFFFFFFF8000000
1FFFFFFFFFFFFFFFFFFFFFFFFFFFFFFFFFFFFFF8000000
3FFFFFFFFFFFFFFFFFFFFFFFFFFFFFFFFFFFFFF8000000
3FFFFFFFFFFFFFFFFFFFFFFFFFFFFFFFFFFFFFF0000000
3FFFFFFFFFFFFFFFFFFFFFFFFFFFFFFFFFFFFFF0000000
3FFFFFFFFFFFFFFFFFFFFFFFFFFFFFFFFFFFFFF0000000
7FFFFFFFFFFFFFFFFFFFFFFFFFFFFFFFFFFFFFF0000000
7FFFFFFFFFFFFFFFFFFFFFFFFFFFFFFFFFFFFFE0000000
7FFFFFFFFFFFFFFFFFFFFFFFFFFFFFFFFFFFFFE0000000
7FFFFFFFFFFFFFFFFFFFFFFFFFFFFFFFFFFFFFE0000000
FFFFFFFFFFFFFFFFFFFFFFFFFFFFFFFFFFFFFFE0000000
FFFFFFFFFFFFFFFFFFFFFFFFFFFFFFFFFFFFFFC0000000
FFFFFFFFFFFFFFFFFFFFFFFFFFFFFFFFFFFFFFC0000000
000000007FFFFFF800000003FFFFFFC000000000000000
000000007FFFFFF800000007FFFFFFC000000000000000
000000007FFFFFF800000007FFFFFFC000000000000000
00000000FFFFFFF000000007FFFFFF8000000000000000
00000000FFFFFFF000000007FFFFFF8000000000000000
00000000FFFFFFF00000000FFFFFFF8000000000000000
00000000FFFFFFF00000000FFFFFFF8000000000000000
00000000FFFFFFE00000000FFFFFFF0000000000000000
00000001FFFFFFE00000000FFFFFFF0000000000000000
00000001FFFFFFE00000000FFFFFFF0000000000000000
00000001FFFFFFE00000001FFFFFFF0000000000000000
00000001FFFFFFE00000001FFFFFFF0000000000000000
00000003FFFFFFC00000001FFFFFFE0000000000000000
00000003FFFFFFC00000001FFFFFFE0000000000000000
00000003FFFFFFC00000003FFFFFFE0000000000000000
00000003FFFFFFC00000003FFFFFFE0000000000000000
00000007FFFFFF800000003FFFFFFC0000000000000000
00000007FFFFFF800000003FFFFFFC0000000000000000
00000007FFFFFF800000003FFFFFFC0000000000000000
00000007FFFFFF800000007FFFFFFC0000000000000000
0000000FFFFFFF800000007FFFFFF80000000000000000
0000000FFFFFFF000000007FFFFFF80000000000000000
0000000FFFFFFF000000007FFFFFF80000000000000000
0000000FFFFFFF00000000FFFFFFF80000000000000000
0000000FFFFFFF00000000FFFFFFF80000000000000000
0000001FFFFFFE00000000FFFFFFF00000000000000000
0000001FFFFFFE00000000FFFFFFF00000000000000000
0000001FFFFFFE00000001FFFFFFF00000000000000000
0000001FFFFFFE00000001FFFFFFF00000000000000000
0000003FFFFFFC00000001FFFFFFE00000000000000000
0000003FFFFFFC00000001FFFFFFE00000000000000000
0000003FFFFFFC00000001FFFFFFE00000000000000000
0000003FFFFFFC00000003FFFFFFE00000000000000000
0000007FFFFFFC00000003FFFFFFC00000000000000000
0000007FFFFFF800000003FFFFFFC00000000000000000
0000007FFFFFF800000003FFFFFFC00000000000000000
0000007FFFFFF800000007FFFFFFC00000000000000000
000000FFFFFFF800000007FFFFFFC00000000000000000
000000FFFFFFF000000007FFFFFF800000000000000000
000000FFFFFFF000000007FFFFFF800000000000000000
000000FFFFFFF000000007FFFFFF800000000000000000
000001FFFFFFF00000000FFFFFFF800000000000000000
000001FFFFFFF00000000FFFFFFF000000000000000000
000001FFFFFFE00000000FFFFFFF000000000000000000
000001FFFFFFE00000000FFFFFFF000000000000000000
000001FFFFFFE00000001FFFFFFF000000000000000000
000003FFFFFFE00000001FFFFFFE000000000000000000
000003FFFFFFC00000001FFFFFFE000000000000000000
000003FFFFFFC00000001FFFFFFE000000000000000000
000003FFFFFFC00000003FFFFFFE000000000000000000
000007FFFFFFC00000003FFFFFFE000000000000000000
000007FFFFFF800000003FFFFFFC000000000000000000
000007FFFFFF800000003FFFFFFC000000000000000000
000007FFFFFF800000003FFFFFFC000000000000000000
00000FFFFFFF800000007FFFFFFC000000000000000000
00000FFFFFFF800000007FFFFFF8000000000000000000
00000FFFFFFF000000007FFFFFF8000000000000000000
00000FFFFFFF000000007FFFFFF8000000000000000000
00001FFFFFFF00000000FFFFFFF8000000000000000000
00001FFFFFFF00000000FFFFFFF0000000000000000000
00001FFFFFFE00000000FFFFFFF0000000000000000000
00001FFFFFFE00000000FFFFFFF0000000000000000000
00001FFFFFFE00000000FFFFFFF0000000000000000000
00003FFFFFFE00000001FFFFFFF0000000000000000000
00003FFFFFFE00000001FFFFFFE0000000000000000000
00003FFFFFFC00000001FFFFFFE0000000000000000000
00003FFFFFFC00000001FFFFFFE0000000000000000000
00007FFFFFFC00000003FFFFFFE0000000000000000000
00007FFFFFFC00000003FFFFFFC0000000000000000000
ENDCHAR
STARTCHAR 0024
ENCODING 36
SWIDTH 572 0
DWIDTH 179 0
BBX 142 242 23 -1
BITMAP
00000000000001FFFFFFFF00000000000000
00000000000001FFFFFFFF00000000000000
00000000000001FFFFFFFF00000000000000
00000000000001FFFFFFFF00000000000000
00000000000001FFFFFFFF00000000000000
00000000000001FFFFFFFF00000000000000
00000000000001FFFFFFFF00000000000000
00000000000001FFFFFFFF00000000000000
00000000000001FFFFFFFF00000000000000
00000000000001FFFFFFFF00000000000000
00000000000001FFFFFFFF00000000000000
00000000000001FFFFFFFF00000000000000
00000000000001FFFFFFFF00000000000000
00000000000001FFFFFFFF00000000000000
00000000000001FFFFFFFF00000000000000
00000000000001FFFFFFFF00000000000000
00000000000001FFFFFFFFFFFFFFFFFF0000
00000000001FFFFFFFFFFFFFFFFFFFFF0000
000000000FFFFFFFFFFFFFFFFFFFFFFF0000
00000001FFFFFFFFFFFFFFFFFFFFFFFF0000
0000001FFFFFFFFFFFFFFFFFFFFFFFFF0000
0000007FFFFFFFFFFFFFFFFFFFFFFFFF0000
000003FFFFFFFFFFFFFFFFFFFFFFFFFF0000
00000FFFFFFFFFFFFFFFFFFFFFFFFFFF0000
00003FFFFFFFFFFFFFFFFFFFFFFFFFFF0000
0000FFFFFFFFFFFFFFFFFFFFFFFFFFFF0000
0001FFFFFFFFFFFFFFFFFFFFFFFFFFFF0000
0003FFFFFFFFFFFFFFFFFFFFFFFFFFFF0000
0007FFFFFFFFFFFFFFFFFFFFFFFFFFFF0000
001FFFFFFFFFFFFFFFFFFFFFFFFFFFFF0000
001FFFFFFFFFFFFFFFFFFFFFFFFFFFFF0000
003FFFFFFFFFFFFFFFFFFFFFFFFFFFFF0000
007FFFFFFFFFFFFFFFFFFFFFFFFFFFFF0000
00FFFFFFFFFFFFFFFFFFFFFFFFFFFFFF0000
00FFFFFFFFFFFFFFFFFFFFFFFFFFFFFF0000
01FFFFFFFFFFFFFFFFFFFFFFFFFFFFFF0000
03FFFFFFFFFFFFFFFFFFFFFFFFFFFFFF0000
03FFFFFFFFFFFFFFFFFFFFFFFFFFFFFF0000
07FFFFFFFFFFFFFFFFFFFFFFFFFFFFFF0000
07FFFFFFFFFFFFFFFFFFFFFFFFFFFFFF0000
07FFFFFFFFFFFFFFFFFFFFFFFFFFFFFF0000
0FFFFFFFFFFFFFFFFFFFFFFFFFFFFFFF0000
0FFFFFFFFFFFFFFFFFFFFFFFFFFFFFFF0000
0FFFFFFFFFFFFFFFFFFFFFFFFFFFFFFF0000
1FFFFFFFFFFFFFFFFFFFFFFFFFFFFFFF0000
1FFFFFFFFFFFFFFFFFFFFFFFFFFFFFFF0000
1FFFFFFFFFFFFFFFFFFFFFFFFFFFFFFF0000
3FFFFFFFFFFFFC0000000000000000000000
3FFFFFFFFFFFE00000000000000000000000
3FFFFFFFFFFF800000000000000000000000
3FFFFFFFFFFF000000000000000000000000
3FFFFFFFFFFE000000000000000000000000
7FFFFFFFFFFC000000000000000000000000
7FFFFFFFFFFC000000000000000000000000
7FFFFFFFFFF8000000000000000000000000
7FFFFFFFFFF8000000000000000000000000
7FFFFFFFFFF8000000000000000000000000
7FFFFFFFFFF0000000000000000000000000
7FFFFFFFFFF0000000000000000000000000
7FFFFFFFFFF0000000000000000000000000
7FFFFFFFFFF0000000000000000000000000
FFFFFFFFFFF0000000000000000000000000
FFFFFFFFFFE0000000000000000000000000
FFFFFFFFFFE0000000000000000000000000
FFFFFFFFFFE0000000000000000000000000
FFFFFFFFFFE0000000000000000000000000
FFFFFFFFFFE0000000000000000000000000
FFFFFFFFFFE0000000000000000000000000
FFFFFFFFFFE0000000000000000000000000
FFFFFFFFFFE0000000000000000000000000
FFFFFFFFFFE0000000000000000000000000
FFFFFFFFFFE0000000000000000000000000
FFFFFFFFFFE0000000000000000000000000
FFFFFFFFFFE0000000000000000000000000
FFFFFFFFFFE0000000000000000000000000
FFFFFFFFFFE0000000000000000000000000
FFFFFFFFFFE0000000000000000000000000
FFFFFFFFFFE0000000000000000000000000
FFFFFFFFFFE0000000000000000000000000
FFFFFFFFFFF0000000000000000000000000
FFFFFFFFFFF0000000000000000000000000
FFFFFFFFFFF0000000000000000000000000
FFFFFFFFFFF0000000000000000000000000
FFFFFFFFFFF0000000000000000000000000
FFFFFFFFFFF8000000000000000000000000
FFFFFFFFFFF8000000000000000000000000
FFFFFFFFFFFC000000000000000000000000
FFFFFFFFFFFC000000000000000000000000
FFFFFFFFFFFC000000000000000000000000
FFFFFFFFFFFE000000000000000000000000
FFFFFFFFFFFF000000000000000000000000
7FFFFFFFFFFF000000000000000000000000
7FFFFFFFFFFF800000000000000000000000
7FFFFFFFFFFFC00000000000000000000000
7FFFFFFFFFFFE00000000000000000000000
7FFFFFFFFFFFF00000000000000000000000
7FFFFFFFFFFFFC0000000000000000000000
7FFFFFFFFFFFFE0000000000000000000000
7FFFFFFFFFFFFFC000000000000000000000
3FFFFFFFFFFFFFF800000000000000000000
3FFFFFFFFFFFFFFF80000000000000000000
3FFFFFFFFFFFFFFFFFFFFFFFFC0000000000
3FFFFFFFFFFFFFFFFFFFFFFFFFF800000000
1FFFFFFFFFFFFFFFFFFFFFFFFFFF80000000
1FFFFFFFFFFFFFFFFFFFFFFFFFFFF8000000
1FFFFFFFFFFFFFFFFFFFFFFFFFFFFE000000
0FFFFFFFFFFFFFFFFFFFFFFFFFFFFF800000
0FFFFFFFFFFFFFFFFFFFFFFFFFFFFFE00000
07FFFFFFFFFFFFFFFFFFFFFFFFFFFFF80000
07FFFFFFFFFFFFFFFFFFFFFFFFFFFFFC0000
03FFFFFFFFFFFFFFFFFFFFFFFFFFFFFF0000
03FFFFFFFFFFFFFFFFFFFFFFFFFFFFFF8000
01FFFFFFFFFFFFFFFFFFFFFFFFFFFFFFC000
01FFFFFFFFFFFFFFFFFFFFFFFFFFFFFFE000
00FFFFFFFFFFFFFFFFFFFFFFFFFFFFFFF000
007FFFFFFFFFFFFFFFFFFFFFFFFFFFFFF800
007FFFFFFFFFFFFFFFFFFFFFFFFFFFFFF800
003FFFFFFFFFFFFFFFFFFFFFFFFFFFFFFC00
001FFFFFFFFFFFFFFFFFFFFFFFFFFFFFFE00
000FFFFFFFFFFFFFFFFFFFFFFFFFFFFFFE00
0007FFFFFFFFFFFFFFFFFFFFFFFFFFFFFF00
0003FFFFFFFFFFFFFFFFFFFFFFFFFFFFFF00
0000FFFFFFFFFFFFFFFFFFFFFFFFFFFFFF80
00007FFFFFFFFFFFFFFFFFFFFFFFFFFFFF80
00001FFFFFFFFFFFFFFFFFFFFFFFFFFFFFC0
000007FFFFFFFFFFFFFFFFFFFFFFFFFFFFC0
000001FFFFFFFFFFFFFFFFFFFFFFFFFFFFE0
0000007FFFFFFFFFFFFFFFFFFFFFFFFFFFE0
00000007FFFFFFFFFFFFFFFFFFFFFFFFFFE0
000000007FFFFFFFFFFFFFFFFFFFFFFFFFE0
0000000000FFFFFFFFFFFFFFFFFFFFFFFFF0
00000000000000000007FFFFFFFFFFFFFFF0
000000000000000000003FFFFFFFFFFFFFF0
0000000000000000000007FFFFFFFFFFFFF0
0000000000000000000001FFFFFFFFFFFFF8
00000000000000000000007FFFFFFFFFFFF8
00000000000000000000003FFFFFFFFFFFF8
00000000000000000000001FFFFFFFFFFFF8
00000000000000000000000FFFFFFFFFFFF8
000000000000000000000007FFFFFFFFFFF8
000000000000000000000003FFFFFFFFFFFC
000000000000000000000001FFFFFFFFFFFC
000000000000000000000001FFFFFFFFFFFC
000000000000000000000000FFFFFFFFFFFC
000000000000000000000000FFFFFFFFFFFC
0000000000000000000000007FFFFFFFFFFC
0000000000000000000000007FFFFFFFFFFC
0000000000000000000000007FFFFFFFFFFC
0000000000000000000000003FFFFFFFFFFC
0000000000000000000000003FFFFFFFFFFC
0000000000000000000000003FFFFFFFFFFC
0000000000000000000000003FFFFFFFFFFC
0000000000000000000000003FFFFFFFFFFC
0000000000000000000000001FFFFFFFFFFC
0000000000000000000000001FFFFFFFFFFC
0000000000000000000000001FFFFFFFFFFC
0000000000000000000000001FFFFFFFFFFC
0000000000000000000000001FFFFFFFFFFC
0000000000000000000000001FFFFFFFFFFC
0000000000000000000000001FFFFFFFFFFC
0000000000000000000000001FFFFFFFFFFC
0000000000000000000000001FFFFFFFFFFC
0000000000000000000000001FFFFFFFFFFC
0000000000000000000000001FFFFFFFFFFC
0000000000000000000000001FFFFFFFFFFC
0000000000000000000000001FFFFFFFFFFC
0000000000000000000000001FFFFFFFFFFC
0000000000000000000000001FFFFFFFFFFC
0000000000000000000000001FFFFFFFFFFC
0000000000000000000000001FFFFFFFFFFC
0000000000000000000000001FFFFFFFFFFC
0000000000000000000000001FFFFFFFFFFC
0000000000000000000000001FFFFFFFFFFC
0000000000000000000000001FFFFFFFFFFC
0000000000000000000000001FFFFFFFFFFC
0000000000000000000000001FFFFFFFFFFC
0000000000000000000000001FFFFFFFFFFC
0000000000000000000000001FFFFFFFFFFC
0000000000000000000000001FFFFFFFFFFC
0000000000000000000000003FFFFFFFFFFC
0000000000000000000000003FFFFFFFFFFC
0000000000000000000000003FFFFFFFFFFC
0000000000000000000000003FFFFFFFFFF8
0000000000000000000000003FFFFFFFFFF8
0000000000000000000000007FFFFFFFFFF8
0000000000000000000000007FFFFFFFFFF8
000000000000000000000000FFFFFFFFFFF8
000000000000000000000000FFFFFFFFFFF8
000000000000000000000001FFFFFFFFFFF8
000000000000000000000003FFFFFFFFFFF8
000000000000000000000007FFFFFFFFFFF0
00000000000000000000000FFFFFFFFFFFF0
00000000000000000000003FFFFFFFFFFFF0
0000000000000000000007FFFFFFFFFFFFF0
0003FFFFFFFFFFFFFFFFFFFFFFFFFFFFFFF0
0003FFFFFFFFFFFFFFFFFFFFFFFFFFFFFFE0
0003FFFFFFFFFFFFFFFFFFFFFFFFFFFFFFE0
0003FFFFFFFFFFFFFFFFFFFFFFFFFFFFFFE0
0003FFFFFFFFFFFFFFFFFFFFFFFFFFFFFFE0
0003FFFFFFFFFFFFFFFFFFFFFFFFFFFFFFC0
0003FFFFFFFFFFFFFFFFFFFFFFFFFFFFFFC0
0003FFFFFFFFFFFFFFFFFFFFFFFFFFFFFFC0
0003FFFFFFFFFFFFFFFFFFFFFFFFFFFFFF80
0003FFFFFFFFFFFFFFFFFFFFFFFFFFFFFF80
0003FFFFFFFFFFFFFFFFFFFFFFFFFFFFFF00
0003FFFFFFFFFFFFFFFFFFFFFFFFFFFFFF00
0003FFFFFFFFFFFFFFFFFFFFFFFFFFFFFE00
0003FFFFFFFFFFFFFFFFFFFFFFFFFFFFFE00
0003FFFFFFFFFFFFFFFFFFFFFFFFFFFFFC00
0003FFFFFFFFFFFFFFFFFFFFFFFFFFFFF800
0003FFFFFFFFFFFFFFFFFFFFFFFFFFFFF800
0003FFFFFFFFFFFFFFFFFFFFFFFFFFFFF000
0003FFFFFFFFFFFFFFFFFFFFFFFFFFFFE000
0003FFFFFFFFFFFFFFFFFFFFFFFFFFFFC000
0003FFFFFFFFFFFFFFFFFFFFFFFFFFFF8000
0003FFFFFFFFFFFFFFFFFFFFFFFFFFFF0000
0003FFFFFFFFFFFFFFFFFFFFFFFFFFFC0000
0003FFFFFFFFFFFFFFFFFFFFFFFFFFF00000
0003FFFFFFFFFFFFFFFFFFFFFFFFFFE00000
0003FFFFFFFFFFFFFFFFFFFFFFFFFF000000
0003FFFFFFFFFFFFFFFFFFFFFFFFFC000000
0003FFFFFFFFFFFFFFFFFFFFFFFFC0000000
0003FFFFFFFFFFFFFFFFFFFFFFF800000000
0003FFFFFFFFFFFFFFFFFFFFF80000000000
00000000000001FFFFFFFF00000000000000
00000000000001FFFFFFFF00000000000000
00000000000001FFFFFFFF00000000000000
00000000000001FFFFFFFF00000000000000
00000000000001FFFFFFFF00000000000000
00000000000001FFFFFFFF00000000000000
00000000000001FFFFFFFF00000000000000
00000000000001FFFFFFFF00000000000000
00000000000001FFFFFFFF00000000000000
00000000000001FFFFFFFF00000000000000
00000000000001FFFFFFFF00000000000000
00000000000001FFFFFFFF00000000000000
00000000000001FFFFFFFF00000000000000
00000000000001FFFFFFFF00000000000000
00000000000001FFFFFFFF00000000000000
00000000000001FFFFFFFF00000000000000
00000000000001FFFFFFFF00000000000000
00000000000001FFFFFFFF00000000000000
ENDCHAR
STARTCHAR 0025
ENCODING 37
SWIDTH 723 0
DWIDTH 226 0
BBX 200 245 11 0
BITMAP
000000007FFFFFFF00000000000000000000001FFFFFC00000
0000007FFFFFFFFFFF000000000000000000003FFFFF800000
00000FFFFFFFFFFFFFF80000000000000000003FFFFF000000
00007FFFFFFFFFFFFFFF0000000000000000007FFFFF000000
0003FFFFFFFFFFFFFFFFE00000000000000000FFFFFE000000
000FFFFFFFFFFFFFFFFFF80000000000000000FFFFFE000000
001FFFFFFFFFFFFFFFFFFC0000000000000001FFFFFC000000
007FFFFFFFFFFFFFFFFFFE0000000000000001FFFFFC000000
00FFFFFFFFFFFFFFFFFFFF8000000000000003FFFFF8000000
01FFFFFFFFFFFFFFFFFFFFC000000000000003FFFFF8000000
03FFFFFFFFFFFFFFFFFFFFC000000000000007FFFFF0000000
03FFFFFFFFFFFFFFFFFFFFE000000000000007FFFFF0000000
07FFFFFFFFFFFFFFFFFFFFF00000000000000FFFFFE0000000
0FFFFFFFFFFFFFFFFFFFFFF00000000000000FFFFFC0000000
0FFFFFFFFFFFFFFFFFFFFFF80000000000001FFFFFC0000000
1FFFFFFFFFF00FFFFFFFFFF80000000000003FFFFF80000000
1FFFFFFFFC00003FFFFFFFFC0000000000003FFFFF80000000
1FFFFFFFE0000007FFFFFFFC0000000000007FFFFF00000000
3FFFFFFFC0000003FFFFFFFC0000000000007FFFFF00000000
3FFFFFFF80000000FFFFFFFC000000000000FFFFFE00000000
3FFFFFFF00000000FFFFFFFE000000000000FFFFFE00000000
7FFFFFFE000000007FFFFFFE000000000001FFFFFC00000000
7FFFFFFC000000003FFFFFFE000000000001FFFFFC00000000
7FFFFFFC000000003FFFFFFE000000000003FFFFF800000000
7FFFFFFC000000003FFFFFFE000000000003FFFFF000000000
7FFFFFF8000000001FFFFFFF000000000007FFFFF000000000
7FFFFFF8000000001FFFFFFF000000000007FFFFE000000000
FFFFFFF8000000001FFFFFFF00000000000FFFFFE000000000
FFFFFFF8000000001FFFFFFF00000000001FFFFFC000000000
FFFFFFF8000000000FFFFFFF00000000001FFFFFC000000000
FFFFFFF0000000000FFFFFFF00000000003FFFFF8000000000
FFFFFFF0000000000FFFFFFF00000000003FFFFF8000000000
FFFFFFF0000000000FFFFFFF00000000007FFFFF0000000000
FFFFFFF0000000000FFFFFFF00000000007FFFFF0000000000
FFFFFFF0000000000FFFFFFF0000000000FFFFFE0000000000
FFFFFFF0000000000FFFFFFF0000000000FFFFFC0000000000
FFFFFFF0000000000FFFFFFF0000000001FFFFFC0000000000
FFFFFFF0000000000FFFFFFF0000000001FFFFF80000000000
FFFFFFF0000000000FFFFFFF0000000003FFFFF80000000000
FFFFFFF0000000000FFFFFFF0000000007FFFFF00000000000
FFFFFFF0000000000FFFFFFF0000000007FFFFF00000000000
FFFFFFF0000000000FFFFFFF000000000FFFFFE00000000000
FFFFFFF0000000000FFFFFFF000000000FFFFFE00000000000
FFFFFFF0000000000FFFFFFF000000001FFFFFC00000000000
FFFFFFF0000000000FFFFFFF000000001FFFFF800000000000
FFFFFFF0000000000FFFFFFF000000003FFFFF800000000000
FFFFFFF0000000000FFFFFFF000000003FFFFF000000000000
FFFFFFF0000000000FFFFFFF000000007FFFFF000000000000
FFFFFFF0000000000FFFFFFF000000007FFFFE000000000000
FFFFFFF0000000000FFFFFFF00000000FFFFFE000000000000
FFFFFFF0000000000FFFFFFF00000001FFFFFC000000000000
FFFFFFF0000000000FFFFFFF00000001FFFFFC000000000000
FFFFFFF0000000000FFFFFFF00000003FFFFF8000000000000
FFFFFFF0000000000FFFFFFF00000003FFFFF8000000000000
FFFFFFF0000000000FFFFFFF00000007FFFFF0000000000000
FFFFFFF0000000000FFFFFFF00000007FFFFE0000000000000
FFFFFFF0000000000FFFFFFF0000000FFFFFE0000000000000
FFFFFFF0000000000FFFFFFF0000000FFFFFC0000000000000
FFFFFFF0000000000FFFFFFF0000001FFFFFC0000000000000
FFFFFFF0000000000FFFFFFF0000001FFFFF80000000000000
FFFFFFF0000000000FFFFFFF0000003FFFFF80000000000000
FFFFFFF0000000000FFFFFFF0000007FFFFF00000000000000
FFFFFFF0000000000FFFFFFF0000007FFFFF00000000000000
FFFFFFF0000000000FFFFFFF000000FFFFFE00000000000000
FFFFFFF0000000000FFFFFFF000000FFFFFE00000000000000
FFFFFFF0000000000FFFFFFF000001FFFFFC00000000000000
FFFFFFF0000000000FFFFFFF000001FFFFF800000000000000
FFFFFFF0000000000FFFFFFF000003FFFFF800000000000000
FFFFFFF0000000000FFFFFFF000003FFFFF000000000000000
FFFFFFF0000000000FFFFFFF000007FFFFF000000000000000
FFFFFFF0000000000FFFFFFF000007FFFFE000000000000000
FFFFFFF0000000000FFFFFFF00000FFFFFE000000000000000
FFFFFFF0000000000FFFFFFF00001FFFFFC000000000000000
FFFFFFF0000000000FFFFFFF00001FFFFFC000000000000000
FFFFFFF0000000000FFFFFFF00003FFFFF8000000000000000
FFFFFFF0000000000FFFFFFF00003FFFFF8000000000000000
FFFFFFF0000000000FFFFFFF00007FFFFF0000000000000000
FFFFFFF0000000000FFFFFFF00007FFFFE0000000000000000
FFFFFFF0000000000FFFFFFF0000FFFFFE0000000000000000
FFFFFFF0000000000FFFFFFF0000FFFFFC0000000000000000
FFFFFFF0000000000FFFFFFF0001FFFFFC0000000000000000
FFFFFFF8000000000FFFFFFF0001FFFFF80000000000000000
FFFFFFF8000000001FFFFFFF0003FFFFF80000000000000000
FFFFFFF8000000001FFFFFFF0007FFFFF00000000000000000
7FFFFFF8000000001FFFFFFF0007FFFFF00000000000000000
7FFFFFF8000000001FFFFFFE000FFFFFE00000000000000000
7FFFFFF8000000001FFFFFFE000FFFFFE00000000000000000
7FFFFFFC000000003FFFFFFE001FFFFFC00000000000000000
7FFFFFFC000000003FFFFFFE001FFFFF800000000000000000
7FFFFFFC000000003FFFFFFE003FFFFF800000000000000000
7FFFFFFC000000007FFFFFFE003FFFFF000000000000000000
3FFFFFFE000000007FFFFFFE007FFFFF000000000000000000
3FFFFFFF00000000FFFFFFFC007FFFFE000000000000000000
3FFFFFFF00000001FFFFFFFC00FFFFFE000000000000000000
3FFFFFFF80000003FFFFFFFC01FFFFFC000000000000000000
1FFFFFFFE0000007FFFFFFFC01FFFFFC000000000000000000
1FFFFFFFF800001FFFFFFFF803FFFFF8000000000000000000
1FFFFFFFFF8001FFFFFFFFF803FFFFF0000000000000000000
0FFFFFFFFFFFFFFFFFFFFFF807FFFFF0000000000000000000
0FFFFFFFFFFFFFFFFFFFFFF007FFFFE0000000000000000000
07FFFFFFFFFFFFFFFFFFFFF00FFFFFE0000000000000000000
07FFFFFFFFFFFFFFFFFFFFE00FFFFFC0000000000000000000
03FFFFFFFFFFFFFFFFFFFFC01FFFFFC0000000000000000000
01FFFFFFFFFFFFFFFFFFFFC01FFFFF80000000000000000000
00FFFFFFFFFFFFFFFFFFFF803FFFFF80000000000000000000
007FFFFFFFFFFFFFFFFFFF007FFFFF00000000000000000000
003FFFFFFFFFFFFFFFFFFC007FFFFF00000000000000000000
001FFFFFFFFFFFFFFFFFF800FFFFFE00000000000000000000
0007FFFFFFFFFFFFFFFFE000FFFFFC00000000000000000000
0001FFFFFFFFFFFFFFFF8001FFFFFC00000000000000000000
00003FFFFFFFFFFFFFFC0001FFFFF800000000000000000000
000001FFFFFFFFFFFF800003FFFFF800000000000000000000
00000001FFFFFFFF00000003FFFFF000000000000000000000
000000000000000000000007FFFFF000000000000000000000
000000000000000000000007FFFFE000000000000000000000
00000000000000000000000FFFFFE000000000000000000000
00000000000000000000001FFFFFC000000000000000000000
00000000000000000000001FFFFFC000000000000000000000
00000000000000000000003FFFFF8000000000000000000000
00000000000000000000003FFFFF0000000000000000000000
00000000000000000000007FFFFF0000000000000000000000
00000000000000000000007FFFFE0000000000000000000000
0000000000000000000000FFFFFE0000000000000000000000
0000000000000000000000FFFFFC0000000000000000000000
0000000000000000000001FFFFFC0000000000000000000000
0000000000000000000001FFFFF80000000000000000000000
0000000000000000000003FFFFF80000000000000000000000
0000000000000000000003FFFFF00000000000000000000000
0000000000000000000007FFFFF00000000000000000000000
000000000000000000000FFFFFE00000000000000000000000
000000000000000000000FFFFFC00000000000000000000000
000000000000000000001FFFFFC00000000000000000000000
000000000000000000001FFFFF800000000000000000000000
000000000000000000003FFFFF800000000000000000000000
000000000000000000003FFFFF000000000000000000000000
000000000000000000007FFFFF00000000FFFFFFFE00000000
000000000000000000007FFFFE000000FFFFFFFFFFFF000000
00000000000000000000FFFFFE00001FFFFFFFFFFFFFF80000
00000000000000000000FFFFFC0000FFFFFFFFFFFFFFFF0000
00000000000000000001FFFFFC0007FFFFFFFFFFFFFFFFE000
00000000000000000003FFFFF8001FFFFFFFFFFFFFFFFFF800
00000000000000000003FFFFF0007FFFFFFFFFFFFFFFFFFC00
00000000000000000007FFFFF000FFFFFFFFFFFFFFFFFFFF00
00000000000000000007FFFFE001FFFFFFFFFFFFFFFFFFFF80
0000000000000000000FFFFFE003FFFFFFFFFFFFFFFFFFFFC0
0000000000000000000FFFFFC007FFFFFFFFFFFFFFFFFFFFE0
0000000000000000001FFFFFC00FFFFFFFFFFFFFFFFFFFFFE0
0000000000000000001FFFFF800FFFFFFFFFFFFFFFFFFFFFF0
0000000000000000003FFFFF801FFFFFFFFFFFFFFFFFFFFFF0
0000000000000000003FFFFF001FFFFFFFFFFFFFFFFFFFFFF8
0000000000000000007FFFFE003FFFFFFFFF0001FFFFFFFFF8
000000000000000000FFFFFE003FFFFFFFF000001FFFFFFFFC
000000000000000000FFFFFC007FFFFFFFC0000007FFFFFFFC
000000000000000001FFFFFC007FFFFFFF00000001FFFFFFFC
000000000000000001FFFFF8007FFFFFFE00000000FFFFFFFE
000000000000000003FFFFF8007FFFFFFC000000007FFFFFFE
000000000000000003FFFFF000FFFFFFFC000000007FFFFFFE
000000000000000007FFFFF000FFFFFFF8000000003FFFFFFE
000000000000000007FFFFE000FFFFFFF8000000003FFFFFFE
00000000000000000FFFFFE000FFFFFFF0000000001FFFFFFE
00000000000000000FFFFFC000FFFFFFF0000000001FFFFFFF
00000000000000001FFFFF8000FFFFFFF0000000001FFFFFFF
00000000000000003FFFFF8001FFFFFFF0000000001FFFFFFF
00000000000000003FFFFF0001FFFFFFF0000000000FFFFFFF
00000000000000007FFFFF0001FFFFFFE0000000000FFFFFFF
00000000000000007FFFFE0001FFFFFFE0000000000FFFFFFF
0000000000000000FFFFFE0001FFFFFFE0000000000FFFFFFF
0000000000000000FFFFFC0001FFFFFFE0000000000FFFFFFF
0000000000000001FFFFFC0001FFFFFFE0000000000FFFFFFF
0000000000000001FFFFF80001FFFFFFE0000000000FFFFFFF
0000000000000003FFFFF80001FFFFFFE0000000000FFFFFFF
0000000000000003FFFFF00001FFFFFFE0000000000FFFFFFF
0000000000000007FFFFE00001FFFFFFE0000000000FFFFFFF
000000000000000FFFFFE00001FFFFFFE0000000000FFFFFFF
000000000000000FFFFFC00001FFFFFFE0000000000FFFFFFF
000000000000001FFFFFC00001FFFFFFE0000000000FFFFFFF
000000000000001FFFFF800001FFFFFFE0000000000FFFFFFF
000000000000003FFFFF800001FFFFFFE0000000000FFFFFFF
000000000000003FFFFF000001FFFFFFE0000000000FFFFFFF
000000000000007FFFFF000001FFFFFFE0000000000FFFFFFF
000000000000007FFFFE000001FFFFFFE0000000000FFFFFFF
00000000000000FFFFFE000001FFFFFFE0000000000FFFFFFF
00000000000000FFFFFC000001FFFFFFE0000000000FFFFFFF
00000000000001FFFFF8000001FFFFFFE0000000000FFFFFFF
00000000000003FFFFF8000001FFFFFFE0000000000FFFFFFF
00000000000003FFFFF0000001FFFFFFE0000000000FFFFFFF
00000000000007FFFFF0000001FFFFFFE0000000000FFFFFFF
00000000000007FFFFE0000001FFFFFFE0000000000FFFFFFF
0000000000000FFFFFE0000001FFFFFFE0000000000FFFFFFF
0000000000000FFFFFC0000001FFFFFFE0000000000FFFFFFF
0000000000001FFFFFC0000001FFFFFFE0000000000FFFFFFF
0000000000001FFFFF80000001FFFFFFE0000000000FFFFFFF
0000000000003FFFFF00000001FFFFFFE0000000000FFFFFFF
0000000000003FFFFF00000001FFFFFFE0000000000FFFFFFF
0000000000007FFFFE00000001FFFFFFE0000000000FFFFFFF
000000000000FFFFFE00000001FFFFFFE0000000000FFFFFFF
000000000000FFFFFC00000001FFFFFFE0000000000FFFFFFF
000000000001FFFFFC00000001FFFFFFE0000000000FFFFFFF
000000000001FFFFF800000001FFFFFFE0000000000FFFFFFF
000000000003FFFFF800000001FFFFFFE0000000000FFFFFFF
000000000003FFFFF000000001FFFFFFE0000000000FFFFFFF
000000000007FFFFF000000001FFFFFFE0000000000FFFFFFF
000000000007FFFFE000000001FFFFFFE0000000000FFFFFFF
00000000000FFFFFC000000001FFFFFFE0000000000FFFFFFF
00000000000FFFFFC000000001FFFFFFE0000000000FFFFFFF
00000000001FFFFF8000000001FFFFFFE0000000000FFFFFFF
00000000003FFFFF8000000001FFFFFFE0000000000FFFFFFF
00000000003FFFFF0000000001FFFFFFE0000000000FFFFFFF
00000000007FFFFF0000000001FFFFFFE0000000000FFFFFFF
00000000007FFFFE0000000001FFFFFFE0000000000FFFFFFF
0000000000FFFFFE0000000001FFFFFFE0000000000FFFFFFF
0000000000FFFFFC0000000001FFFFFFE0000000000FFFFFFF
0000000001FFFFFC0000000001FFFFFFE0000000000FFFFFFF
0000000001FFFFF80000000001FFFFFFE0000000000FFFFFFF
0000000003FFFFF00000000001FFFFFFF0000000001FFFFFFF
0000000003FFFFF00000000001FFFFFFF0000000001FFFFFFF
0000000007FFFFE00000000000FFFFFFF0000000001FFFFFFF
0000000007FFFFE00000000000FFFFFFF0000000001FFFFFFF
000000000FFFFFC00000000000FFFFFFF0000000001FFFFFFE
000000001FFFFFC00000000000FFFFFFF0000000001FFFFFFE
000000001FFFFF800000000000FFFFFFF8000000003FFFFFFE
000000003FFFFF800000000000FFFFFFF8000000003FFFFFFE
000000003FFFFF000000000000FFFFFFF8000000007FFFFFFE
000000007FFFFF000000000000FFFFFFFC000000007FFFFFFE
000000007FFFFE0000000000007FFFFFFE00000000FFFFFFFE
00000000FFFFFC0000000000007FFFFFFE00000001FFFFFFFC
00000000FFFFFC0000000000007FFFFFFF00000003FFFFFFFC
00000001FFFFF80000000000007FFFFFFFC0000007FFFFFFFC
00000001FFFFF80000000000003FFFFFFFF000001FFFFFFFF8
00000003FFFFF00000000000003FFFFFFFFF0001FFFFFFFFF8
00000007FFFFF00000000000001FFFFFFFFFFFFFFFFFFFFFF8
00000007FFFFE00000000000001FFFFFFFFFFFFFFFFFFFFFF0
0000000FFFFFE00000000000000FFFFFFFFFFFFFFFFFFFFFF0
0000000FFFFFC00000000000000FFFFFFFFFFFFFFFFFFFFFE0
0000001FFFFFC000000000000007FFFFFFFFFFFFFFFFFFFFE0
0000001FFFFF8000000000000003FFFFFFFFFFFFFFFFFFFFC0
0000003FFFFF0000000000000003FFFFFFFFFFFFFFFFFFFF80
0000003FFFFF0000000000000001FFFFFFFFFFFFFFFFFFFF00
0000007FFFFE00000000000000007FFFFFFFFFFFFFFFFFFE00
0000007FFFFE00000000000000003FFFFFFFFFFFFFFFFFF800
000000FFFFFC00000000000000000FFFFFFFFFFFFFFFFFE000
000001FFFFFC000000000000000003FFFFFFFFFFFFFFFF8000
000001FFFFF80000000000000000007FFFFFFFFFFFFFFC0000
000003FFFFF800000000000000000003FFFFFFFFFFFF800000
000003FFFFF00000000000000000000003FFFFFFFF00000000
ENDCHAR
STARTCHAR 0026
ENCODING 38
SWIDTH 675 0
DWIDTH 211 0
BBX 175 242 16 -1
BITMAP
00000000000000FFFFFFFFFFFFFFFFFE000000000000
000000000003FFFFFFFFFFFFFFFFFFFE000000000000
0000000000FFFFFFFFFFFFFFFFFFFFFE000000000000
000000001FFFFFFFFFFFFFFFFFFFFFFE000000000000
00000001FFFFFFFFFFFFFFFFFFFFFFFE000000000000
0000000FFFFFFFFFFFFFFFFFFFFFFFFE000000000000
0000007FFFFFFFFFFFFFFFFFFFFFFFFE000000000000
000001FFFFFFFFFFFFFFFFFFFFFFFFFE000000000000
000007FFFFFFFFFFFFFFFFFFFFFFFFFE000000000000
00001FFFFFFFFFFFFFFFFFFFFFFFFFFE000000000000
00007FFFFFFFFFFFFFFFFFFFFFFFFFFE000000000000
0000FFFFFFFFFFFFFFFFFFFFFFFFFFFE000000000000
0001FFFFFFFFFFFFFFFFFFFFFFFFFFFE000000000000
0007FFFFFFFFFFFFFFFFFFFFFFFFFFFE000000000000
000FFFFFFFFFFFFFFFFFFFFFFFFFFFFE000000000000
001FFFFFFFFFFFFFFFFFFFFFFFFFFFFE000000000000
003FFFFFFFFFFFFFFFFFFFFFFFFFFFFE000000000000
007FFFFFFFFFFFFFFFFFFFFFFFFFFFFE000000000000
007FFFFFFFFFFFFFFFFFFFFFFFFFFFFE000000000000
00FFFFFFFFFFFFFFFFFFFFFFFFFFFFFE000000000000
01FFFFFFFFFFFFFFFFFFFFFFFFFFFFFE000000000000
03FFFFFFFFFFFFFFFFFFFFFFFFFFFFFE000000000000
03FFFFFFFFFFFFFFFFFFFFFFFFFFFFFE000000000000
07FFFFFFFFFFFFFFFFFFFFFFFFFFFFFE000000000000
07FFFFFFFFFFFFFFFFFFFFFFFFFFFFFE000000000000
0FFFFFFFFFFFFFFFFFFFFFFFFFFFFFFE000000000000
0FFFFFFFFFFFFFFFFFFFFFFFFFFFFFFE000000000000
1FFFFFFFFFFFFFFFFFFFFFFFFFFFFFFE000000000000
1FFFFFFFFFFFFFFFFFFFFFFFFFFFFFFE000000000000
1FFFFFFFFFFFFFFFFFFFFFFFFFFFFFFE000000000000
3FFFFFFFFFFFFFFFFFFFFFFFFFFFFFFE000000000000
3FFFFFFFFFFFFFFFFFFFFFFFFFFFFFFE000000000000
3FFFFFFFFFFFFFFFFFFFFFFFFFFFFFFE000000000000
3FFFFFFFFFFFFFFFFFFFFFFFFFFFFFFE000000000000
7FFFFFFFFFFFFFFFFFFFFFFFFFFFFFFE000000000000
7FFFFFFFFFFFFFFFFFFFFFFFFFFFFFFE000000000000
7FFFFFFFFFFFFFE00000000000000000000000000000
7FFFFFFFFFFFFE000000000000000000000000000000
7FFFFFFFFFFFF8000000000000000000000000000000
7FFFFFFFFFFFE0000000000000000000000000000000
FFFFFFFFFFFFC0000000000000000000000000000000
FFFFFFFFFFFF80000000000000000000000000000000
FFFFFFFFFFFF00000000000000000000000000000000
FFFFFFFFFFFE00000000000000000000000000000000
FFFFFFFFFFFE00000000000000000000000000000000
FFFFFFFFFFFC00000000000000000000000000000000
FFFFFFFFFFFC00000000000000000000000000000000
FFFFFFFFFFF800000000000000000000000000000000
FFFFFFFFFFF800000000000000000000000000000000
FFFFFFFFFFF800000000000000000000000000000000
FFFFFFFFFFF800000000000000000000000000000000
FFFFFFFFFFF800000000000000000000000000000000
FFFFFFFFFFF000000000000000000000000000000000
FFFFFFFFFFF000000000000000000000000000000000
FFFFFFFFFFF000000000000000000000000000000000
FFFFFFFFFFF000000000000000000000000000000000
FFFFFFFFFFF000000000000000000000000000000000
FFFFFFFFFFF000000000000000000000000000000000
FFFFFFFFFFF000000000000000000000000000000000
FFFFFFFFFFF000000000000000000000000000000000
FFFFFFFFFFF000000000000000000000000000000000
FFFFFFFFFFF000000000000000000000000000000000
FFFFFFFFFFF000000000000000000000000000000000
FFFFFFFFFFF000000000000000000000000000000000
FFFFFFFFFFF000000000000000000000000000000000
FFFFFFFFFFF000000000000000000000000000000000
FFFFFFFFFFF000000000000000000000000000000000
FFFFFFFFFFF000000000000000000000000000000000
FFFFFFFFFFF000000000000000000000000000000000
FFFFFFFFFFF000000000000000000000000000000000
FFFFFFFFFFF000000000000000000000000000000000
FFFFFFFFFFF000000000000000000000000000000000
FFFFFFFFFFF000000000000000000000000000000000
FFFFFFFFFFF000000000000000000000000000000000
FFFFFFFFFFF000000000000000000000000000000000
FFFFFFFFFFF000000000000000000000000000000000
FFFFFFFFFFF000000000000000000000000000000000
FFFFFFFFFFF000000000000000000000000000000000
FFFFFFFFFFF000000000000000000000000000000000
FFFFFFFFFFF000000000000000000000000000000000
FFFFFFFFFFF000000000000000000000000000000000
FFFFFFFFFFF000000000000000000000000000000000
FFFFFFFFFFF000000000000000000000000000000000
FFFFFFFFFFF800000000000000000000000000000000
FFFFFFFFFFF800000000000000000000000000000000
FFFFFFFFFFF800000000000000000000000000000000
FFFFFFFFFFF800000000000000000000000000000000
FFFFFFFFFFFC00000000000000000000000000000000
FFFFFFFFFFFC00000000000000000000000000000000
FFFFFFFFFFFC00000000000000000000000000000000
FFFFFFFFFFFE00000000000000000000000000000000
7FFFFFFFFFFE00000000000000000000000000000000
7FFFFFFFFFFF00000000000000000000000000000000
7FFFFFFFFFFF80000000000000000000000000000000
7FFFFFFFFFFFC0000000000000000000000000000000
7FFFFFFFFFFFF0000000000000000000000000000000
7FFFFFFFFFFFFE000000000000000000000000000000
3FFFFFFFFFFFFFF00000000000000000000000000000
3FFFFFFFFFFFFFFFFFFFFFFFFFFFFFFFFFFFFFFFFFFE
3FFFFFFFFFFFFFFFFFFFFFFFFFFFFFFFFFFFFFFFFFFE
1FFFFFFFFFFFFFFFFFFFFFFFFFFFFFFFFFFFFFFFFFFE
1FFFFFFFFFFFFFFFFFFFFFFFFFFFFFFFFFFFFFFFFFFE
1FFFFFFFFFFFFFFFFFFFFFFFFFFFFFFFFFFFFFFFFFFE
0FFFFFFFFFFFFFFFFFFFFFFFFFFFFFFFFFFFFFFFFFFE
07FFFFFFFFFFFFFFFFFFFFFFFFFFFFFFFFFFFFFFFFFE
07FFFFFFFFFFFFFFFFFFFFFFFFFFFFFFFFFFFFFFFFFE
03FFFFFFFFFFFFFFFFFFFFFFFFFFFFFFFFFFFFFFFFFE
01FFFFFFFFFFFFFFFFFFFFFFFFFFFFFFFFFFFFFFFFFE
00FFFFFFFFFFFFFFFFFFFFFFFFFFFFFFFFFFFFFFFFFE
007FFFFFFFFFFFFFFFFFFFFFFFFFFFFFFFFFFFFFFFFE
003FFFFFFFFFFFFFFFFFFFFFFFFFFFFFFFFFFFFFFFFE
000FFFFFFFFFFFFFFFFFFFFFFFFFFFFFFFFFFFFFFFFE
0003FFFFFFFFFFFFFFFFFFFFFFFFFFFFFFFFFFFFFFFE
0000FFFFFFFFFFFFFFFFFFFFFFFFFFFFFFFFFFFFFFFE
00001FFFFFFFFFFFFFFFFFFFFFFFFFFFFFFFFFFFFFFE
000000FFFFFFFFFFFFFFFFFFFFFFFFFFFFFFFFFFFFFE
000001FFFFFFFFFFFFFFFFFFFFFFFFFFFFFFFFFFFFFE
000007FFFFFFFFFFFFFFFFFFFFFFFFFFFFFFFFFFFFFE
00001FFFFFFFFFFFFFFFFFFFFFFFFFFFFFFFFFFFFFFE
00007FFFFFFFFFFFFFFFFFFFFFFFFFFFFFFFFFFFFFFE
0000FFFFFFFFFFFFFFFFFFFFFFFFFFFFFFFFFFFFFFFE
0003FFFFFFFFFFFFFFFFFFFFFFFFFFFFFFFFFFFFFFFE
0007FFFFFFFFFFFFFFFFFFFFFFFFFFFFFFFFFFFFFFFE
000FFFFFFFFFFFFFFFFFFFFFFFFFFFFFFFFFFFFFFFFE
001FFFFFFFFFFFFFFFFFFFFFFFFFFFFFFFFFFFFFFFFE
003FFFFFFFFFFFFFFFFFFFFFFFFFFFFFFFFFFFFFFFFE
007FFFFFFFFFFFFFFFFFFFFFFFFFFFFFFFFFFFFFFFFE
007FFFFFFFFFFFFFFFFFFFFFFFFFFFFFFFFFFFFFFFFE
00FFFFFFFFFFFFFFFFFFFFFFFFFFFFFFFFFFFFFFFFFE
01FFFFFFFFFFFFFFFFFFFFFFFFFFFFFFFFFFFFFFFFFE
01FFFFFFFFFFFFFFFFFFFFFFFFFFFFFFFFFFFFFFFFFE
03FFFFFFFFFFFFFFE000000001FFFFFFFFFF80000000
07FFFFFFFFFFFFF80000000001FFFFFFFFFF80000000
07FFFFFFFFFFFFC00000000001FFFFFFFFFF80000000
07FFFFFFFFFFFE000000000001FFFFFFFFFF80000000
0FFFFFFFFFFFFC000000000001FFFFFFFFFF80000000
0FFFFFFFFFFFF0000000000001FFFFFFFFFF80000000
1FFFFFFFFFFFE0000000000001FFFFFFFFFF80000000
1FFFFFFFFFFFC0000000000001FFFFFFFFFF80000000
1FFFFFFFFFFF80000000000001FFFFFFFFFF80000000
3FFFFFFFFFFF00000000000001FFFFFFFFFF80000000
3FFFFFFFFFFE00000000000001FFFFFFFFFF80000000
3FFFFFFFFFFE00000000000001FFFFFFFFFF80000000
3FFFFFFFFFFC00000000000001FFFFFFFFFF80000000
7FFFFFFFFFFC00000000000001FFFFFFFFFF80000000
7FFFFFFFFFFC00000000000001FFFFFFFFFF80000000
7FFFFFFFFFF800000000000001FFFFFFFFFF80000000
7FFFFFFFFFF800000000000001FFFFFFFFFF80000000
7FFFFFFFFFF800000000000001FFFFFFFFFF80000000
7FFFFFFFFFF800000000000001FFFFFFFFFF80000000
7FFFFFFFFFF000000000000001FFFFFFFFFF80000000
FFFFFFFFFFF000000000000001FFFFFFFFFF80000000
FFFFFFFFFFF000000000000001FFFFFFFFFF80000000
FFFFFFFFFFF000000000000001FFFFFFFFFF80000000
FFFFFFFFFFF000000000000001FFFFFFFFFF80000000
FFFFFFFFFFF000000000000001FFFFFFFFFF80000000
FFFFFFFFFFF000000000000001FFFFFFFFFF80000000
FFFFFFFFFFF000000000000001FFFFFFFFFF80000000
FFFFFFFFFFF000000000000001FFFFFFFFFF80000000
FFFFFFFFFFF000000000000001FFFFFFFFFF80000000
FFFFFFFFFFF000000000000001FFFFFFFFFF80000000
FFFFFFFFFFF000000000000001FFFFFFFFFF80000000
FFFFFFFFFFF000000000000001FFFFFFFFFF80000000
FFFFFFFFFFF000000000000001FFFFFFFFFF80000000
FFFFFFFFFFF000000000000001FFFFFFFFFF80000000
FFFFFFFFFFF000000000000001FFFFFFFFFF80000000
FFFFFFFFFFF000000000000001FFFFFFFFFF80000000
FFFFFFFFFFF000000000000001FFFFFFFFFF80000000
FFFFFFFFFFF000000000000001FFFFFFFFFF80000000
FFFFFFFFFFF000000000000001FFFFFFFFFF80000000
FFFFFFFFFFF000000000000001FFFFFFFFFF80000000
FFFFFFFFFFF000000000000001FFFFFFFFFF80000000
FFFFFFFFFFF000000000000001FFFFFFFFFF80000000
FFFFFFFFFFF000000000000001FFFFFFFFFF80000000
FFFFFFFFFFF000000000000001FFFFFFFFFF80000000
FFFFFFFFFFF000000000000001FFFFFFFFFF80000000
FFFFFFFFFFF000000000000001FFFFFFFFFF80000000
FFFFFFFFFFF000000000000001FFFFFFFFFF80000000
FFFFFFFFFFF000000000000001FFFFFFFFFF80000000
FFFFFFFFFFF000000000000001FFFFFFFFFF80000000
FFFFFFFFFFF000000000000001FFFFFFFFFF80000000
FFFFFFFFFFF000000000000001FFFFFFFFFF80000000
FFFFFFFFFFF000000000000001FFFFFFFFFF80000000
FFFFFFFFFFF000000000000001FFFFFFFFFF80000000
FFFFFFFFFFF000000000000001FFFFFFFFFF80000000
7FFFFFFFFFF000000000000001FFFFFFFFFF80000000
7FFFFFFFFFF000000000000001FFFFFFFFFF80000000
7FFFFFFFFFF000000000000001FFFFFFFFFF80000000
7FFFFFFFFFF000000000000001FFFFFFFFFF80000000
7FFFFFFFFFF000000000000001FFFFFFFFFF80000000
7FFFFFFFFFF000000000000001FFFFFFFFFF80000000
7FFFFFFFFFF000000000000001FFFFFFFFFF80000000
7FFFFFFFFFF000000000000001FFFFFFFFFF80000000
7FFFFFFFFFF800000000000001FFFFFFFFFF80000000
7FFFFFFFFFF800000000000001FFFFFFFFFF80000000
7FFFFFFFFFF800000000000001FFFFFFFFFF80000000
7FFFFFFFFFF800000000000003FFFFFFFFFF80000000
7FFFFFFFFFF800000000000003FFFFFFFFFF80000000
7FFFFFFFFFFC00000000000003FFFFFFFFFF80000000
3FFFFFFFFFFC00000000000003FFFFFFFFFF80000000
3FFFFFFFFFFE00000000000007FFFFFFFFFF80000000
3FFFFFFFFFFE00000000000007FFFFFFFFFF80000000
3FFFFFFFFFFF0000000000000FFFFFFFFFFF80000000
3FFFFFFFFFFF8000000000001FFFFFFFFFFF80000000
3FFFFFFFFFFFC000000000003FFFFFFFFFFF80000000
3FFFFFFFFFFFE000000000007FFFFFFFFFFF80000000
3FFFFFFFFFFFF80000000001FFFFFFFFFFFF80000000
1FFFFFFFFFFFFF0000000007FFFFFFFFFFFF00000000
1FFFFFFFFFFFFFF0000000FFFFFFFFFFFFFF00000000
1FFFFFFFFFFFFFFFFFFFFFFFFFFFFFFFFFFF00000000
1FFFFFFFFFFFFFFFFFFFFFFFFFFFFFFFFFFF00000000
1FFFFFFFFFFFFFFFFFFFFFFFFFFFFFFFFFFF00000000
0FFFFFFFFFFFFFFFFFFFFFFFFFFFFFFFFFFF00000000
0FFFFFFFFFFFFFFFFFFFFFFFFFFFFFFFFFFF00000000
0FFFFFFFFFFFFFFFFFFFFFFFFFFFFFFFFFFE00000000
0FFFFFFFFFFFFFFFFFFFFFFFFFFFFFFFFFFE00000000
07FFFFFFFFFFFFFFFFFFFFFFFFFFFFFFFFFE00000000
07FFFFFFFFFFFFFFFFFFFFFFFFFFFFFFFFFE00000000
07FFFFFFFFFFFFFFFFFFFFFFFFFFFFFFFFFC00000000
07FFFFFFFFFFFFFFFFFFFFFFFFFFFFFFFFFC00000000
03FFFFFFFFFFFFFFFFFFFFFFFFFFFFFFFFFC00000000
03FFFFFFFFFFFFFFFFFFFFFFFFFFFFFFFFF800000000
01FFFFFFFFFFFFFFFFFFFFFFFFFFFFFFFFF800000000
01FFFFFFFFFFFFFFFFFFFFFFFFFFFFFFFFF800000000
00FFFFFFFFFFFFFFFFFFFFFFFFFFFFFFFFF000000000
00FFFFFFFFFFFFFFFFFFFFFFFFFFFFFFFFF000000000
007FFFFFFFFFFFFFFFFFFFFFFFFFFFFFFFE000000000
007FFFFFFFFFFFFFFFFFFFFFFFFFFFFFFFC000000000
003FFFFFFFFFFFFFFFFFFFFFFFFFFFFFFFC000000000
001FFFFFFFFFFFFFFFFFFFFFFFFFFFFFFF8000000000
000FFFFFFFFFFFFFFFFFFFFFFFFFFFFFFF0000000000
000FFFFFFFFFFFFFFFFFFFFFFFFFFFFFFE0000000000
0003FFFFFFFFFFFFFFFFFFFFFFFFFFFFFC0000000000
0001FFFFFFFFFFFFFFFFFFFFFFFFFFFFF80000000000
0000FFFFFFFFFFFFFFFFFFFFFFFFFFFFE00000000000
00003FFFFFFFFFFFFFFFFFFFFFFFFFFFC00000000000
00001FFFFFFFFFFFFFFFFFFFFFFFFFFF000000000000
000007FFFFFFFFFFFFFFFFFFFFFFFFF8000000000000
000000FFFFFFFFFFFFFFFFFFFFFFFFC0000000000000
0000000FFFFFFFFFFFFFFFFFFFFFFE00000000000000
000000007FFFFFFFFFFFFFFFFFFF8000000000000000
00000000001FFFFFFFFFFFFFFC000000000000000000
ENDCHAR
STARTCHAR 0027
ENCODING 39
SWIDTH 294 0
DWIDTH 92 0
BBX 36 73 29 169
BITMAP
007FFFF000
07FFFFFE00
1FFFFFFF80
3FFFFFFFC0
7FFFFFFFE0
FFFFFFFFE0
FFFFFFFFE0
FFFFFFFFE0
FFFFFFFFF0
FFFFFFFFF0
FFFFFFFFF0
FFFFFFFFF0
FFFFFFFFF0
FFFFFFFFE0
FFFFFFFFE0
FFFFFFFFE0
FFFFFFFFE0
FFFFFFFFE0
FFFFFFFFE0
FFFFFFFFE0
FFFFFFFFE0
7FFFFFFFE0
7FFFFFFFC0
7FFFFFFFC0
7FFFFFFFC0
7FFFFFFFC0
7FFFFFFFC0
7FFFFFFFC0
7FFFFFFFC0
3FFFFFFFC0
3FFFFFFF80
3FFFFFFF80
3FFFFFFF80
3FFFFFFF80
3FFFFFFF80
3FFFFFFF80
1FFFFFFF80
1FFFFFFF00
1FFFFFFF00
1FFFFFFF00
1FFFFFFF00
1FFFFFFF00
1FFFFFFF00
1FFFFFFF00
0FFFFFFF00
0FFFFFFE00
0FFFFFFE00
0FFFFFFE00
0FFFFFFE00
0FFFFFFE00
0FFFFFFE00
07FFFFFE00
07FFFFFE00
07FFFFFC00
07FFFFFC00
07FFFFFC00
07FFFFFC00
07FFFFFC00
07FFFFFC00
03FFFFFC00
03FFFFF800
03FFFFF800
03FFFFF800
03FFFFF800
03FFFFF800
03FFFFF800
01FFFFF800
01FFFFF800
01FFFFF000
01FFFFF000
01FFFFF000
01FFFFF000
01FFFFF000
ENDCHAR
STARTCHAR 0028
ENCODING 40
SWIDTH 294 0
DWIDTH 92 0
BBX 76 242 11 0
BITMAP
00000000000000007FF0
000000000000003FFFF0
00000000000007FFFFF0
0000000000007FFFFFF0
000000000003FFFFFFF0
00000000001FFFFFFFF0
00000000007FFFFFFFF0
0000000001FFFFFFFFF0
0000000007FFFFFFFFF0
000000001FFFFFFFFFF0
000000007FFFFFFFFFF0
00000000FFFFFFFFFFF0
00000003FFFFFFFFFFF0
00000007FFFFFFFFF800
0000000FFFFFFFFE0000
0000001FFFFFFFF00000
0000007FFFFFFFC00000
000000FFFFFFFF000000
000001FFFFFFFE000000
000003FFFFFFF8000000
000007FFFFFFF0000000
000007FFFFFFF0000000
00000FFFFFFFE0000000
00001FFFFFFFC0000000
00003FFFFFFFC0000000
00003FFFFFFF80000000
00007FFFFFFF80000000
0000FFFFFFFF00000000
0000FFFFFFFF00000000
0001FFFFFFFE00000000
0003FFFFFFFE00000000
0003FFFFFFFE00000000
0007FFFFFFFC00000000
0007FFFFFFFC00000000
000FFFFFFFFC00000000
000FFFFFFFFC00000000
001FFFFFFFFC00000000
001FFFFFFFF800000000
003FFFFFFFF800000000
003FFFFFFFF800000000
003FFFFFFFF800000000
007FFFFFFFF800000000
007FFFFFFFF800000000
00FFFFFFFFF800000000
00FFFFFFFFF800000000
00FFFFFFFFF800000000
01FFFFFFFFF000000000
01FFFFFFFFF000000000
01FFFFFFFFF000000000
03FFFFFFFFF000000000
03FFFFFFFFF000000000
03FFFFFFFFF000000000
03FFFFFFFFF000000000
07FFFFFFFFF000000000
07FFFFFFFFF000000000
07FFFFFFFFF000000000
07FFFFFFFFF000000000
0FFFFFFFFFF000000000
0FFFFFFFFFF000000000
0FFFFFFFFFF000000000
0FFFFFFFFFF000000000
0FFFFFFFFFF000000000
1FFFFFFFFFF000000000
1FFFFFFFFFF000000000
1FFFFFFFFFF000000000
1FFFFFFFFFF000000000
1FFFFFFFFFF000000000
1FFFFFFFFFF000000000
1FFFFFFFFFF000000000
3FFFFFFFFFF000000000
3FFFFFFFFFF000000000
3FFFFFFFFFF000000000
3FFFFFFFFFF000000000
3FFFFFFFFFF000000000
3FFFFFFFFFF000000000
3FFFFFFFFFF000000000
3FFFFFFFFFF000000000
7FFFFFFFFFF000000000
7FFFFFFFFFF000000000
7FFFFFFFFFF000000000
7FFFFFFFFFF000000000
7FFFFFFFFFF000000000
7FFFFFFFFFF000000000
7FFFFFFFFFF000000000
7FFFFFFFFFF000000000
7FFFFFFFFFF000000000
7FFFFFFFFFF000000000
7FFFFFFFFFF000000000
7FFFFFFFFFF000000000
7FFFFFFFFFF000000000
FFFFFFFFFFF000000000
FFFFFFFFFFF000000000
FFFFFFFFFFF000000000
FFFFFFFFFFF000000000
FFFFFFFFFFF000000000
FFFFFFFFFFF000000000
FFFFFFFFFFF000000000
FFFFFFFFFFF000000000
FFFFFFFFFFF000000000
FFFFFFFFFFF000000000
FFFFFFFFFFF000000000
FFFFFFFFFFF000000000
FFFFFFFFFFF000000000
FFFFFFFFFFF000000000
FFFFFFFFFFF000000000
FFFFFFFFFFF000000000
FFFFFFFFFFF000000000
FFFFFFFFFFF000000000
FFFFFFFFFFF000000000
FFFFFFFFFFF000000000
FFFFFFFFFFF000000000
FFFFFFFFFFF000000000
FFFFFFFFFFF000000000
FFFFFFFFFFF000000000
FFFFFFFFFFF000000000
FFFFFFFFFFF000000000
FFFFFFFFFFF000000000
FFFFFFFFFFF000000000
FFFFFFFFFFF000000000
FFFFFFFFFFF000000000
FFFFFFFFFFF000000000
FFFFFFFFFFF000000000
FFFFFFFFFFF000000000
FFFFFFFFFFF000000000
FFFFFFFFFFF000000000
FFFFFFFFFFF000000000
FFFFFFFFFFF000000000
FFFFFFFFFFF000000000
FFFFFFFFFFF000000000
FFFFFFFFFFF000000000
FFFFFFFFFFF000000000
FFFFFFFFFFF000000000
FFFFFFFFFFF000000000
FFFFFFFFFFF000000000
FFFFFFFFFFF000000000
FFFFFFFFFFF000000000
FFFFFFFFFFF000000000
FFFFFFFFFFF000000000
FFFFFFFFFFF000000000
FFFFFFFFFFF000000000
FFFFFFFFFFF000000000
FFFFFFFFFFF000000000
FFFFFFFFFFF000000000
FFFFFFFFFFF000000000
FFFFFFFFFFF000000000
FFFFFFFFFFF000000000
FFFFFFFFFFF000000000
7FFFFFFFFFF000000000
7FFFFFFFFFF000000000
7FFFFFFFFFF000000000
7FFFFFFFFFF000000000
7FFFFFFFFFF000000000
7FFFFFFFFFF000000000
7FFFFFFFFFF000000000
7FFFFFFFFFF000000000
7FFFFFFFFFF000000000
7FFFFFFFFFF000000000
7FFFFFFFFFF000000000
7FFFFFFFFFF000000000
7FFFFFFFFFF000000000
7FFFFFFFFFF000000000
7FFFFFFFFFF000000000
7FFFFFFFFFF000000000
3FFFFFFFFFF000000000
3FFFFFFFFFF000000000
3FFFFFFFFFF000000000
3FFFFFFFFFF000000000
3FFFFFFFFFF000000000
3FFFFFFFFFF000000000
3FFFFFFFFFF000000000
3FFFFFFFFFF000000000
3FFFFFFFFFF000000000
3FFFFFFFFFF000000000
3FFFFFFFFFF000000000
1FFFFFFFFFF000000000
1FFFFFFFFFF000000000
1FFFFFFFFFF000000000
1FFFFFFFFFF000000000
1FFFFFFFFFF000000000
1FFFFFFFFFF000000000
1FFFFFFFFFF000000000
0FFFFFFFFFF000000000
0FFFFFFFFFF000000000
0FFFFFFFFFF000000000
0FFFFFFFFFF000000000
0FFFFFFFFFF000000000
07FFFFFFFFF000000000
07FFFFFFFFF000000000
07FFFFFFFFF800000000
07FFFFFFFFF800000000
07FFFFFFFFF800000000
03FFFFFFFFF800000000
03FFFFFFFFF800000000
03FFFFFFFFF800000000
03FFFFFFFFF800000000
01FFFFFFFFF800000000
01FFFFFFFFF800000000
01FFFFFFFFF800000000
00FFFFFFFFF800000000
00FFFFFFFFF800000000
00FFFFFFFFFC00000000
007FFFFFFFFC00000000
007FFFFFFFFC00000000
007FFFFFFFFC00000000
003FFFFFFFFC00000000
003FFFFFFFFC00000000
001FFFFFFFFE00000000
001FFFFFFFFE00000000
001FFFFFFFFE00000000
000FFFFFFFFE00000000
000FFFFFFFFF00000000
0007FFFFFFFF00000000
0007FFFFFFFF00000000
0003FFFFFFFF80000000
0001FFFFFFFF80000000
0001FFFFFFFF80000000
0000FFFFFFFFC0000000
0000FFFFFFFFC0000000
00007FFFFFFFE0000000
00003FFFFFFFF0000000
00001FFFFFFFF0000000
00001FFFFFFFF8000000
00000FFFFFFFFC000000
000007FFFFFFFE000000
000003FFFFFFFF800000
000001FFFFFFFFC00000
000000FFFFFFFFF00000
0000007FFFFFFFFE0000
0000001FFFFFFFFFF800
0000000FFFFFFFFFFFF0
00000007FFFFFFFFFFF0
00000001FFFFFFFFFFF0
00000000FFFFFFFFFFF0
000000003FFFFFFFFFF0
000000000FFFFFFFFFF0
0000000003FFFFFFFFF0
00000000007FFFFFFFF0
00000000001FFFFFFFF0
000000000001FFFFFFF0
0000000000001FFFFFF0
00000000000000FFFFF0
0000000000000000FFF0
ENDCHAR
STARTCHAR 0029
ENCODING 41
SWIDTH 294 0
DWIDTH 92 0
BBX 76 242 4 0
BITMAP
FFF00000000000000000
FFFFF800000000000000
FFFFFFC0000000000000
FFFFFFF8000000000000
FFFFFFFF800000000000
FFFFFFFFE00000000000
FFFFFFFFFC0000000000
FFFFFFFFFF0000000000
FFFFFFFFFFC000000000
FFFFFFFFFFF000000000
FFFFFFFFFFF800000000
FFFFFFFFFFFE00000000
FFFFFFFFFFFF00000000
01FFFFFFFFFFC0000000
0007FFFFFFFFE0000000
0000FFFFFFFFF0000000
00003FFFFFFFF8000000
00001FFFFFFFFC000000
000007FFFFFFFE000000
000003FFFFFFFF000000
000001FFFFFFFF800000
000000FFFFFFFF800000
0000007FFFFFFFC00000
0000007FFFFFFFE00000
0000003FFFFFFFF00000
0000003FFFFFFFF00000
0000001FFFFFFFF80000
0000001FFFFFFFFC0000
0000000FFFFFFFFC0000
0000000FFFFFFFFE0000
0000000FFFFFFFFE0000
00000007FFFFFFFF0000
00000007FFFFFFFF0000
00000007FFFFFFFF8000
00000007FFFFFFFF8000
00000003FFFFFFFFC000
00000003FFFFFFFFC000
00000003FFFFFFFFC000
00000003FFFFFFFFE000
00000003FFFFFFFFE000
00000003FFFFFFFFF000
00000001FFFFFFFFF000
00000001FFFFFFFFF000
00000001FFFFFFFFF800
00000001FFFFFFFFF800
00000001FFFFFFFFF800
00000001FFFFFFFFF800
00000001FFFFFFFFFC00
00000001FFFFFFFFFC00
00000001FFFFFFFFFC00
00000001FFFFFFFFFC00
00000001FFFFFFFFFE00
00000000FFFFFFFFFE00
00000000FFFFFFFFFE00
00000000FFFFFFFFFE00
00000000FFFFFFFFFF00
00000000FFFFFFFFFF00
00000000FFFFFFFFFF00
00000000FFFFFFFFFF00
00000000FFFFFFFFFF00
00000000FFFFFFFFFF00
00000000FFFFFFFFFF80
00000000FFFFFFFFFF80
00000000FFFFFFFFFF80
00000000FFFFFFFFFF80
00000000FFFFFFFFFF80
00000000FFFFFFFFFF80
00000000FFFFFFFFFF80
00000000FFFFFFFFFFC0
00000000FFFFFFFFFFC0
00000000FFFFFFFFFFC0
00000000FFFFFFFFFFC0
00000000FFFFFFFFFFC0
00000000FFFFFFFFFFC0
00000000FFFFFFFFFFC0
00000000FFFFFFFFFFC0
00000000FFFFFFFFFFC0
00000000FFFFFFFFFFE0
00000000FFFFFFFFFFE0
00000000FFFFFFFFFFE0
00000000FFFFFFFFFFE0
00000000FFFFFFFFFFE0
00000000FFFFFFFFFFE0
00000000FFFFFFFFFFE0
00000000FFFFFFFFFFE0
00000000FFFFFFFFFFE0
00000000FFFFFFFFFFE0
00000000FFFFFFFFFFE0
00000000FFFFFFFFFFE0
00000000FFFFFFFFFFE0
00000000FFFFFFFFFFE0
00000000FFFFFFFFFFE0
00000000FFFFFFFFFFE0
00000000FFFFFFFFFFF0
00000000FFFFFFFFFFF0
00000000FFFFFFFFFFF0
00000000FFFFFFFFFFF0
00000000FFFFFFFFFFF0
00000000FFFFFFFFFFF0
00000000FFFFFFFFFFF0
00000000FFFFFFFFFFF0
00000000FFFFFFFFFFF0
00000000FFFFFFFFFFF0
00000000FFFFFFFFFFF0
00000000FFFFFFFFFFF0
00000000FFFFFFFFFFF0
00000000FFFFFFFFFFF0
00000000FFFFFFFFFFF0
00000000FFFFFFFFFFF0
00000000FFFFFFFFFFF0
00000000FFFFFFFFFFF0
00000000FFFFFFFFFFF0
00000000FFFFFFFFFFF0
00000000FFFFFFFFFFF0
00000000FFFFFFFFFFF0
00000000FFFFFFFFFFF0
00000000FFFFFFFFFFF0
00000000FFFFFFFFFFF0
00000000FFFFFFFFFFF0
00000000FFFFFFFFFFF0
00000000FFFFFFFFFFF0
00000000FFFFFFFFFFF0
00000000FFFFFFFFFFF0
00000000FFFFFFFFFFF0
00000000FFFFFFFFFFF0
00000000FFFFFFFFFFF0
00000000FFFFFFFFFFF0
00000000FFFFFFFFFFF0
00000000FFFFFFFFFFF0
00000000FFFFFFFFFFF0
00000000FFFFFFFFFFF0
00000000FFFFFFFFFFF0
00000000FFFFFFFFFFF0
00000000FFFFFFFFFFF0
00000000FFFFFFFFFFF0
00000000FFFFFFFFFFF0
00000000FFFFFFFFFFF0
00000000FFFFFFFFFFF0
00000000FFFFFFFFFFF0
00000000FFFFFFFFFFF0
00000000FFFFFFFFFFF0
00000000FFFFFFFFFFF0
00000000FFFFFFFFFFF0
00000000FFFFFFFFFFF0
00000000FFFFFFFFFFF0
00000000FFFFFFFFFFF0
00000000FFFFFFFFFFF0
00000000FFFFFFFFFFF0
00000000FFFFFFFFFFF0
00000000FFFFFFFFFFF0
00000000FFFFFFFFFFF0
00000000FFFFFFFFFFF0
00000000FFFFFFFFFFF0
00000000FFFFFFFFFFF0
00000000FFFFFFFFFFE0
00000000FFFFFFFFFFE0
00000000FFFFFFFFFFE0
00000000FFFFFFFFFFE0
00000000FFFFFFFFFFE0
00000000FFFFFFFFFFE0
00000000FFFFFFFFFFE0
00000000FFFFFFFFFFE0
00000000FFFFFFFFFFE0
00000000FFFFFFFFFFE0
00000000FFFFFFFFFFE0
00000000FFFFFFFFFFE0
00000000FFFFFFFFFFC0
00000000FFFFFFFFFFC0
00000000FFFFFFFFFFC0
00000000FFFFFFFFFFC0
00000000FFFFFFFFFFC0
00000000FFFFFFFFFFC0
00000000FFFFFFFFFFC0
00000000FFFFFFFFFFC0
00000000FFFFFFFFFF80
00000000FFFFFFFFFF80
00000000FFFFFFFFFF80
00000000FFFFFFFFFF80
00000000FFFFFFFFFF80
00000000FFFFFFFFFF80
00000000FFFFFFFFFF00
00000000FFFFFFFFFF00
00000000FFFFFFFFFF00
00000000FFFFFFFFFF00
00000000FFFFFFFFFF00
00000000FFFFFFFFFE00
00000000FFFFFFFFFE00
00000000FFFFFFFFFE00
00000000FFFFFFFFFE00
00000000FFFFFFFFFC00
00000000FFFFFFFFFC00
00000000FFFFFFFFFC00
00000000FFFFFFFFFC00
00000000FFFFFFFFF800
00000000FFFFFFFFF800
00000000FFFFFFFFF800
00000000FFFFFFFFF000
00000001FFFFFFFFF000
00000001FFFFFFFFF000
00000001FFFFFFFFE000
00000001FFFFFFFFE000
00000001FFFFFFFFE000
00000001FFFFFFFFC000
00000001FFFFFFFFC000
00000001FFFFFFFF8000
00000003FFFFFFFF8000
00000003FFFFFFFF0000
00000003FFFFFFFF0000
00000003FFFFFFFE0000
00000003FFFFFFFE0000
00000007FFFFFFFC0000
00000007FFFFFFFC0000
00000007FFFFFFF80000
0000000FFFFFFFF80000
0000000FFFFFFFF00000
0000000FFFFFFFE00000
0000001FFFFFFFE00000
0000001FFFFFFFC00000
0000003FFFFFFF800000
0000007FFFFFFF000000
0000007FFFFFFE000000
000000FFFFFFFE000000
000001FFFFFFFC000000
000003FFFFFFF8000000
00000FFFFFFFF0000000
00003FFFFFFFE0000000
0000FFFFFFFFC0000000
0007FFFFFFFF00000000
01FFFFFFFFFE00000000
FFFFFFFFFFFC00000000
FFFFFFFFFFF000000000
FFFFFFFFFFE000000000
FFFFFFFFFF8000000000
FFFFFFFFFE0000000000
FFFFFFFFFC0000000000
FFFFFFFFE00000000000
FFFFFFFF800000000000
FFFFFFFC000000000000
FFFFFFE0000000000000
FFFFFE00000000000000
FFFFC000000000000000
FFE00000000000000000
ENDCHAR
STARTCHAR 002A
ENCODING 42
SWIDTH 604 0
DWIDTH 189 0
BBX 110 113 40 128
BITMAP
0000000001FFFFFFE00000000000
0000000001FFFFFFE00000000000
0000000001FFFFFFE00000000000
0000000001FFFFFFE00000000000
0000000001FFFFFFE00000000000
0000000001FFFFFFE00000000000
0000000001FFFFFFE00000000000
0000000001FFFFFFE00000000000
0000000001FFFFFFE00000000000
0000000001FFFFFFE00000000000
0000000001FFFFFFE00000000000
0000000001FFFFFFE00000000000
0000000001FFFFFFE00000000000
0000000001FFFFFFE00000000000
0000000001FFFFFFE00000000000
0000000001FFFFFFE00000000000
0000000001FFFFFFE00000000000
0000000001FFFFFFE00000000000
0000000001FFFFFFE00000000000
0000000001FFFFFFE00000000000
0000000001FFFFFFE00000000000
0000000001FFFFFFE00000000000
0000000001FFFFFFE00000000000
0000000001FFFFFFE00000000000
0000000001FFFFFFE00000006000
0060000001FFFFFFE0000001E000
00F0000001FFFFFFE0000003F000
00FC000001FFFFFFE000000FF000
00FE000001FFFFFFE000001FF000
01FF800001FFFFFFE000007FF800
01FFE00001FFFFFFE00001FFF800
01FFF00001FFFFFFE00003FFF800
01FFFC0001FFFFFFE0000FFFFC00
03FFFE0001FFFFFFE0001FFFFC00
03FFFF8001FFFFFFE0007FFFFE00
03FFFFE001FFFFFFE001FFFFFE00
07FFFFF001FFFFFFE003FFFFFE00
07FFFFFC01FFFFFFE00FFFFFFF00
07FFFFFE01FFFFFFE01FFFFFFF00
0FFFFFFF81FFFFFFE07FFFFFFF00
0FFFFFFFE1FFFFFFE1FFFFFFFF80
0FFFFFFFF1FFFFFFE3FFFFFFFF80
0FFFFFFFFDFFFFFFEFFFFFFFFF80
1FFFFFFFFFFFFFFFFFFFFFFFFFC0
1FFFFFFFFFFFFFFFFFFFFFFFFFC0
1FFFFFFFFFFFFFFFFFFFFFFFFFC0
3FFFFFFFFFFFFFFFFFFFFFFFFFE0
3FFFFFFFFFFFFFFFFFFFFFFFFFE0
3FFFFFFFFFFFFFFFFFFFFFFFFFE0
7FFFFFFFFFFFFFFFFFFFFFFFFFF0
7FFFFFFFFFFFFFFFFFFFFFFFFFF0
7FFFFFFFFFFFFFFFFFFFFFFFFFF8
7FFFFFFFFFFFFFFFFFFFFFFFFFF8
FFFFFFFFFFFFFFFFFFFFFFFFFFF8
FFFFFFFFFFFFFFFFFFFFFFFFFFFC
FFFFFFFFFFFFFFFFFFFFFFFFFF80
7FFFFFFFFFFFFFFFFFFFFFFFC000
007FFFFFFFFFFFFFFFFFFFE00000
00007FFFFFFFFFFFFFFFE0000000
0000003FFFFFFFFFFFF000000000
000000003FFFFFFFFC0000000000
0000000001FFFFFFFE0000000000
0000000003FFFFFFFF0000000000
0000000007FFFFFFFF0000000000
000000000FFFFFFFFF8000000000
000000001FFFFFFFFFC000000000
000000003FFFFFFFFFE000000000
000000003FFFFFFFFFF000000000
000000007FFFFFFFFFF800000000
00000000FFFFFFFFFFF800000000
00000001FFFFFFFFFFFC00000000
00000003FFFFFFFFFFFE00000000
00000003FFFFFFFFFFFF00000000
00000007FFFFFFFFFFFF80000000
0000000FFFFFFFFFFFFFC0000000
0000001FFFFFFFFFFFFFC0000000
0000003FFFFFFFFFFFFFE0000000
0000007FFFFFFFFFFFFFF0000000
0000007FFFFFFBFFFFFFF8000000
000000FFFFFFFBFFFFFFFC000000
000001FFFFFFF1FFFFFFFE000000
000003FFFFFFF1FFFFFFFE000000
000007FFFFFFE0FFFFFFFF000000
00000FFFFFFFE0FFFFFFFF800000
00000FFFFFFFE07FFFFFFFC00000
00001FFFFFFFC07FFFFFFFE00000
00003FFFFFFFC03FFFFFFFF00000
00007FFFFFFF803FFFFFFFF80000
0000FFFFFFFF801FFFFFFFF80000
0001FFFFFFFF001FFFFFFFFC0000
0001FFFFFFFF000FFFFFFFFE0000
0003FFFFFFFE000FFFFFFFFF0000
0007FFFFFFFE0007FFFFFFFF8000
000FFFFFFFFE0007FFFFFFFF8000
0007FFFFFFFC0003FFFFFFFF0000
0003FFFFFFFC0003FFFFFFFC0000
0000FFFFFFF80001FFFFFFF80000
00007FFFFFF80001FFFFFFF00000
00003FFFFFF00000FFFFFFC00000
00000FFFFFF00000FFFFFF800000
000007FFFFE000007FFFFF000000
000003FFFFE000007FFFFE000000
000000FFFFE000003FFFF8000000
0000007FFFC000003FFFF0000000
0000003FFFC000001FFFE0000000
0000000FFF8000001FFF80000000
00000007FF8000000FFF00000000
00000003FF0000000FFE00000000
00000001FF00000007F800000000
000000007E00000007F000000000
000000003E00000003E000000000
000000001E000000018000000000
0000000004000000010000000000
ENDCHAR
STARTCHAR 002B
ENCODING 43
SWIDTH 604 0
DWIDTH 189 0
BBX 162 165 12 3
BITMAP
0000000000000000007FFF00000000000000000000
00000000000000001FFFFFF8000000000000000000
00000000000000007FFFFFFF000000000000000000
0000000000000001FFFFFFFF800000000000000000
0000000000000003FFFFFFFFC00000000000000000
0000000000000007FFFFFFFFE00000000000000000
000000000000000FFFFFFFFFF00000000000000000
000000000000000FFFFFFFFFF00000000000000000
000000000000000FFFFFFFFFF00000000000000000
000000000000001FFFFFFFFFF80000000000000000
000000000000001FFFFFFFFFF80000000000000000
000000000000001FFFFFFFFFF80000000000000000
000000000000001FFFFFFFFFF80000000000000000
000000000000001FFFFFFFFFF80000000000000000
000000000000003FFFFFFFFFFC0000000000000000
000000000000003FFFFFFFFFFC0000000000000000
000000000000003FFFFFFFFFFC0000000000000000
000000000000003FFFFFFFFFFC0000000000000000
000000000000003FFFFFFFFFFC0000000000000000
000000000000003FFFFFFFFFFC0000000000000000
000000000000003FFFFFFFFFFC0000000000000000
000000000000003FFFFFFFFFFC0000000000000000
000000000000003FFFFFFFFFFC0000000000000000
000000000000003FFFFFFFFFFC0000000000000000
000000000000003FFFFFFFFFFC0000000000000000
000000000000003FFFFFFFFFFC0000000000000000
000000000000003FFFFFFFFFFC0000000000000000
000000000000003FFFFFFFFFFC0000000000000000
000000000000003FFFFFFFFFFC0000000000000000
000000000000003FFFFFFFFFFC0000000000000000
000000000000003FFFFFFFFFFC0000000000000000
000000000000003FFFFFFFFFFC0000000000000000
000000000000003FFFFFFFFFFC0000000000000000
000000000000003FFFFFFFFFFC0000000000000000
000000000000003FFFFFFFFFFC0000000000000000
000000000000003FFFFFFFFFFC0000000000000000
000000000000003FFFFFFFFFFC0000000000000000
000000000000003FFFFFFFFFFC0000000000000000
000000000000003FFFFFFFFFFC0000000000000000
000000000000003FFFFFFFFFFC0000000000000000
000000000000003FFFFFFFFFFC0000000000000000
000000000000003FFFFFFFFFFC0000000000000000
000000000000003FFFFFFFFFFC0000000000000000
000000000000003FFFFFFFFFFC0000000000000000
000000000000003FFFFFFFFFFC0000000000000000
000000000000003FFFFFFFFFFC0000000000000000
000000000000003FFFFFFFFFFC0000000000000000
000000000000003FFFFFFFFFFC0000000000000000
000000000000003FFFFFFFFFFC0000000000000000
000000000000003FFFFFFFFFFC0000000000000000
000000000000003FFFFFFFFFFC0000000000000000
000000000000003FFFFFFFFFFC0000000000000000
000000000000003FFFFFFFFFFC0000000000000000
000000000000003FFFFFFFFFFC0000000000000000
000000000000003FFFFFFFFFFC0000000000000000
000000000000003FFFFFFFFFFC0000000000000000
000000000000003FFFFFFFFFFC0000000000000000
000000000000003FFFFFFFFFFC0000000000000000
000000000000003FFFFFFFFFFC0000000000000000
000000000000003FFFFFFFFFFC0000000000000000
0001FFFFFFFFFFFFFFFFFFFFFFFFFFFFFFFFF00000
003FFFFFFFFFFFFFFFFFFFFFFFFFFFFFFFFFFF8000
01FFFFFFFFFFFFFFFFFFFFFFFFFFFFFFFFFFFFF000
03FFFFFFFFFFFFFFFFFFFFFFFFFFFFFFFFFFFFF800
0FFFFFFFFFFFFFFFFFFFFFFFFFFFFFFFFFFFFFFC00
0FFFFFFFFFFFFFFFFFFFFFFFFFFFFFFFFFFFFFFE00
1FFFFFFFFFFFFFFFFFFFFFFFFFFFFFFFFFFFFFFE00
3FFFFFFFFFFFFFFFFFFFFFFFFFFFFFFFFFFFFFFF00
3FFFFFFFFFFFFFFFFFFFFFFFFFFFFFFFFFFFFFFF00
3FFFFFFFFFFFFFFFFFFFFFFFFFFFFFFFFFFFFFFF00
7FFFFFFFFFFFFFFFFFFFFFFFFFFFFFFFFFFFFFFF80
7FFFFFFFFFFFFFFFFFFFFFFFFFFFFFFFFFFFFFFF80
7FFFFFFFFFFFFFFFFFFFFFFFFFFFFFFFFFFFFFFF80
7FFFFFFFFFFFFFFFFFFFFFFFFFFFFFFFFFFFFFFF80
7FFFFFFFFFFFFFFFFFFFFFFFFFFFFFFFFFFFFFFF80
7FFFFFFFFFFFFFFFFFFFFFFFFFFFFFFFFFFFFFFF80
7FFFFFFFFFFFFFFFFFFFFFFFFFFFFFFFFFFFFFFF80
FFFFFFFFFFFFFFFFFFFFFFFFFFFFFFFFFFFFFFFF80
FFFFFFFFFFFFFFFFFFFFFFFFFFFFFFFFFFFFFFFF80
FFFFFFFFFFFFFFFFFFFFFFFFFFFFFFFFFFFFFFFF80
FFFFFFFFFFFFFFFFFFFFFFFFFFFFFFFFFFFFFFFFC0
FFFFFFFFFFFFFFFFFFFFFFFFFFFFFFFFFFFFFFFFC0
FFFFFFFFFFFFFFFFFFFFFFFFFFFFFFFFFFFFFFFFC0
FFFFFFFFFFFFFFFFFFFFFFFFFFFFFFFFFFFFFFFFC0
FFFFFFFFFFFFFFFFFFFFFFFFFFFFFFFFFFFFFFFFC0
FFFFFFFFFFFFFFFFFFFFFFFFFFFFFFFFFFFFFFFFC0
FFFFFFFFFFFFFFFFFFFFFFFFFFFFFFFFFFFFFFFF80
FFFFFFFFFFFFFFFFFFFFFFFFFFFFFFFFFFFFFFFF80
7FFFFFFFFFFFFFFFFFFFFFFFFFFFFFFFFFFFFFFF80
7FFFFFFFFFFFFFFFFFFFFFFFFFFFFFFFFFFFFFFF80
7FFFFFFFFFFFFFFFFFFFFFFFFFFFFFFFFFFFFFFF80
7FFFFFFFFFFFFFFFFFFFFFFFFFFFFFFFFFFFFFFF80
7FFFFFFFFFFFFFFFFFFFFFFFFFFFFFFFFFFFFFFF80
7FFFFFFFFFFFFFFFFFFFFFFFFFFFFFFFFFFFFFFF80
7FFFFFFFFFFFFFFFFFFFFFFFFFFFFFFFFFFFFFFF80
7FFFFFFFFFFFFFFFFFFFFFFFFFFFFFFFFFFFFFFF00
3FFFFFFFFFFFFFFFFFFFFFFFFFFFFFFFFFFFFFFF00
3FFFFFFFFFFFFFFFFFFFFFFFFFFFFFFFFFFFFFFF00
1FFFFFFFFFFFFFFFFFFFFFFFFFFFFFFFFFFFFFFE00
1FFFFFFFFFFFFFFFFFFFFFFFFFFFFFFFFFFFFFFE00
0FFFFFFFFFFFFFFFFFFFFFFFFFFFFFFFFFFFFFFC00
07FFFFFFFFFFFFFFFFFFFFFFFFFFFFFFFFFFFFF800
03FFFFFFFFFFFFFFFFFFFFFFFFFFFFFFFFFFFFE000
007FFFFFFFFFFFFFFFFFFFFFFFFFFFFFFFFFFF8000
0003FFFFFFFFFFFFFFFFFFFFFFFFFFFFFFFFE00000
000000000000003FFFFFFFFFFC0000000000000000
000000000000003FFFFFFFFFFC0000000000000000
000000000000003FFFFFFFFFFC0000000000000000
000000000000003FFFFFFFFFFC0000000000000000
000000000000003FFFFFFFFFFC0000000000000000
000000000000003FFFFFFFFFFC0000000000000000
000000000000003FFFFFFFFFFC0000000000000000
000000000000003FFFFFFFFFFC0000000000000000
000000000000003FFFFFFFFFFC0000000000000000
000000000000003FFFFFFFFFFC0000000000000000
000000000000003FFFFFFFFFFC0000000000000000
000000000000003FFFFFFFFFFC0000000000000000
000000000000003FFFFFFFFFFC0000000000000000
000000000000003FFFFFFFFFFC0000000000000000
000000000000003FFFFFFFFFFC0000000000000000
000000000000003FFFFFFFFFFC0000000000000000
000000000000003FFFFFFFFFFC0000000000000000
000000000000003FFFFFFFFFFC0000000000000000
000000000000003FFFFFFFFFFC0000000000000000
000000000000003FFFFFFFFFFC0000000000000000
000000000000003FFFFFFFFFFC0000000000000000
000000000000003FFFFFFFFFFC0000000000000000
000000000000003FFFFFFFFFFC0000000000000000
000000000000003FFFFFFFFFFC0000000000000000
000000000000003FFFFFFFFFFC0000000000000000
000000000000003FFFFFFFFFFC0000000000000000
000000000000003FFFFFFFFFFC0000000000000000
000000000000003FFFFFFFFFFC0000000000000000
000000000000003FFFFFFFFFFC0000000000000000
000000000000003FFFFFFFFFFC0000000000000000
000000000000003FFFFFFFFFFC0000000000000000
000000000000003FFFFFFFFFFC0000000000000000
000000000000003FFFFFFFFFFC0000000000000000
000000000000003FFFFFFFFFFC0000000000000000
000000000000003FFFFFFFFFFC0000000000000000
000000000000003FFFFFFFFFFC0000000000000000
000000000000003FFFFFFFFFFC0000000000000000
000000000000003FFFFFFFFFFC0000000000000000
000000000000003FFFFFFFFFFC0000000000000000
000000000000003FFFFFFFFFFC0000000000000000
000000000000003FFFFFFFFFFC0000000000000000
000000000000003FFFFFFFFFFC0000000000000000
000000000000003FFFFFFFFFFC0000000000000000
000000000000003FFFFFFFFFFC0000000000000000
000000000000003FFFFFFFFFFC0000000000000000
000000000000001FFFFFFFFFFC0000000000000000
000000000000001FFFFFFFFFF80000000000000000
000000000000001FFFFFFFFFF80000000000000000
000000000000001FFFFFFFFFF80000000000000000
000000000000001FFFFFFFFFF80000000000000000
000000000000000FFFFFFFFFF80000000000000000
000000000000000FFFFFFFFFF00000000000000000
000000000000000FFFFFFFFFF00000000000000000
0000000000000007FFFFFFFFF00000000000000000
0000000000000007FFFFFFFFE00000000000000000
0000000000000003FFFFFFFFC00000000000000000
0000000000000001FFFFFFFF800000000000000000
00000000000000007FFFFFFF000000000000000000
00000000000000001FFFFFF8000000000000000000
0000000000000000007FFE00000000000000000000
ENDCHAR
STARTCHAR 002C
ENCODING 44
SWIDTH 294 0
DWIDTH 92 0
BBX 51 71 19 -26
BITMAP
0003FFFFFC0000
007FFFFFFFE000
01FFFFFFFFF800
07FFFFFFFFFE00
0FFFFFFFFFFF00
1FFFFFFFFFFF00
1FFFFFFFFFFF80
3FFFFFFFFFFF80
3FFFFFFFFFFFC0
7FFFFFFFFFFFC0
7FFFFFFFFFFFC0
7FFFFFFFFFFFC0
7FFFFFFFFFFFE0
7FFFFFFFFFFFE0
FFFFFFFFFFFFE0
FFFFFFFFFFFFE0
FFFFFFFFFFFFE0
FFFFFFFFFFFFE0
FFFFFFFFFFFFE0
FFFFFFFFFFFFE0
FFFFFFFFFFFFE0
FFFFFFFFFFFFE0
FFFFFFFFFFFFE0
FFFFFFFFFFFFE0
FFFFFFFFFFFFE0
FFFFFFFFFFFFE0
FFFFFFFFFFFFE0
FFFFFFFFFFFFE0
FFFFFFFFFFFFE0
FFFFFFFFFFFFE0
FFFFFFFFFFFFE0
FFFFFFFFFFFFE0
7FFFFFFFFFFFC0
7FFFFFFFFFFFC0
7FFFFFFFFFFFC0
7FFFFFFFFFFFC0
7FFFFFFFFFFFC0
3FFFFFFFFFFFC0
3FFFFFFFFFFF80
1FFFFFFFFFFF80
0FFFFFFFFFFF80
07FFFFFFFFFF00
03FFFFFFFFFF00
007FFFFFFFFF00
0007FFFFFFFE00
0000007FFFFE00
000000FFFFFE00
000001FFFFFC00
000007FFFFFC00
00000FFFFFF800
00003FFFFFF800
0000FFFFFFF000
0003FFFFFFE000
001FFFFFFFE000
03FFFFFFFFC000
FFFFFFFFFF8000
FFFFFFFFFF0000
FFFFFFFFFE0000
FFFFFFFFFC0000
FFFFFFFFF80000
FFFFFFFFF00000
FFFFFFFFE00000
FFFFFFFF800000
FFFFFFFF000000
FFFFFFFC000000
FFFFFFF0000000
FFFFFFC0000000
FFFFFF00000000
FFFFF800000000
FFFF8000000000
FFE00000000000
ENDCHAR
STARTCHAR 002D
ENCODING 45
SWIDTH 368 0
DWIDTH 115 0
BBX 74 45 20 65
BITMAP
0001FFFFFFFFFFF80000
007FFFFFFFFFFFFFC000
01FFFFFFFFFFFFFFF000
07FFFFFFFFFFFFFFFC00
0FFFFFFFFFFFFFFFFE00
1FFFFFFFFFFFFFFFFE00
1FFFFFFFFFFFFFFFFF00
3FFFFFFFFFFFFFFFFF00
3FFFFFFFFFFFFFFFFF80
7FFFFFFFFFFFFFFFFF80
7FFFFFFFFFFFFFFFFF80
7FFFFFFFFFFFFFFFFF80
7FFFFFFFFFFFFFFFFFC0
FFFFFFFFFFFFFFFFFFC0
FFFFFFFFFFFFFFFFFFC0
FFFFFFFFFFFFFFFFFFC0
FFFFFFFFFFFFFFFFFFC0
FFFFFFFFFFFFFFFFFFC0
FFFFFFFFFFFFFFFFFFC0
FFFFFFFFFFFFFFFFFFC0
FFFFFFFFFFFFFFFFFFC0
FFFFFFFFFFFFFFFFFFC0
FFFFFFFFFFFFFFFFFFC0
FFFFFFFFFFFFFFFFFFC0
FFFFFFFFFFFFFFFFFFC0
FFFFFFFFFFFFFFFFFFC0
FFFFFFFFFFFFFFFFFFC0
FFFFFFFFFFFFFFFFFFC0
FFFFFFFFFFFFFFFFFFC0
FFFFFFFFFFFFFFFFFFC0
FFFFFFFFFFFFFFFFFFC0
FFFFFFFFFFFFFFFFFFC0
7FFFFFFFFFFFFFFFFFC0
7FFFFFFFFFFFFFFFFF80
7FFFFFFFFFFFFFFFFF80
7FFFFFFFFFFFFFFFFF80
7FFFFFFFFFFFFFFFFF80
3FFFFFFFFFFFFFFFFF00
3FFFFFFFFFFFFFFFFF00
1FFFFFFFFFFFFFFFFE00
0FFFFFFFFFFFFFFFFC00
07FFFFFFFFFFFFFFF800
03FFFFFFFFFFFFFFF000
00FFFFFFFFFFFFFF8000
0007FFFFFFFFFFF00000
ENDCHAR
STARTCHAR 002E
ENCODING 46
SWIDTH 294 0
DWIDTH 92 0
BBX 51 45 20 1
BITMAP
0003FFFFFC0000
007FFFFFFFE000
01FFFFFFFFF800
07FFFFFFFFFE00
0FFFFFFFFFFF00
1FFFFFFFFFFF00
1FFFFFFFFFFF80
3FFFFFFFFFFF80
3FFFFFFFFFFFC0
7FFFFFFFFFFFC0
7FFFFFFFFFFFC0
7FFFFFFFFFFFC0
7FFFFFFFFFFFE0
7FFFFFFFFFFFE0
FFFFFFFFFFFFE0
FFFFFFFFFFFFE0
FFFFFFFFFFFFE0
FFFFFFFFFFFFE0
FFFFFFFFFFFFE0
FFFFFFFFFFFFE0
FFFFFFFFFFFFE0
FFFFFFFFFFFFE0
FFFFFFFFFFFFE0
FFFFFFFFFFFFE0
FFFFFFFFFFFFE0
FFFFFFFFFFFFE0
FFFFFFFFFFFFE0
FFFFFFFFFFFFE0
FFFFFFFFFFFFE0
FFFFFFFFFFFFE0
FFFFFFFFFFFFE0
FFFFFFFFFFFFE0
7FFFFFFFFFFFE0
7FFFFFFFFFFFC0
7FFFFFFFFFFFC0
7FFFFFFFFFFFC0
7FFFFFFFFFFFC0
3FFFFFFFFFFF80
3FFFFFFFFFFF80
1FFFFFFFFFFF00
0FFFFFFFFFFE00
07FFFFFFFFFC00
03FFFFFFFFF800
007FFFFFFFC000
0007FFFFF80000
ENDCHAR
STARTCHAR 002F
ENCODING 47
SWIDTH 294 0
DWIDTH 92 0
BBX 85 242 2 0
BITMAP
0000000000000001FFFFF8
0000000000000003FFFFF8
0000000000000003FFFFF8
0000000000000003FFFFF8
0000000000000003FFFFF0
0000000000000007FFFFF0
0000000000000007FFFFF0
0000000000000007FFFFE0
0000000000000007FFFFE0
000000000000000FFFFFE0
000000000000000FFFFFE0
000000000000000FFFFFC0
000000000000001FFFFFC0
000000000000001FFFFFC0
000000000000001FFFFFC0
000000000000001FFFFF80
000000000000003FFFFF80
000000000000003FFFFF80
000000000000003FFFFF80
000000000000003FFFFF00
000000000000007FFFFF00
000000000000007FFFFF00
000000000000007FFFFF00
000000000000007FFFFE00
00000000000000FFFFFE00
00000000000000FFFFFE00
00000000000000FFFFFC00
00000000000000FFFFFC00
00000000000001FFFFFC00
00000000000001FFFFFC00
00000000000001FFFFF800
00000000000001FFFFF800
00000000000003FFFFF800
00000000000003FFFFF800
00000000000003FFFFF000
00000000000003FFFFF000
00000000000007FFFFF000
00000000000007FFFFF000
00000000000007FFFFE000
0000000000000FFFFFE000
0000000000000FFFFFE000
0000000000000FFFFFE000
0000000000000FFFFFC000
0000000000001FFFFFC000
0000000000001FFFFFC000
0000000000001FFFFFC000
0000000000001FFFFF8000
0000000000003FFFFF8000
0000000000003FFFFF8000
0000000000003FFFFF0000
0000000000003FFFFF0000
0000000000007FFFFF0000
0000000000007FFFFF0000
0000000000007FFFFE0000
0000000000007FFFFE0000
000000000000FFFFFE0000
000000000000FFFFFE0000
000000000000FFFFFC0000
000000000000FFFFFC0000
000000000001FFFFFC0000
000000000001FFFFFC0000
000000000001FFFFF80000
000000000003FFFFF80000
000000000003FFFFF80000
000000000003FFFFF80000
000000000003FFFFF00000
000000000007FFFFF00000
000000000007FFFFF00000
000000000007FFFFF00000
000000000007FFFFE00000
00000000000FFFFFE00000
00000000000FFFFFE00000
00000000000FFFFFC00000
00000000000FFFFFC00000
00000000001FFFFFC00000
00000000001FFFFFC00000
00000000001FFFFF800000
00000000001FFFFF800000
00000000003FFFFF800000
00000000003FFFFF800000
00000000003FFFFF000000
00000000003FFFFF000000
00000000007FFFFF000000
00000000007FFFFF000000
00000000007FFFFE000000
00000000007FFFFE000000
0000000000FFFFFE000000
0000000000FFFFFE000000
0000000000FFFFFC000000
0000000001FFFFFC000000
0000000001FFFFFC000000
0000000001FFFFFC000000
0000000001FFFFF8000000
0000000003FFFFF8000000
0000000003FFFFF8000000
0000000003FFFFF0000000
0000000003FFFFF0000000
0000000007FFFFF0000000
0000000007FFFFF0000000
0000000007FFFFE0000000
0000000007FFFFE0000000
000000000FFFFFE0000000
000000000FFFFFE0000000
000000000FFFFFC0000000
000000000FFFFFC0000000
000000001FFFFFC0000000
000000001FFFFFC0000000
000000001FFFFF80000000
000000001FFFFF80000000
000000003FFFFF80000000
000000003FFFFF80000000
000000003FFFFF00000000
000000007FFFFF00000000
000000007FFFFF00000000
000000007FFFFF00000000
000000007FFFFE00000000
00000000FFFFFE00000000
00000000FFFFFE00000000
00000000FFFFFC00000000
00000000FFFFFC00000000
00000001FFFFFC00000000
00000001FFFFFC00000000
00000001FFFFF800000000
00000001FFFFF800000000
00000003FFFFF800000000
00000003FFFFF800000000
00000003FFFFF000000000
00000003FFFFF000000000
00000007FFFFF000000000
00000007FFFFF000000000
00000007FFFFE000000000
00000007FFFFE000000000
0000000FFFFFE000000000
0000000FFFFFE000000000
0000000FFFFFC000000000
0000000FFFFFC000000000
0000001FFFFFC000000000
0000001FFFFFC000000000
0000001FFFFF8000000000
0000003FFFFF8000000000
0000003FFFFF8000000000
0000003FFFFF0000000000
0000003FFFFF0000000000
0000007FFFFF0000000000
0000007FFFFF0000000000
0000007FFFFE0000000000
0000007FFFFE0000000000
000000FFFFFE0000000000
000000FFFFFE0000000000
000000FFFFFC0000000000
000000FFFFFC0000000000
000001FFFFFC0000000000
000001FFFFFC0000000000
000001FFFFF80000000000
000001FFFFF80000000000
000003FFFFF80000000000
000003FFFFF80000000000
000003FFFFF00000000000
000003FFFFF00000000000
000007FFFFF00000000000
000007FFFFF00000000000
000007FFFFE00000000000
000007FFFFE00000000000
00000FFFFFE00000000000
00000FFFFFC00000000000
00000FFFFFC00000000000
00001FFFFFC00000000000
00001FFFFFC00000000000
00001FFFFF800000000000
00001FFFFF800000000000
00003FFFFF800000000000
00003FFFFF800000000000
00003FFFFF000000000000
00003FFFFF000000000000
00007FFFFF000000000000
00007FFFFF000000000000
00007FFFFE000000000000
00007FFFFE000000000000
0000FFFFFE000000000000
0000FFFFFE000000000000
0000FFFFFC000000000000
0000FFFFFC000000000000
0001FFFFFC000000000000
0001FFFFFC000000000000
0001FFFFF8000000000000
0001FFFFF8000000000000
0003FFFFF8000000000000
0003FFFFF0000000000000
0003FFFFF0000000000000
0007FFFFF0000000000000
0007FFFFF0000000000000
0007FFFFE0000000000000
0007FFFFE0000000000000
000FFFFFE0000000000000
000FFFFFE0000000000000
000FFFFFC0000000000000
000FFFFFC0000000000000
001FFFFFC0000000000000
001FFFFFC0000000000000
001FFFFF80000000000000
001FFFFF80000000000000
003FFFFF80000000000000
003FFFFF80000000000000
003FFFFF00000000000000
003FFFFF00000000000000
007FFFFF00000000000000
007FFFFE00000000000000
007FFFFE00000000000000
007FFFFE00000000000000
00FFFFFE00000000000000
00FFFFFC00000000000000
00FFFFFC00000000000000
00FFFFFC00000000000000
01FFFFFC00000000000000
01FFFFF800000000000000
01FFFFF800000000000000
03FFFFF800000000000000
03FFFFF800000000000000
03FFFFF000000000000000
03FFFFF000000000000000
07FFFFF000000000000000
07FFFFF000000000000000
07FFFFE000000000000000
07FFFFE000000000000000
0FFFFFE000000000000000
0FFFFFE000000000000000
0FFFFFC000000000000000
0FFFFFC000000000000000
1FFFFFC000000000000000
1FFFFF8000000000000000
1FFFFF8000000000000000
1FFFFF8000000000000000
3FFFFF8000000000000000
3FFFFF0000000000000000
3FFFFF0000000000000000
3FFFFF0000000000000000
7FFFFF0000000000000000
7FFFFE0000000000000000
7FFFFE0000000000000000
FFFFFE0000000000000000
FFFFFE0000000000000000
FFFFFC0000000000000000
ENDCHAR
STARTCHAR 0030
ENCODING 48
SWIDTH 604 0
DWIDTH 189 0
BBX 152 242 8 0
BITMAP
000000000000003FFFFFFFF800000000000000
000000000000FFFFFFFFFFFFFF000000000000
00000000007FFFFFFFFFFFFFFFFC0000000000
000000000FFFFFFFFFFFFFFFFFFFC000000000
000000007FFFFFFFFFFFFFFFFFFFFC00000000
00000003FFFFFFFFFFFFFFFFFFFFFF80000000
0000001FFFFFFFFFFFFFFFFFFFFFFFE0000000
0000007FFFFFFFFFFFFFFFFFFFFFFFFC000000
000001FFFFFFFFFFFFFFFFFFFFFFFFFF000000
000007FFFFFFFFFFFFFFFFFFFFFFFFFF800000
00000FFFFFFFFFFFFFFFFFFFFFFFFFFFE00000
00001FFFFFFFFFFFFFFFFFFFFFFFFFFFF00000
00007FFFFFFFFFFFFFFFFFFFFFFFFFFFFC0000
0000FFFFFFFFFFFFFFFFFFFFFFFFFFFFFE0000
0001FFFFFFFFFFFFFFFFFFFFFFFFFFFFFF0000
0003FFFFFFFFFFFFFFFFFFFFFFFFFFFFFF8000
0007FFFFFFFFFFFFFFFFFFFFFFFFFFFFFFC000
000FFFFFFFFFFFFFFFFFFFFFFFFFFFFFFFE000
000FFFFFFFFFFFFFFFFFFFFFFFFFFFFFFFE000
001FFFFFFFFFFFFFFFFFFFFFFFFFFFFFFFF000
003FFFFFFFFFFFFFFFFFFFFFFFFFFFFFFFF800
003FFFFFFFFFFFFFFFFFFFFFFFFFFFFFFFFC00
007FFFFFFFFFFFFFFFFFFFFFFFFFFFFFFFFC00
00FFFFFFFFFFFFFFFFFFFFFFFFFFFFFFFFFE00
00FFFFFFFFFFFFFFFFFFFFFFFFFFFFFFFFFE00
01FFFFFFFFFFFFFFFFFFFFFFFFFFFFFFFFFF00
01FFFFFFFFFFFFFFFFFFFFFFFFFFFFFFFFFF00
01FFFFFFFFFFFFFFFFFFFFFFFFFFFFFFFFFF80
03FFFFFFFFFFFFFFFFFFFFFFFFFFFFFFFFFF80
03FFFFFFFFFFFFFFFFFFFFFFFFFFFFFFFFFFC0
07FFFFFFFFFFFFFFFFFFFFFFFFFFFFFFFFFFC0
07FFFFFFFFFFFFFFFFFFFFFFFFFFFFFFFFFFC0
07FFFFFFFFFFFFFFFFFFFFFFFFFFFFFFFFFFE0
0FFFFFFFFFFFFFFFFFEFFFFFFFFFFFFFFFFFE0
0FFFFFFFFFFFFFFF000001FFFFFFFFFFFFFFE0
0FFFFFFFFFFFFFF80000001FFFFFFFFFFFFFF0
0FFFFFFFFFFFFFC000000007FFFFFFFFFFFFF0
1FFFFFFFFFFFFF0000000001FFFFFFFFFFFFF0
1FFFFFFFFFFFFE00000000007FFFFFFFFFFFF0
1FFFFFFFFFFFFC00000000003FFFFFFFFFFFF8
1FFFFFFFFFFFF800000000001FFFFFFFFFFFF8
1FFFFFFFFFFFF000000000000FFFFFFFFFFFF8
3FFFFFFFFFFFE0000000000007FFFFFFFFFFF8
3FFFFFFFFFFFC0000000000003FFFFFFFFFFF8
3FFFFFFFFFFFC0000000000003FFFFFFFFFFFC
3FFFFFFFFFFF80000000000001FFFFFFFFFFFC
3FFFFFFFFFFF80000000000001FFFFFFFFFFFC
3FFFFFFFFFFF00000000000000FFFFFFFFFFFC
3FFFFFFFFFFF00000000000000FFFFFFFFFFFC
7FFFFFFFFFFE00000000000000FFFFFFFFFFFC
7FFFFFFFFFFE000000000000007FFFFFFFFFFE
7FFFFFFFFFFE000000000000007FFFFFFFFFFE
7FFFFFFFFFFE000000000000007FFFFFFFFFFE
7FFFFFFFFFFC000000000000003FFFFFFFFFFE
7FFFFFFFFFFC000000000000003FFFFFFFFFFE
7FFFFFFFFFFC000000000000003FFFFFFFFFFE
7FFFFFFFFFFC000000000000003FFFFFFFFFFE
7FFFFFFFFFF8000000000000003FFFFFFFFFFE
7FFFFFFFFFF8000000000000001FFFFFFFFFFE
7FFFFFFFFFF8000000000000001FFFFFFFFFFE
7FFFFFFFFFF8000000000000001FFFFFFFFFFE
FFFFFFFFFFF8000000000000001FFFFFFFFFFF
FFFFFFFFFFF8000000000000001FFFFFFFFFFF
FFFFFFFFFFF8000000000000001FFFFFFFFFFF
FFFFFFFFFFF8000000000000001FFFFFFFFFFF
FFFFFFFFFFF8000000000000001FFFFFFFFFFF
FFFFFFFFFFF0000000000000000FFFFFFFFFFF
FFFFFFFFFFF0000000000000000FFFFFFFFFFF
FFFFFFFFFFF0000000000000000FFFFFFFFFFF
FFFFFFFFFFF0000000000000000FFFFFFFFFFF
FFFFFFFFFFF0000000000000000FFFFFFFFFFF
FFFFFFFFFFF0000000000000000FFFFFFFFFFF
FFFFFFFFFFF0000000000000000FFFFFFFFFFF
FFFFFFFFFFF0000000000000000FFFFFFFFFFF
FFFFFFFFFFF0000000000000000FFFFFFFFFFF
FFFFFFFFFFF0000000000000000FFFFFFFFFFF
FFFFFFFFFFF0000000000000000FFFFFFFFFFF
FFFFFFFFFFF0000000000000000FFFFFFFFFFF
FFFFFFFFFFF0000000000000000FFFFFFFFFFF
FFFFFFFFFFF0000000000000000FFFFFFFFFFF
FFFFFFFFFFF0000000000000000FFFFFFFFFFF
FFFFFFFFFFF0000000000000000FFFFFFFFFFF
FFFFFFFFFFF0000000000000000FFFFFFFFFFF
FFFFFFFFFFF0000000000000000FFFFFFFFFFF
FFFFFFFFFFF0000000000000000FFFFFFFFFFF
FFFFFFFFFFF0000000000000000FFFFFFFFFFF
FFFFFFFFFFF0000000000000000FFFFFFFFFFF
FFFFFFFFFFF0000000000000000FFFFFFFFFFF
FFFFFFFFFFF0000000000000000FFFFFFFFFFF
FFFFFFFFFFF0000000000000000FFFFFFFFFFF
FFFFFFFFFFF0000000000000000FFFFFFFFFFF
FFFFFFFFFFF0000000000000000FFFFFFFFFFF
FFFFFFFFFFF0000000000000000FFFFFFFFFFF
FFFFFFFFFFF0000000000000000FFFFFFFFFFF
FFFFFFFFFFF0000000000000000FFFFFFFFFFF
FFFFFFFFFFF0000000000000000FFFFFFFFFFF
FFFFFFFFFFF0000000000000000FFFFFFFFFFF
FFFFFFFFFFF0000000000000000FFFFFFFFFFF
FFFFFFFFFFF0000000000000000FFFFFFFFFFF
FFFFFFFFFFF0000000000000000FFFFFFFFFFF
FFFFFFFFFFF0000000000000000FFFFFFFFFFF
FFFFFFFFFFF0000000000000000FFFFFFFFFFF
FFFFFFFFFFF0000000000000000FFFFFFFFFFF
FFFFFFFFFFF0000000000000000FFFFFFFFFFF
FFFFFFFFFFF0000000000000000FFFFFFFFFFF
FFFFFFFFFFF0000000000000000FFFFFFFFFFF
FFFFFFFFFFF0000000000000000FFFFFFFFFFF
FFFFFFFFFFF0000000000000000FFFFFFFFFFF
FFFFFFFFFFF0000000000000000FFFFFFFFFFF
FFFFFFFFFFF0000000000000000FFFFFFFFFFF
FFFFFFFFFFF0000000000000000FFFFFFFFFFF
FFFFFFFFFFF0000000000000000FFFFFFFFFFF
FFFFFFFFFFF0000000000000000FFFFFFFFFFF
FFFFFFFFFFF0000000000000000FFFFFFFFFFF
FFFFFFFFFFF0000000000000000FFFFFFFFFFF
FFFFFFFFFFF0000000000000000FFFFFFFFFFF
FFFFFFFFFFF0000000000000000FFFFFFFFFFF
FFFFFFFFFFF0000000000000000FFFFFFFFFFF
FFFFFFFFFFF0000000000000000FFFFFFFFFFF
FFFFFFFFFFF0000000000000000FFFFFFFFFFF
FFFFFFFFFFF0000000000000000FFFFFFFFFFF
FFFFFFFFFFF0000000000000000FFFFFFFFFFF
FFFFFFFFFFF0000000000000000FFFFFFFFFFF
FFFFFFFFFFF0000000000000000FFFFFFFFFFF
FFFFFFFFFFF0000000000000000FFFFFFFFFFF
FFFFFFFFFFF0000000000000000FFFFFFFFFFF
FFFFFFFFFFF0000000000000000FFFFFFFFFFF
FFFFFFFFFFF0000000000000000FFFFFFFFFFF
FFFFFFFFFFF0000000000000000FFFFFFFFFFF
FFFFFFFFFFF0000000000000000FFFFFFFFFFF
FFFFFFFFFFF0000000000000000FFFFFFFFFFF
FFFFFFFFFFF0000000000000000FFFFFFFFFFF
FFFFFFFFFFF0000000000000000FFFFFFFFFFF
FFFFFFFFFFF0000000000000000FFFFFFFFFFF
FFFFFFFFFFF0000000000000000FFFFFFFFFFF
FFFFFFFFFFF0000000000000000FFFFFFFFFFF
FFFFFFFFFFF0000000000000000FFFFFFFFFFF
FFFFFFFFFFF0000000000000000FFFFFFFFFFF
FFFFFFFFFFF0000000000000000FFFFFFFFFFF
FFFFFFFFFFF0000000000000000FFFFFFFFFFF
FFFFFFFFFFF0000000000000000FFFFFFFFFFF
FFFFFFFFFFF0000000000000000FFFFFFFFFFF
FFFFFFFFFFF0000000000000000FFFFFFFFFFF
FFFFFFFFFFF0000000000000000FFFFFFFFFFF
FFFFFFFFFFF0000000000000000FFFFFFFFFFF
FFFFFFFFFFF0000000000000000FFFFFFFFFFF
FFFFFFFFFFF0000000000000000FFFFFFFFFFF
FFFFFFFFFFF0000000000000000FFFFFFFFFFF
FFFFFFFFFFF0000000000000000FFFFFFFFFFF
FFFFFFFFFFF0000000000000000FFFFFFFFFFF
FFFFFFFFFFF0000000000000000FFFFFFFFFFF
FFFFFFFFFFF0000000000000000FFFFFFFFFFF
FFFFFFFFFFF0000000000000000FFFFFFFFFFF
FFFFFFFFFFF0000000000000000FFFFFFFFFFF
FFFFFFFFFFF0000000000000000FFFFFFFFFFF
FFFFFFFFFFF0000000000000000FFFFFFFFFFF
FFFFFFFFFFF0000000000000000FFFFFFFFFFF
FFFFFFFFFFF0000000000000000FFFFFFFFFFF
FFFFFFFFFFF0000000000000000FFFFFFFFFFF
FFFFFFFFFFF0000000000000000FFFFFFFFFFF
FFFFFFFFFFF0000000000000000FFFFFFFFFFF
FFFFFFFFFFF0000000000000000FFFFFFFFFFF
FFFFFFFFFFF0000000000000000FFFFFFFFFFF
FFFFFFFFFFF0000000000000000FFFFFFFFFFF
FFFFFFFFFFF0000000000000000FFFFFFFFFFF
FFFFFFFFFFF0000000000000000FFFFFFFFFFF
FFFFFFFFFFF0000000000000000FFFFFFFFFFF
FFFFFFFFFFF0000000000000000FFFFFFFFFFF
FFFFFFFFFFF0000000000000000FFFFFFFFFFF
FFFFFFFFFFF8000000000000000FFFFFFFFFFF
FFFFFFFFFFF8000000000000000FFFFFFFFFFF
FFFFFFFFFFF8000000000000000FFFFFFFFFFF
FFFFFFFFFFF8000000000000001FFFFFFFFFFF
FFFFFFFFFFF8000000000000001FFFFFFFFFFF
FFFFFFFFFFF8000000000000001FFFFFFFFFFF
7FFFFFFFFFF8000000000000001FFFFFFFFFFE
7FFFFFFFFFF8000000000000001FFFFFFFFFFE
7FFFFFFFFFF8000000000000001FFFFFFFFFFE
7FFFFFFFFFF8000000000000001FFFFFFFFFFE
7FFFFFFFFFF8000000000000001FFFFFFFFFFE
7FFFFFFFFFFC000000000000001FFFFFFFFFFE
7FFFFFFFFFFC000000000000001FFFFFFFFFFE
7FFFFFFFFFFC000000000000003FFFFFFFFFFE
7FFFFFFFFFFC000000000000003FFFFFFFFFFE
7FFFFFFFFFFC000000000000003FFFFFFFFFFE
7FFFFFFFFFFC000000000000003FFFFFFFFFFE
7FFFFFFFFFFE000000000000003FFFFFFFFFFE
7FFFFFFFFFFE000000000000003FFFFFFFFFFE
7FFFFFFFFFFE000000000000007FFFFFFFFFFE
7FFFFFFFFFFE000000000000007FFFFFFFFFFC
3FFFFFFFFFFF000000000000007FFFFFFFFFFC
3FFFFFFFFFFF000000000000007FFFFFFFFFFC
3FFFFFFFFFFF00000000000000FFFFFFFFFFFC
3FFFFFFFFFFF00000000000000FFFFFFFFFFFC
3FFFFFFFFFFF80000000000000FFFFFFFFFFFC
3FFFFFFFFFFF80000000000001FFFFFFFFFFFC
3FFFFFFFFFFFC0000000000001FFFFFFFFFFF8
3FFFFFFFFFFFC0000000000003FFFFFFFFFFF8
1FFFFFFFFFFFE0000000000003FFFFFFFFFFF8
1FFFFFFFFFFFE0000000000007FFFFFFFFFFF8
1FFFFFFFFFFFF0000000000007FFFFFFFFFFF8
1FFFFFFFFFFFF800000000000FFFFFFFFFFFF8
1FFFFFFFFFFFFC00000000001FFFFFFFFFFFF0
0FFFFFFFFFFFFE00000000003FFFFFFFFFFFF0
0FFFFFFFFFFFFF00000000007FFFFFFFFFFFF0
0FFFFFFFFFFFFFC000000001FFFFFFFFFFFFF0
0FFFFFFFFFFFFFF000000007FFFFFFFFFFFFF0
0FFFFFFFFFFFFFFE0000003FFFFFFFFFFFFFE0
07FFFFFFFFFFFFFFF8003FFFFFFFFFFFFFFFE0
07FFFFFFFFFFFFFFFFFFFFFFFFFFFFFFFFFFE0
07FFFFFFFFFFFFFFFFFFFFFFFFFFFFFFFFFFC0
03FFFFFFFFFFFFFFFFFFFFFFFFFFFFFFFFFFC0
03FFFFFFFFFFFFFFFFFFFFFFFFFFFFFFFFFFC0
03FFFFFFFFFFFFFFFFFFFFFFFFFFFFFFFFFF80
01FFFFFFFFFFFFFFFFFFFFFFFFFFFFFFFFFF80
01FFFFFFFFFFFFFFFFFFFFFFFFFFFFFFFFFF80
01FFFFFFFFFFFFFFFFFFFFFFFFFFFFFFFFFF00
00FFFFFFFFFFFFFFFFFFFFFFFFFFFFFFFFFF00
00FFFFFFFFFFFFFFFFFFFFFFFFFFFFFFFFFE00
007FFFFFFFFFFFFFFFFFFFFFFFFFFFFFFFFE00
007FFFFFFFFFFFFFFFFFFFFFFFFFFFFFFFFC00
003FFFFFFFFFFFFFFFFFFFFFFFFFFFFFFFFC00
001FFFFFFFFFFFFFFFFFFFFFFFFFFFFFFFF800
001FFFFFFFFFFFFFFFFFFFFFFFFFFFFFFFF000
000FFFFFFFFFFFFFFFFFFFFFFFFFFFFFFFF000
0007FFFFFFFFFFFFFFFFFFFFFFFFFFFFFFE000
0003FFFFFFFFFFFFFFFFFFFFFFFFFFFFFFC000
0001FFFFFFFFFFFFFFFFFFFFFFFFFFFFFF8000
0001FFFFFFFFFFFFFFFFFFFFFFFFFFFFFF0000
00007FFFFFFFFFFFFFFFFFFFFFFFFFFFFE0000
00003FFFFFFFFFFFFFFFFFFFFFFFFFFFFC0000
00001FFFFFFFFFFFFFFFFFFFFFFFFFFFF00000
000007FFFFFFFFFFFFFFFFFFFFFFFFFFE00000
000003FFFFFFFFFFFFFFFFFFFFFFFFFF800000
000000FFFFFFFFFFFFFFFFFFFFFFFFFF000000
0000003FFFFFFFFFFFFFFFFFFFFFFFFC000000
0000000FFFFFFFFFFFFFFFFFFFFFFFE0000000
00000001FFFFFFFFFFFFFFFFFFFFFF00000000
000000001FFFFFFFFFFFFFFFFFFFF800000000
0000000001FFFFFFFFFFFFFFFFFF0000000000
000000000007FFFFFFFFFFFFFFC00000000000
00000000000000FFFFFFFFFC00000000000000
ENDCHAR
STARTCHAR 0031
ENCODING 49
SWIDTH 342 0
DWIDTH 107 0
BBX 66 242 11 0
BITMAP
FFFFFFFF8000000000
FFFFFFFFFE00000000
FFFFFFFFFFC0000000
FFFFFFFFFFF0000000
FFFFFFFFFFFC000000
FFFFFFFFFFFF000000
FFFFFFFFFFFF800000
FFFFFFFFFFFFC00000
FFFFFFFFFFFFE00000
FFFFFFFFFFFFF00000
FFFFFFFFFFFFF80000
FFFFFFFFFFFFFC0000
FFFFFFFFFFFFFE0000
FFFFFFFFFFFFFE0000
FFFFFFFFFFFFFF0000
FFFFFFFFFFFFFF0000
FFFFFFFFFFFFFF8000
FFFFFFFFFFFFFF8000
FFFFFFFFFFFFFFC000
FFFFFFFFFFFFFFC000
FFFFFFFFFFFFFFE000
FFFFFFFFFFFFFFE000
FFFFFFFFFFFFFFE000
FFFFFFFFFFFFFFF000
FFFFFFFFFFFFFFF000
FFFFFFFFFFFFFFF000
FFFFFFFFFFFFFFF800
FFFFFFFFFFFFFFF800
FFFFFFFFFFFFFFF800
FFFFFFFFFFFFFFF800
FFFFFFFFFFFFFFFC00
FFFFFFFFFFFFFFFC00
FFFFFFFFFFFFFFFC00
FFFFFFFFFFFFFFFC00
FFFFFFFFFFFFFFFC00
FFFFFFFFFFFFFFFE00
007FFFFFFFFFFFFE00
000FFFFFFFFFFFFE00
0003FFFFFFFFFFFE00
0000FFFFFFFFFFFE00
0000FFFFFFFFFFFE00
00007FFFFFFFFFFF00
00003FFFFFFFFFFF00
00003FFFFFFFFFFF00
00001FFFFFFFFFFF00
00001FFFFFFFFFFF00
00000FFFFFFFFFFF00
00000FFFFFFFFFFF00
00000FFFFFFFFFFF00
00000FFFFFFFFFFF00
00000FFFFFFFFFFF80
000007FFFFFFFFFF80
000007FFFFFFFFFF80
000007FFFFFFFFFF80
000007FFFFFFFFFF80
000007FFFFFFFFFF80
000007FFFFFFFFFF80
000007FFFFFFFFFF80
000007FFFFFFFFFF80
000007FFFFFFFFFF80
000003FFFFFFFFFF80
000003FFFFFFFFFF80
000003FFFFFFFFFF80
000003FFFFFFFFFF80
000003FFFFFFFFFF80
000003FFFFFFFFFF80
000003FFFFFFFFFFC0
000003FFFFFFFFFFC0
000003FFFFFFFFFFC0
000003FFFFFFFFFFC0
000003FFFFFFFFFFC0
000003FFFFFFFFFFC0
000003FFFFFFFFFFC0
000003FFFFFFFFFFC0
000003FFFFFFFFFFC0
000003FFFFFFFFFFC0
000003FFFFFFFFFFC0
000003FFFFFFFFFFC0
000003FFFFFFFFFFC0
000003FFFFFFFFFFC0
000003FFFFFFFFFFC0
000003FFFFFFFFFFC0
000003FFFFFFFFFFC0
000003FFFFFFFFFFC0
000003FFFFFFFFFFC0
000003FFFFFFFFFFC0
000003FFFFFFFFFFC0
000003FFFFFFFFFFC0
000003FFFFFFFFFFC0
000003FFFFFFFFFFC0
000003FFFFFFFFFFC0
000003FFFFFFFFFFC0
000003FFFFFFFFFFC0
000003FFFFFFFFFFC0
000003FFFFFFFFFFC0
000003FFFFFFFFFFC0
000003FFFFFFFFFFC0
000003FFFFFFFFFFC0
000003FFFFFFFFFFC0
000003FFFFFFFFFFC0
000003FFFFFFFFFFC0
000003FFFFFFFFFFC0
000003FFFFFFFFFFC0
000003FFFFFFFFFFC0
000003FFFFFFFFFFC0
000003FFFFFFFFFFC0
000003FFFFFFFFFFC0
000003FFFFFFFFFFC0
000003FFFFFFFFFFC0
000003FFFFFFFFFFC0
000003FFFFFFFFFFC0
000003FFFFFFFFFFC0
000003FFFFFFFFFFC0
000003FFFFFFFFFFC0
000003FFFFFFFFFFC0
000003FFFFFFFFFFC0
000003FFFFFFFFFFC0
000003FFFFFFFFFFC0
000003FFFFFFFFFFC0
000003FFFFFFFFFFC0
000003FFFFFFFFFFC0
000003FFFFFFFFFFC0
000003FFFFFFFFFFC0
000003FFFFFFFFFFC0
000003FFFFFFFFFFC0
000003FFFFFFFFFFC0
000003FFFFFFFFFFC0
000003FFFFFFFFFFC0
000003FFFFFFFFFFC0
000003FFFFFFFFFFC0
000003FFFFFFFFFFC0
000003FFFFFFFFFFC0
000003FFFFFFFFFFC0
000003FFFFFFFFFFC0
000003FFFFFFFFFFC0
000003FFFFFFFFFFC0
000003FFFFFFFFFFC0
000003FFFFFFFFFFC0
000003FFFFFFFFFFC0
000003FFFFFFFFFFC0
000003FFFFFFFFFFC0
000003FFFFFFFFFFC0
000003FFFFFFFFFFC0
000003FFFFFFFFFFC0
000003FFFFFFFFFFC0
000003FFFFFFFFFFC0
000003FFFFFFFFFFC0
000003FFFFFFFFFFC0
000003FFFFFFFFFFC0
000003FFFFFFFFFFC0
000003FFFFFFFFFFC0
000003FFFFFFFFFFC0
000003FFFFFFFFFFC0
000003FFFFFFFFFFC0
000003FFFFFFFFFFC0
000003FFFFFFFFFFC0
000003FFFFFFFFFFC0
000003FFFFFFFFFFC0
000003FFFFFFFFFFC0
000003FFFFFFFFFFC0
000003FFFFFFFFFFC0
000003FFFFFFFFFFC0
000003FFFFFFFFFFC0
000003FFFFFFFFFFC0
000003FFFFFFFFFFC0
000003FFFFFFFFFFC0
000003FFFFFFFFFFC0
000003FFFFFFFFFFC0
000003FFFFFFFFFFC0
000003FFFFFFFFFFC0
000003FFFFFFFFFFC0
000003FFFFFFFFFFC0
000003FFFFFFFFFFC0
000003FFFFFFFFFFC0
000003FFFFFFFFFFC0
000003FFFFFFFFFFC0
000003FFFFFFFFFFC0
000003FFFFFFFFFFC0
000003FFFFFFFFFFC0
000003FFFFFFFFFFC0
000003FFFFFFFFFFC0
000003FFFFFFFFFFC0
000003FFFFFFFFFFC0
000003FFFFFFFFFFC0
000003FFFFFFFFFFC0
000003FFFFFFFFFFC0
000003FFFFFFFFFFC0
000003FFFFFFFFFFC0
000003FFFFFFFFFFC0
000003FFFFFFFFFFC0
000003FFFFFFFFFFC0
000003FFFFFFFFFFC0
000003FFFFFFFFFFC0
000003FFFFFFFFFFC0
000003FFFFFFFFFFC0
000003FFFFFFFFFFC0
000003FFFFFFFFFFC0
000003FFFFFFFFFFC0
000003FFFFFFFFFFC0
000003FFFFFFFFFFC0
000003FFFFFFFFFFC0
000003FFFFFFFFFFC0
000003FFFFFFFFFFC0
000003FFFFFFFFFFC0
000003FFFFFFFFFFC0
000003FFFFFFFFFFC0
000003FFFFFFFFFFC0
000003FFFFFFFFFFC0
000003FFFFFFFFFFC0
000003FFFFFFFFFFC0
000003FFFFFFFFFFC0
000003FFFFFFFFFFC0
000003FFFFFFFFFFC0
000003FFFFFFFFFFC0
000003FFFFFFFFFFC0
000003FFFFFFFFFFC0
000003FFFFFFFFFFC0
000003FFFFFFFFFFC0
000003FFFFFFFFFFC0
000003FFFFFFFFFFC0
000003FFFFFFFFFFC0
000003FFFFFFFFFFC0
000003FFFFFFFFFFC0
000003FFFFFFFFFFC0
000003FFFFFFFFFFC0
000003FFFFFFFFFFC0
000003FFFFFFFFFFC0
000003FFFFFFFFFFC0
000003FFFFFFFFFFC0
000003FFFFFFFFFFC0
000003FFFFFFFFFFC0
000003FFFFFFFFFFC0
000003FFFFFFFFFFC0
000003FFFFFFFFFFC0
000003FFFFFFFFFFC0
000003FFFFFFFFFFC0
000003FFFFFFFFFFC0
000003FFFFFFFFFFC0
000003FFFFFFFFFFC0
000003FFFFFFFFFFC0
000003FFFFFFFFFFC0
000003FFFFFFFFFFC0
ENDCHAR
STARTCHAR 0032
ENCODING 50
SWIDTH 604 0
DWIDTH 189 0
BBX 142 242 14 0
BITMAP
0003FFFFFFFFFFFFFFFFFF00000000000000
0003FFFFFFFFFFFFFFFFFFFFE00000000000
0003FFFFFFFFFFFFFFFFFFFFFF8000000000
0003FFFFFFFFFFFFFFFFFFFFFFFC00000000
0003FFFFFFFFFFFFFFFFFFFFFFFF80000000
0003FFFFFFFFFFFFFFFFFFFFFFFFF0000000
0003FFFFFFFFFFFFFFFFFFFFFFFFFE000000
0003FFFFFFFFFFFFFFFFFFFFFFFFFF800000
0003FFFFFFFFFFFFFFFFFFFFFFFFFFC00000
0003FFFFFFFFFFFFFFFFFFFFFFFFFFF00000
0003FFFFFFFFFFFFFFFFFFFFFFFFFFF80000
0003FFFFFFFFFFFFFFFFFFFFFFFFFFFE0000
0003FFFFFFFFFFFFFFFFFFFFFFFFFFFF0000
0003FFFFFFFFFFFFFFFFFFFFFFFFFFFF8000
0003FFFFFFFFFFFFFFFFFFFFFFFFFFFFC000
0003FFFFFFFFFFFFFFFFFFFFFFFFFFFFE000
0003FFFFFFFFFFFFFFFFFFFFFFFFFFFFF000
0003FFFFFFFFFFFFFFFFFFFFFFFFFFFFF000
0003FFFFFFFFFFFFFFFFFFFFFFFFFFFFF800
0003FFFFFFFFFFFFFFFFFFFFFFFFFFFFFC00
0003FFFFFFFFFFFFFFFFFFFFFFFFFFFFFC00
0003FFFFFFFFFFFFFFFFFFFFFFFFFFFFFE00
0003FFFFFFFFFFFFFFFFFFFFFFFFFFFFFE00
0003FFFFFFFFFFFFFFFFFFFFFFFFFFFFFF00
0003FFFFFFFFFFFFFFFFFFFFFFFFFFFFFF00
0003FFFFFFFFFFFFFFFFFFFFFFFFFFFFFF80
0003FFFFFFFFFFFFFFFFFFFFFFFFFFFFFF80
0003FFFFFFFFFFFFFFFFFFFFFFFFFFFFFF80
0003FFFFFFFFFFFFFFFFFFFFFFFFFFFFFFC0
0003FFFFFFFFFFFFFFFFFFFFFFFFFFFFFFC0
0003FFFFFFFFFFFFFFFFFFFFFFFFFFFFFFC0
0003FFFFFFFFFFFFFFFFFFFFFFFFFFFFFFE0
0003FFFFFFFFFFFFFFFFFFFFFFFFFFFFFFE0
0003FFFFFFFFFFFFFFFFFFFFFFFFFFFFFFE0
0003FFFFFFFFFFFFFFFFFFFFFFFFFFFFFFE0
0003FFFFFFFFFFFFFFFFFFFFFFFFFFFFFFF0
0000000000000000000001FFFFFFFFFFFFF0
00000000000000000000003FFFFFFFFFFFF0
00000000000000000000000FFFFFFFFFFFF0
000000000000000000000007FFFFFFFFFFF0
000000000000000000000003FFFFFFFFFFF0
000000000000000000000001FFFFFFFFFFF8
000000000000000000000000FFFFFFFFFFF8
000000000000000000000000FFFFFFFFFFF8
0000000000000000000000007FFFFFFFFFF8
0000000000000000000000007FFFFFFFFFF8
0000000000000000000000007FFFFFFFFFF8
0000000000000000000000007FFFFFFFFFF8
0000000000000000000000003FFFFFFFFFF8
0000000000000000000000003FFFFFFFFFF8
0000000000000000000000003FFFFFFFFFF8
0000000000000000000000003FFFFFFFFFFC
0000000000000000000000003FFFFFFFFFFC
0000000000000000000000001FFFFFFFFFFC
0000000000000000000000001FFFFFFFFFFC
0000000000000000000000001FFFFFFFFFFC
0000000000000000000000001FFFFFFFFFFC
0000000000000000000000001FFFFFFFFFFC
0000000000000000000000001FFFFFFFFFFC
0000000000000000000000001FFFFFFFFFFC
0000000000000000000000001FFFFFFFFFFC
0000000000000000000000001FFFFFFFFFFC
0000000000000000000000001FFFFFFFFFFC
0000000000000000000000001FFFFFFFFFFC
0000000000000000000000001FFFFFFFFFFC
0000000000000000000000001FFFFFFFFFFC
0000000000000000000000001FFFFFFFFFFC
0000000000000000000000001FFFFFFFFFFC
0000000000000000000000001FFFFFFFFFFC
0000000000000000000000001FFFFFFFFFFC
0000000000000000000000001FFFFFFFFFFC
0000000000000000000000001FFFFFFFFFFC
0000000000000000000000001FFFFFFFFFFC
0000000000000000000000001FFFFFFFFFFC
0000000000000000000000003FFFFFFFFFFC
0000000000000000000000003FFFFFFFFFFC
0000000000000000000000003FFFFFFFFFFC
0000000000000000000000003FFFFFFFFFFC
0000000000000000000000003FFFFFFFFFFC
0000000000000000000000007FFFFFFFFFFC
0000000000000000000000007FFFFFFFFFFC
0000000000000000000000007FFFFFFFFFFC
0000000000000000000000007FFFFFFFFFFC
000000000000000000000000FFFFFFFFFFFC
000000000000000000000000FFFFFFFFFFFC
000000000000000000000001FFFFFFFFFFFC
000000000000000000000001FFFFFFFFFFFC
000000000000000000000003FFFFFFFFFFFC
000000000000000000000003FFFFFFFFFFF8
000000000000000000000007FFFFFFFFFFF8
00000000000000000000000FFFFFFFFFFFF8
00000000000000000000001FFFFFFFFFFFF8
00000000000000000000003FFFFFFFFFFFF8
00000000000000000000007FFFFFFFFFFFF8
0000000000000000000000FFFFFFFFFFFFF8
0000000000000000000003FFFFFFFFFFFFF8
000000000000000000000FFFFFFFFFFFFFF0
000000000000000000007FFFFFFFFFFFFFF0
00000000000000000007FFFFFFFFFFFFFFF0
00000000007FFFFFFFFFFFFFFFFFFFFFFFF0
000000003FFFFFFFFFFFFFFFFFFFFFFFFFE0
00000003FFFFFFFFFFFFFFFFFFFFFFFFFFE0
0000001FFFFFFFFFFFFFFFFFFFFFFFFFFFE0
000000FFFFFFFFFFFFFFFFFFFFFFFFFFFFE0
000003FFFFFFFFFFFFFFFFFFFFFFFFFFFFC0
00000FFFFFFFFFFFFFFFFFFFFFFFFFFFFFC0
00001FFFFFFFFFFFFFFFFFFFFFFFFFFFFFC0
00007FFFFFFFFFFFFFFFFFFFFFFFFFFFFF80
0000FFFFFFFFFFFFFFFFFFFFFFFFFFFFFF80
0001FFFFFFFFFFFFFFFFFFFFFFFFFFFFFF00
0003FFFFFFFFFFFFFFFFFFFFFFFFFFFFFF00
0007FFFFFFFFFFFFFFFFFFFFFFFFFFFFFF00
000FFFFFFFFFFFFFFFFFFFFFFFFFFFFFFE00
001FFFFFFFFFFFFFFFFFFFFFFFFFFFFFFC00
003FFFFFFFFFFFFFFFFFFFFFFFFFFFFFFC00
003FFFFFFFFFFFFFFFFFFFFFFFFFFFFFF800
007FFFFFFFFFFFFFFFFFFFFFFFFFFFFFF800
00FFFFFFFFFFFFFFFFFFFFFFFFFFFFFFF000
00FFFFFFFFFFFFFFFFFFFFFFFFFFFFFFE000
01FFFFFFFFFFFFFFFFFFFFFFFFFFFFFFC000
01FFFFFFFFFFFFFFFFFFFFFFFFFFFFFF8000
03FFFFFFFFFFFFFFFFFFFFFFFFFFFFFF0000
03FFFFFFFFFFFFFFFFFFFFFFFFFFFFFE0000
07FFFFFFFFFFFFFFFFFFFFFFFFFFFFFC0000
07FFFFFFFFFFFFFFFFFFFFFFFFFFFFF80000
0FFFFFFFFFFFFFFFFFFFFFFFFFFFFFE00000
0FFFFFFFFFFFFFFFFFFFFFFFFFFFFFC00000
0FFFFFFFFFFFFFFFFFFFFFFFFFFFFF000000
1FFFFFFFFFFFFFFFFFFFFFFFFFFFFC000000
1FFFFFFFFFFFFFFFFFFFFFFFFFFFE0000000
1FFFFFFFFFFFFFFFFFFFFFFFFFFF00000000
1FFFFFFFFFFFFFFFFFFFFFFFFFF000000000
3FFFFFFFFFFFFFFFFFFFFFFFF80000000000
3FFFFFFFFFFFFFFF80000000000000000000
3FFFFFFFFFFFFFF800000000000000000000
3FFFFFFFFFFFFFC000000000000000000000
3FFFFFFFFFFFFF0000000000000000000000
7FFFFFFFFFFFFC0000000000000000000000
7FFFFFFFFFFFF80000000000000000000000
7FFFFFFFFFFFF00000000000000000000000
7FFFFFFFFFFFE00000000000000000000000
7FFFFFFFFFFFC00000000000000000000000
7FFFFFFFFFFF800000000000000000000000
7FFFFFFFFFFF800000000000000000000000
7FFFFFFFFFFF000000000000000000000000
FFFFFFFFFFFE000000000000000000000000
FFFFFFFFFFFE000000000000000000000000
FFFFFFFFFFFC000000000000000000000000
FFFFFFFFFFFC000000000000000000000000
FFFFFFFFFFFC000000000000000000000000
FFFFFFFFFFF8000000000000000000000000
FFFFFFFFFFF8000000000000000000000000
FFFFFFFFFFF8000000000000000000000000
FFFFFFFFFFF0000000000000000000000000
FFFFFFFFFFF0000000000000000000000000
FFFFFFFFFFF0000000000000000000000000
FFFFFFFFFFF0000000000000000000000000
FFFFFFFFFFF0000000000000000000000000
FFFFFFFFFFF0000000000000000000000000
FFFFFFFFFFE0000000000000000000000000
FFFFFFFFFFE0000000000000000000000000
FFFFFFFFFFE0000000000000000000000000
FFFFFFFFFFE0000000000000000000000000
FFFFFFFFFFE0000000000000000000000000
FFFFFFFFFFE0000000000000000000000000
FFFFFFFFFFE0000000000000000000000000
FFFFFFFFFFE0000000000000000000000000
FFFFFFFFFFE0000000000000000000000000
FFFFFFFFFFE0000000000000000000000000
FFFFFFFFFFE0000000000000000000000000
FFFFFFFFFFE0000000000000000000000000
FFFFFFFFFFE0000000000000000000000000
FFFFFFFFFFE0000000000000000000000000
FFFFFFFFFFE0000000000000000000000000
FFFFFFFFFFE0000000000000000000000000
FFFFFFFFFFE0000000000000000000000000
FFFFFFFFFFE0000000000000000000000000
FFFFFFFFFFE0000000000000000000000000
FFFFFFFFFFE0000000000000000000000000
FFFFFFFFFFE0000000000000000000000000
FFFFFFFFFFE0000000000000000000000000
FFFFFFFFFFE0000000000000000000000000
FFFFFFFFFFE0000000000000000000000000
FFFFFFFFFFE0000000000000000000000000
FFFFFFFFFFE0000000000000000000000000
FFFFFFFFFFE0000000000000000000000000
FFFFFFFFFFE0000000000000000000000000
FFFFFFFFFFE0000000000000000000000000
FFFFFFFFFFE0000000000000000000000000
FFFFFFFFFFE0000000000000000000000000
FFFFFFFFFFE0000000000000000000000000
FFFFFFFFFFE0000000000000000000000000
FFFFFFFFFFE0000000000000000000000000
FFFFFFFFFFE0000000000000000000000000
FFFFFFFFFFE0000000000000000000000000
FFFFFFFFFFE0000000000000000000000000
FFFFFFFFFFE0000000000000000000000000
FFFFFFFFFFE0000000000000000000000000
FFFFFFFFFFE0000000000000000000000000
FFFFFFFFFFE0000000000000000000000000
FFFFFFFFFFE0000000000000000000000000
FFFFFFFFFFE0000000000000000000000000
FFFFFFFFFFE0000000000000000000000000
FFFFFFFFFFE0000000000000000000000000
FFFFFFFFFFE0000000000000000000000000
FFFFFFFFFFE0000000000000000000000000
FFFFFFFFFFFFFFFFFFFFFFFFFFFFFFFFFFFC
FFFFFFFFFFFFFFFFFFFFFFFFFFFFFFFFFFFC
FFFFFFFFFFFFFFFFFFFFFFFFFFFFFFFFFFFC
FFFFFFFFFFFFFFFFFFFFFFFFFFFFFFFFFFFC
FFFFFFFFFFFFFFFFFFFFFFFFFFFFFFFFFFFC
FFFFFFFFFFFFFFFFFFFFFFFFFFFFFFFFFFFC
FFFFFFFFFFFFFFFFFFFFFFFFFFFFFFFFFFFC
FFFFFFFFFFFFFFFFFFFFFFFFFFFFFFFFFFFC
FFFFFFFFFFFFFFFFFFFFFFFFFFFFFFFFFFFC
FFFFFFFFFFFFFFFFFFFFFFFFFFFFFFFFFFFC
FFFFFFFFFFFFFFFFFFFFFFFFFFFFFFFFFFFC
FFFFFFFFFFFFFFFFFFFFFFFFFFFFFFFFFFFC
FFFFFFFFFFFFFFFFFFFFFFFFFFFFFFFFFFFC
FFFFFFFFFFFFFFFFFFFFFFFFFFFFFFFFFFFC
FFFFFFFFFFFFFFFFFFFFFFFFFFFFFFFFFFFC
FFFFFFFFFFFFFFFFFFFFFFFFFFFFFFFFFFFC
FFFFFFFFFFFFFFFFFFFFFFFFFFFFFFFFFFFC
FFFFFFFFFFFFFFFFFFFFFFFFFFFFFFFFFFFC
FFFFFFFFFFFFFFFFFFFFFFFFFFFFFFFFFFFC
FFFFFFFFFFFFFFFFFFFFFFFFFFFFFFFFFFFC
FFFFFFFFFFFFFFFFFFFFFFFFFFFFFFFFFFFC
FFFFFFFFFFFFFFFFFFFFFFFFFFFFFFFFFFFC
FFFFFFFFFFFFFFFFFFFFFFFFFFFFFFFFFFFC
FFFFFFFFFFFFFFFFFFFFFFFFFFFFFFFFFFFC
FFFFFFFFFFFFFFFFFFFFFFFFFFFFFFFFFFFC
FFFFFFFFFFFFFFFFFFFFFFFFFFFFFFFFFFFC
FFFFFFFFFFFFFFFFFFFFFFFFFFFFFFFFFFFC
FFFFFFFFFFFFFFFFFFFFFFFFFFFFFFFFFFFC
FFFFFFFFFFFFFFFFFFFFFFFFFFFFFFFFFFFC
FFFFFFFFFFFFFFFFFFFFFFFFFFFFFFFFFFFC
FFFFFFFFFFFFFFFFFFFFFFFFFFFFFFFFFFFC
FFFFFFFFFFFFFFFFFFFFFFFFFFFFFFFFFFFC
FFFFFFFFFFFFFFFFFFFFFFFFFFFFFFFFFFFC
FFFFFFFFFFFFFFFFFFFFFFFFFFFFFFFFFFFC
FFFFFFFFFFFFFFFFFFFFFFFFFFFFFFFFFFFC
FFFFFFFFFFFFFFFFFFFFFFFFFFFFFFFFFFFC
ENDCHAR
STARTCHAR 0033
ENCODING 51
SWIDTH 515 0
DWIDTH 161 0
BBX 128 242 8 0
BITMAP
FFFFFFFFFFFFFFFFFFFFFFE000000000
FFFFFFFFFFFFFFFFFFFFFFFF80000000
FFFFFFFFFFFFFFFFFFFFFFFFF8000000
FFFFFFFFFFFFFFFFFFFFFFFFFF000000
FFFFFFFFFFFFFFFFFFFFFFFFFFC00000
FFFFFFFFFFFFFFFFFFFFFFFFFFF00000
FFFFFFFFFFFFFFFFFFFFFFFFFFF80000
FFFFFFFFFFFFFFFFFFFFFFFFFFFC0000
FFFFFFFFFFFFFFFFFFFFFFFFFFFE0000
FFFFFFFFFFFFFFFFFFFFFFFFFFFF0000
FFFFFFFFFFFFFFFFFFFFFFFFFFFF8000
FFFFFFFFFFFFFFFFFFFFFFFFFFFFC000
FFFFFFFFFFFFFFFFFFFFFFFFFFFFE000
FFFFFFFFFFFFFFFFFFFFFFFFFFFFF000
FFFFFFFFFFFFFFFFFFFFFFFFFFFFF000
FFFFFFFFFFFFFFFFFFFFFFFFFFFFF800
FFFFFFFFFFFFFFFFFFFFFFFFFFFFF800
FFFFFFFFFFFFFFFFFFFFFFFFFFFFFC00
FFFFFFFFFFFFFFFFFFFFFFFFFFFFFE00
FFFFFFFFFFFFFFFFFFFFFFFFFFFFFE00
FFFFFFFFFFFFFFFFFFFFFFFFFFFFFE00
FFFFFFFFFFFFFFFFFFFFFFFFFFFFFF00
FFFFFFFFFFFFFFFFFFFFFFFFFFFFFF00
FFFFFFFFFFFFFFFFFFFFFFFFFFFFFF80
FFFFFFFFFFFFFFFFFFFFFFFFFFFFFF80
FFFFFFFFFFFFFFFFFFFFFFFFFFFFFF80
FFFFFFFFFFFFFFFFFFFFFFFFFFFFFFC0
FFFFFFFFFFFFFFFFFFFFFFFFFFFFFFC0
FFFFFFFFFFFFFFFFFFFFFFFFFFFFFFC0
FFFFFFFFFFFFFFFFFFFFFFFFFFFFFFC0
FFFFFFFFFFFFFFFFFFFFFFFFFFFFFFE0
FFFFFFFFFFFFFFFFFFFFFFFFFFFFFFE0
FFFFFFFFFFFFFFFFFFFFFFFFFFFFFFE0
FFFFFFFFFFFFFFFFFFFFFFFFFFFFFFE0
FFFFFFFFFFFFFFFFFFFFFFFFFFFFFFF0
0000000000000000FFFFFFFFFFFFFFF0
000000000000000007FFFFFFFFFFFFF0
000000000000000001FFFFFFFFFFFFF0
0000000000000000007FFFFFFFFFFFF0
0000000000000000001FFFFFFFFFFFF8
0000000000000000000FFFFFFFFFFFF8
00000000000000000007FFFFFFFFFFF8
00000000000000000007FFFFFFFFFFF8
00000000000000000003FFFFFFFFFFF8
00000000000000000001FFFFFFFFFFF8
00000000000000000001FFFFFFFFFFFC
00000000000000000000FFFFFFFFFFFC
00000000000000000000FFFFFFFFFFFC
000000000000000000007FFFFFFFFFFC
000000000000000000007FFFFFFFFFFC
000000000000000000007FFFFFFFFFFC
000000000000000000007FFFFFFFFFFC
000000000000000000003FFFFFFFFFFC
000000000000000000003FFFFFFFFFFC
000000000000000000003FFFFFFFFFFC
000000000000000000003FFFFFFFFFFE
000000000000000000001FFFFFFFFFFE
000000000000000000001FFFFFFFFFFE
000000000000000000001FFFFFFFFFFE
000000000000000000001FFFFFFFFFFE
000000000000000000001FFFFFFFFFFE
000000000000000000001FFFFFFFFFFE
000000000000000000001FFFFFFFFFFE
000000000000000000001FFFFFFFFFFE
000000000000000000000FFFFFFFFFFE
000000000000000000000FFFFFFFFFFE
000000000000000000000FFFFFFFFFFE
000000000000000000000FFFFFFFFFFE
000000000000000000000FFFFFFFFFFE
000000000000000000000FFFFFFFFFFF
000000000000000000000FFFFFFFFFFF
000000000000000000000FFFFFFFFFFF
000000000000000000000FFFFFFFFFFF
000000000000000000000FFFFFFFFFFF
000000000000000000000FFFFFFFFFFF
000000000000000000000FFFFFFFFFFF
000000000000000000000FFFFFFFFFFF
000000000000000000000FFFFFFFFFFF
000000000000000000000FFFFFFFFFFF
000000000000000000000FFFFFFFFFFF
000000000000000000000FFFFFFFFFFF
000000000000000000000FFFFFFFFFFF
000000000000000000000FFFFFFFFFFF
000000000000000000000FFFFFFFFFFF
000000000000000000000FFFFFFFFFFF
000000000000000000000FFFFFFFFFFF
000000000000000000000FFFFFFFFFFF
000000000000000000000FFFFFFFFFFF
000000000000000000000FFFFFFFFFFF
000000000000000000000FFFFFFFFFFF
000000000000000000000FFFFFFFFFFF
000000000000000000000FFFFFFFFFFF
000000000000000000000FFFFFFFFFFF
000000000000000000000FFFFFFFFFFF
000000000000000000000FFFFFFFFFFF
000000000000000000000FFFFFFFFFFF
000000000000000000000FFFFFFFFFFF
000000000000000000000FFFFFFFFFFF
000000000000000000000FFFFFFFFFFF
000001FFFFFFFFFFFFFFFFFFFFFFFFFF
000001FFFFFFFFFFFFFFFFFFFFFFFFFF
000001FFFFFFFFFFFFFFFFFFFFFFFFFF
000001FFFFFFFFFFFFFFFFFFFFFFFFFF
000001FFFFFFFFFFFFFFFFFFFFFFFFFF
000001FFFFFFFFFFFFFFFFFFFFFFFFFF
000001FFFFFFFFFFFFFFFFFFFFFFFFFF
000001FFFFFFFFFFFFFFFFFFFFFFFFFF
000001FFFFFFFFFFFFFFFFFFFFFFFFFF
000001FFFFFFFFFFFFFFFFFFFFFFFFFF
000001FFFFFFFFFFFFFFFFFFFFFFFFFF
000001FFFFFFFFFFFFFFFFFFFFFFFFFF
000001FFFFFFFFFFFFFFFFFFFFFFFFFF
000001FFFFFFFFFFFFFFFFFFFFFFFFFF
000001FFFFFFFFFFFFFFFFFFFFFFFFFF
000001FFFFFFFFFFFFFFFFFFFFFFFFFF
000001FFFFFFFFFFFFFFFFFFFFFFFFFF
000001FFFFFFFFFFFFFFFFFFFFFFFFFF
000001FFFFFFFFFFFFFFFFFFFFFFFFFF
000001FFFFFFFFFFFFFFFFFFFFFFFFFF
000001FFFFFFFFFFFFFFFFFFFFFFFFFF
000001FFFFFFFFFFFFFFFFFFFFFFFFFF
000001FFFFFFFFFFFFFFFFFFFFFFFFFF
000001FFFFFFFFFFFFFFFFFFFFFFFFFF
000001FFFFFFFFFFFFFFFFFFFFFFFFFF
000001FFFFFFFFFFFFFFFFFFFFFFFFFF
000001FFFFFFFFFFFFFFFFFFFFFFFFFF
000001FFFFFFFFFFFFFFFFFFFFFFFFFF
000001FFFFFFFFFFFFFFFFFFFFFFFFFF
000001FFFFFFFFFFFFFFFFFFFFFFFFFF
000001FFFFFFFFFFFFFFFFFFFFFFFFFF
000001FFFFFFFFFFFFFFFFFFFFFFFFFF
000001FFFFFFFFFFFFFFFFFFFFFFFFFF
000000000000000000000FFFFFFFFFFF
000000000000000000000FFFFFFFFFFF
000000000000000000000FFFFFFFFFFF
000000000000000000000FFFFFFFFFFF
000000000000000000000FFFFFFFFFFF
000000000000000000000FFFFFFFFFFF
000000000000000000000FFFFFFFFFFF
000000000000000000000FFFFFFFFFFF
000000000000000000000FFFFFFFFFFF
000000000000000000000FFFFFFFFFFF
000000000000000000000FFFFFFFFFFF
000000000000000000000FFFFFFFFFFF
000000000000000000000FFFFFFFFFFF
000000000000000000000FFFFFFFFFFF
000000000000000000000FFFFFFFFFFF
000000000000000000000FFFFFFFFFFF
000000000000000000000FFFFFFFFFFF
000000000000000000000FFFFFFFFFFF
000000000000000000000FFFFFFFFFFF
000000000000000000000FFFFFFFFFFF
000000000000000000000FFFFFFFFFFF
000000000000000000000FFFFFFFFFFF
000000000000000000000FFFFFFFFFFF
000000000000000000000FFFFFFFFFFF
000000000000000000000FFFFFFFFFFF
000000000000000000000FFFFFFFFFFF
000000000000000000000FFFFFFFFFFF
000000000000000000000FFFFFFFFFFF
000000000000000000000FFFFFFFFFFF
000000000000000000000FFFFFFFFFFF
000000000000000000000FFFFFFFFFFF
000000000000000000000FFFFFFFFFFF
000000000000000000000FFFFFFFFFFF
000000000000000000000FFFFFFFFFFF
000000000000000000000FFFFFFFFFFF
000000000000000000000FFFFFFFFFFF
000000000000000000000FFFFFFFFFFF
000000000000000000000FFFFFFFFFFF
000000000000000000000FFFFFFFFFFF
000000000000000000000FFFFFFFFFFF
000000000000000000000FFFFFFFFFFF
000000000000000000001FFFFFFFFFFF
000000000000000000001FFFFFFFFFFF
000000000000000000001FFFFFFFFFFE
000000000000000000001FFFFFFFFFFE
000000000000000000001FFFFFFFFFFE
000000000000000000001FFFFFFFFFFE
000000000000000000001FFFFFFFFFFE
000000000000000000001FFFFFFFFFFE
000000000000000000001FFFFFFFFFFE
000000000000000000001FFFFFFFFFFE
000000000000000000001FFFFFFFFFFE
000000000000000000003FFFFFFFFFFE
000000000000000000003FFFFFFFFFFE
000000000000000000003FFFFFFFFFFE
000000000000000000003FFFFFFFFFFE
000000000000000000003FFFFFFFFFFE
000000000000000000003FFFFFFFFFFE
000000000000000000007FFFFFFFFFFE
000000000000000000007FFFFFFFFFFC
000000000000000000007FFFFFFFFFFC
00000000000000000000FFFFFFFFFFFC
00000000000000000000FFFFFFFFFFFC
00000000000000000000FFFFFFFFFFFC
00000000000000000001FFFFFFFFFFFC
00000000000000000001FFFFFFFFFFFC
00000000000000000003FFFFFFFFFFFC
00000000000000000003FFFFFFFFFFFC
00000000000000000007FFFFFFFFFFFC
0000000000000000000FFFFFFFFFFFF8
0000000000000000001FFFFFFFFFFFF8
0000000000000000007FFFFFFFFFFFF8
000000000000000001FFFFFFFFFFFFF8
00000000000000000FFFFFFFFFFFFFF8
FFFFFFFFFFFFFFFFFFFFFFFFFFFFFFF8
FFFFFFFFFFFFFFFFFFFFFFFFFFFFFFF0
FFFFFFFFFFFFFFFFFFFFFFFFFFFFFFF0
FFFFFFFFFFFFFFFFFFFFFFFFFFFFFFF0
FFFFFFFFFFFFFFFFFFFFFFFFFFFFFFF0
FFFFFFFFFFFFFFFFFFFFFFFFFFFFFFF0
FFFFFFFFFFFFFFFFFFFFFFFFFFFFFFE0
FFFFFFFFFFFFFFFFFFFFFFFFFFFFFFE0
FFFFFFFFFFFFFFFFFFFFFFFFFFFFFFE0
FFFFFFFFFFFFFFFFFFFFFFFFFFFFFFE0
FFFFFFFFFFFFFFFFFFFFFFFFFFFFFFC0
FFFFFFFFFFFFFFFFFFFFFFFFFFFFFFC0
FFFFFFFFFFFFFFFFFFFFFFFFFFFFFFC0
FFFFFFFFFFFFFFFFFFFFFFFFFFFFFF80
FFFFFFFFFFFFFFFFFFFFFFFFFFFFFF80
FFFFFFFFFFFFFFFFFFFFFFFFFFFFFF80
FFFFFFFFFFFFFFFFFFFFFFFFFFFFFF00
FFFFFFFFFFFFFFFFFFFFFFFFFFFFFF00
FFFFFFFFFFFFFFFFFFFFFFFFFFFFFE00
FFFFFFFFFFFFFFFFFFFFFFFFFFFFFE00
FFFFFFFFFFFFFFFFFFFFFFFFFFFFFC00
FFFFFFFFFFFFFFFFFFFFFFFFFFFFFC00
FFFFFFFFFFFFFFFFFFFFFFFFFFFFF800
FFFFFFFFFFFFFFFFFFFFFFFFFFFFF800
FFFFFFFFFFFFFFFFFFFFFFFFFFFFF000
FFFFFFFFFFFFFFFFFFFFFFFFFFFFE000
FFFFFFFFFFFFFFFFFFFFFFFFFFFFC000
FFFFFFFFFFFFFFFFFFFFFFFFFFFF8000
FFFFFFFFFFFFFFFFFFFFFFFFFFFF0000
FFFFFFFFFFFFFFFFFFFFFFFFFFFE0000
FFFFFFFFFFFFFFFFFFFFFFFFFFFC0000
FFFFFFFFFFFFFFFFFFFFFFFFFFF00000
FFFFFFFFFFFFFFFFFFFFFFFFFFC00000
FFFFFFFFFFFFFFFFFFFFFFFFFF000000
FFFFFFFFFFFFFFFFFFFFFFFFF0000000
FFFFFFFFFFFFFFFFFFFFFFFE00000000
ENDCHAR
STARTCHAR 0034
ENCODING 52
SWIDTH 604 0
DWIDTH 189 0
BBX 142 242 14 0
BITMAP
FFFFFFFFFFC00000000000003FFFFFFFFFFC
FFFFFFFFFFC00000000000003FFFFFFFFFFC
FFFFFFFFFFC00000000000003FFFFFFFFFFC
FFFFFFFFFFC00000000000003FFFFFFFFFFC
FFFFFFFFFFC00000000000003FFFFFFFFFFC
FFFFFFFFFFC00000000000003FFFFFFFFFFC
FFFFFFFFFFC00000000000003FFFFFFFFFFC
FFFFFFFFFFC00000000000003FFFFFFFFFFC
FFFFFFFFFFC00000000000003FFFFFFFFFFC
FFFFFFFFFFC00000000000003FFFFFFFFFFC
FFFFFFFFFFC00000000000003FFFFFFFFFFC
FFFFFFFFFFC00000000000003FFFFFFFFFFC
FFFFFFFFFFC00000000000003FFFFFFFFFFC
FFFFFFFFFFC00000000000003FFFFFFFFFFC
FFFFFFFFFFC00000000000003FFFFFFFFFFC
FFFFFFFFFFC00000000000003FFFFFFFFFFC
FFFFFFFFFFC00000000000003FFFFFFFFFFC
FFFFFFFFFFC00000000000003FFFFFFFFFFC
FFFFFFFFFFC00000000000003FFFFFFFFFFC
FFFFFFFFFFC00000000000003FFFFFFFFFFC
FFFFFFFFFFC00000000000003FFFFFFFFFFC
FFFFFFFFFFC00000000000003FFFFFFFFFFC
FFFFFFFFFFC00000000000003FFFFFFFFFFC
FFFFFFFFFFC00000000000003FFFFFFFFFFC
FFFFFFFFFFC00000000000003FFFFFFFFFFC
FFFFFFFFFFC00000000000003FFFFFFFFFFC
FFFFFFFFFFC00000000000003FFFFFFFFFFC
FFFFFFFFFFC00000000000003FFFFFFFFFFC
FFFFFFFFFFC00000000000003FFFFFFFFFFC
FFFFFFFFFFC00000000000003FFFFFFFFFFC
FFFFFFFFFFC00000000000003FFFFFFFFFFC
FFFFFFFFFFC00000000000003FFFFFFFFFFC
FFFFFFFFFFC00000000000003FFFFFFFFFFC
FFFFFFFFFFC00000000000003FFFFFFFFFFC
FFFFFFFFFFC00000000000003FFFFFFFFFFC
FFFFFFFFFFC00000000000003FFFFFFFFFFC
FFFFFFFFFFC00000000000003FFFFFFFFFFC
FFFFFFFFFFC00000000000003FFFFFFFFFFC
FFFFFFFFFFC00000000000003FFFFFFFFFFC
FFFFFFFFFFC00000000000003FFFFFFFFFFC
FFFFFFFFFFC00000000000003FFFFFFFFFFC
FFFFFFFFFFC00000000000003FFFFFFFFFFC
FFFFFFFFFFC00000000000003FFFFFFFFFFC
FFFFFFFFFFC00000000000003FFFFFFFFFFC
FFFFFFFFFFC00000000000003FFFFFFFFFFC
FFFFFFFFFFC00000000000003FFFFFFFFFFC
FFFFFFFFFFC00000000000003FFFFFFFFFFC
FFFFFFFFFFC00000000000003FFFFFFFFFFC
FFFFFFFFFFC00000000000003FFFFFFFFFFC
FFFFFFFFFFC00000000000003FFFFFFFFFFC
FFFFFFFFFFC00000000000003FFFFFFFFFFC
FFFFFFFFFFC00000000000003FFFFFFFFFFC
FFFFFFFFFFC00000000000003FFFFFFFFFFC
FFFFFFFFFFC00000000000003FFFFFFFFFFC
FFFFFFFFFFC00000000000003FFFFFFFFFFC
FFFFFFFFFFC00000000000003FFFFFFFFFFC
FFFFFFFFFFC00000000000003FFFFFFFFFFC
FFFFFFFFFFC00000000000003FFFFFFFFFFC
FFFFFFFFFFC00000000000003FFFFFFFFFFC
FFFFFFFFFFC00000000000003FFFFFFFFFFC
FFFFFFFFFFC00000000000003FFFFFFFFFFC
FFFFFFFFFFC00000000000003FFFFFFFFFFC
FFFFFFFFFFC00000000000003FFFFFFFFFFC
FFFFFFFFFFC00000000000003FFFFFFFFFFC
FFFFFFFFFFC00000000000003FFFFFFFFFFC
FFFFFFFFFFC00000000000003FFFFFFFFFFC
FFFFFFFFFFC00000000000003FFFFFFFFFFC
FFFFFFFFFFC00000000000003FFFFFFFFFFC
FFFFFFFFFFC00000000000003FFFFFFFFFFC
FFFFFFFFFFC00000000000003FFFFFFFFFFC
FFFFFFFFFFC00000000000003FFFFFFFFFFC
FFFFFFFFFFC00000000000003FFFFFFFFFFC
FFFFFFFFFFC00000000000003FFFFFFFFFFC
FFFFFFFFFFE00000000000003FFFFFFFFFFC
FFFFFFFFFFE00000000000003FFFFFFFFFFC
FFFFFFFFFFE00000000000003FFFFFFFFFFC
FFFFFFFFFFE00000000000003FFFFFFFFFFC
FFFFFFFFFFE00000000000003FFFFFFFFFFC
FFFFFFFFFFE00000000000003FFFFFFFFFFC
FFFFFFFFFFE00000000000003FFFFFFFFFFC
FFFFFFFFFFE00000000000003FFFFFFFFFFC
FFFFFFFFFFF00000000000003FFFFFFFFFFC
FFFFFFFFFFF00000000000003FFFFFFFFFFC
FFFFFFFFFFF00000000000003FFFFFFFFFFC
FFFFFFFFFFF00000000000003FFFFFFFFFFC
7FFFFFFFFFF80000000000003FFFFFFFFFFC
7FFFFFFFFFF80000000000003FFFFFFFFFFC
7FFFFFFFFFF80000000000003FFFFFFFFFFC
7FFFFFFFFFFC0000000000003FFFFFFFFFFC
7FFFFFFFFFFC0000000000003FFFFFFFFFFC
7FFFFFFFFFFE0000000000003FFFFFFFFFFC
7FFFFFFFFFFF0000000000003FFFFFFFFFFC
7FFFFFFFFFFF0000000000003FFFFFFFFFFC
7FFFFFFFFFFF8000000000003FFFFFFFFFFC
7FFFFFFFFFFFC000000000003FFFFFFFFFFC
3FFFFFFFFFFFE000000000003FFFFFFFFFFC
3FFFFFFFFFFFF800000000003FFFFFFFFFFC
3FFFFFFFFFFFFE00000000003FFFFFFFFFFC
3FFFFFFFFFFFFFE0000000003FFFFFFFFFFC
3FFFFFFFFFFFFFFFFFFFFFFFFFFFFFFFFFFC
3FFFFFFFFFFFFFFFFFFFFFFFFFFFFFFFFFFC
1FFFFFFFFFFFFFFFFFFFFFFFFFFFFFFFFFFC
1FFFFFFFFFFFFFFFFFFFFFFFFFFFFFFFFFFC
1FFFFFFFFFFFFFFFFFFFFFFFFFFFFFFFFFFC
1FFFFFFFFFFFFFFFFFFFFFFFFFFFFFFFFFFC
0FFFFFFFFFFFFFFFFFFFFFFFFFFFFFFFFFFC
0FFFFFFFFFFFFFFFFFFFFFFFFFFFFFFFFFFC
0FFFFFFFFFFFFFFFFFFFFFFFFFFFFFFFFFFC
0FFFFFFFFFFFFFFFFFFFFFFFFFFFFFFFFFFC
07FFFFFFFFFFFFFFFFFFFFFFFFFFFFFFFFFC
07FFFFFFFFFFFFFFFFFFFFFFFFFFFFFFFFFC
07FFFFFFFFFFFFFFFFFFFFFFFFFFFFFFFFFC
03FFFFFFFFFFFFFFFFFFFFFFFFFFFFFFFFFC
03FFFFFFFFFFFFFFFFFFFFFFFFFFFFFFFFFC
01FFFFFFFFFFFFFFFFFFFFFFFFFFFFFFFFFC
01FFFFFFFFFFFFFFFFFFFFFFFFFFFFFFFFFC
00FFFFFFFFFFFFFFFFFFFFFFFFFFFFFFFFFC
00FFFFFFFFFFFFFFFFFFFFFFFFFFFFFFFFFC
007FFFFFFFFFFFFFFFFFFFFFFFFFFFFFFFFC
007FFFFFFFFFFFFFFFFFFFFFFFFFFFFFFFFC
003FFFFFFFFFFFFFFFFFFFFFFFFFFFFFFFFC
001FFFFFFFFFFFFFFFFFFFFFFFFFFFFFFFFC
000FFFFFFFFFFFFFFFFFFFFFFFFFFFFFFFFC
000FFFFFFFFFFFFFFFFFFFFFFFFFFFFFFFFC
0007FFFFFFFFFFFFFFFFFFFFFFFFFFFFFFFC
0003FFFFFFFFFFFFFFFFFFFFFFFFFFFFFFFC
0000FFFFFFFFFFFFFFFFFFFFFFFFFFFFFFFC
00007FFFFFFFFFFFFFFFFFFFFFFFFFFFFFFC
00003FFFFFFFFFFFFFFFFFFFFFFFFFFFFFFC
00000FFFFFFFFFFFFFFFFFFFFFFFFFFFFFFC
000003FFFFFFFFFFFFFFFFFFFFFFFFFFFFFC
000000FFFFFFFFFFFFFFFFFFFFFFFFFFFFFC
0000001FFFFFFFFFFFFFFFFFFFFFFFFFFFFC
000000007FFFFFFFFFFFFFFFFFFFFFFFFFFC
0000000000000000000000003FFFFFFFFFFC
0000000000000000000000003FFFFFFFFFFC
0000000000000000000000003FFFFFFFFFFC
0000000000000000000000003FFFFFFFFFFC
0000000000000000000000003FFFFFFFFFFC
0000000000000000000000003FFFFFFFFFFC
0000000000000000000000003FFFFFFFFFFC
0000000000000000000000003FFFFFFFFFFC
0000000000000000000000003FFFFFFFFFFC
0000000000000000000000003FFFFFFFFFFC
0000000000000000000000003FFFFFFFFFFC
0000000000000000000000003FFFFFFFFFFC
0000000000000000000000003FFFFFFFFFFC
0000000000000000000000003FFFFFFFFFFC
0000000000000000000000003FFFFFFFFFFC
0000000000000000000000003FFFFFFFFFFC
0000000000000000000000003FFFFFFFFFFC
0000000000000000000000003FFFFFFFFFFC
0000000000000000000000003FFFFFFFFFFC
0000000000000000000000003FFFFFFFFFFC
0000000000000000000000003FFFFFFFFFFC
0000000000000000000000003FFFFFFFFFFC
0000000000000000000000003FFFFFFFFFFC
0000000000000000000000003FFFFFFFFFFC
0000000000000000000000003FFFFFFFFFFC
0000000000000000000000003FFFFFFFFFFC
0000000000000000000000003FFFFFFFFFFC
0000000000000000000000003FFFFFFFFFFC
0000000000000000000000003FFFFFFFFFFC
0000000000000000000000003FFFFFFFFFFC
0000000000000000000000003FFFFFFFFFFC
0000000000000000000000003FFFFFFFFFFC
0000000000000000000000003FFFFFFFFFFC
0000000000000000000000003FFFFFFFFFFC
0000000000000000000000003FFFFFFFFFFC
0000000000000000000000003FFFFFFFFFFC
0000000000000000000000003FFFFFFFFFFC
0000000000000000000000003FFFFFFFFFFC
0000000000000000000000003FFFFFFFFFFC
0000000000000000000000003FFFFFFFFFFC
0000000000000000000000003FFFFFFFFFFC
0000000000000000000000003FFFFFFFFFFC
0000000000000000000000003FFFFFFFFFFC
0000000000000000000000003FFFFFFFFFFC
0000000000000000000000003FFFFFFFFFFC
0000000000000000000000003FFFFFFFFFFC
0000000000000000000000003FFFFFFFFFFC
0000000000000000000000003FFFFFFFFFFC
0000000000000000000000003FFFFFFFFFFC
0000000000000000000000003FFFFFFFFFFC
0000000000000000000000003FFFFFFFFFFC
0000000000000000000000003FFFFFFFFFFC
0000000000000000000000003FFFFFFFFFFC
0000000000000000000000003FFFFFFFFFFC
0000000000000000000000003FFFFFFFFFFC
0000000000000000000000003FFFFFFFFFFC
0000000000000000000000003FFFFFFFFFFC
0000000000000000000000003FFFFFFFFFFC
0000000000000000000000003FFFFFFFFFFC
0000000000000000000000003FFFFFFFFFFC
0000000000000000000000003FFFFFFFFFFC
0000000000000000000000003FFFFFFFFFFC
0000000000000000000000003FFFFFFFFFFC
0000000000000000000000003FFFFFFFFFFC
0000000000000000000000003FFFFFFFFFFC
0000000000000000000000003FFFFFFFFFFC
0000000000000000000000003FFFFFFFFFFC
0000000000000000000000003FFFFFFFFFFC
0000000000000000000000003FFFFFFFFFFC
0000000000000000000000003FFFFFFFFFFC
0000000000000000000000003FFFFFFFFFFC
0000000000000000000000003FFFFFFFFFFC
0000000000000000000000003FFFFFFFFFFC
0000000000000000000000003FFFFFFFFFFC
0000000000000000000000003FFFFFFFFFFC
0000000000000000000000003FFFFFFFFFFC
0000000000000000000000003FFFFFFFFFFC
0000000000000000000000003FFFFFFFFFFC
0000000000000000000000003FFFFFFFFFFC
0000000000000000000000003FFFFFFFFFFC
0000000000000000000000003FFFFFFFFFFC
0000000000000000000000003FFFFFFFFFFC
0000000000000000000000003FFFFFFFFFFC
0000000000000000000000003FFFFFFFFFFC
0000000000000000000000003FFFFFFFFFFC
0000000000000000000000003FFFFFFFFFFC
0000000000000000000000003FFFFFFFFFFC
0000000000000000000000003FFFFFFFFFFC
0000000000000000000000003FFFFFFFFFFC
0000000000000000000000003FFFFFFFFFFC
0000000000000000000000003FFFFFFFFFFC
0000000000000000000000003FFFFFFFFFFC
0000000000000000000000003FFFFFFFFFFC
0000000000000000000000003FFFFFFFFFFC
0000000000000000000000003FFFFFFFFFFC
0000000000000000000000003FFFFFFFFFFC
0000000000000000000000003FFFFFFFFFFC
0000000000000000000000003FFFFFFFFFFC
0000000000000000000000003FFFFFFFFFFC
0000000000000000000000003FFFFFFFFFFC
0000000000000000000000003FFFFFFFFFFC
0000000000000000000000003FFFFFFFFFFC
0000000000000000000000003FFFFFFFFFFC
0000000000000000000000003FFFFFFFFFFC
0000000000000000000000003FFFFFFFFFFC
0000000000000000000000003FFFFFFFFFFC
0000000000000000000000003FFFFFFFFFFC
0000000000000000000000003FFFFFFFFFFC
ENDCHAR
STARTCHAR 0035
ENCODING 53
SWIDTH 604 0
DWIDTH 189 0
BBX 144 242 15 0
BITMAP
00000000000003FFFFFFFFFFFFFFFFFE0000
00000000001FFFFFFFFFFFFFFFFFFFFE0000
0000000007FFFFFFFFFFFFFFFFFFFFFE0000
00000000FFFFFFFFFFFFFFFFFFFFFFFE0000
00000007FFFFFFFFFFFFFFFFFFFFFFFE0000
0000003FFFFFFFFFFFFFFFFFFFFFFFFE0000
000000FFFFFFFFFFFFFFFFFFFFFFFFFE0000
000003FFFFFFFFFFFFFFFFFFFFFFFFFE0000
00000FFFFFFFFFFFFFFFFFFFFFFFFFFE0000
00003FFFFFFFFFFFFFFFFFFFFFFFFFFE0000
00007FFFFFFFFFFFFFFFFFFFFFFFFFFE0000
0001FFFFFFFFFFFFFFFFFFFFFFFFFFFE0000
0003FFFFFFFFFFFFFFFFFFFFFFFFFFFE0000
0007FFFFFFFFFFFFFFFFFFFFFFFFFFFE0000
000FFFFFFFFFFFFFFFFFFFFFFFFFFFFE0000
001FFFFFFFFFFFFFFFFFFFFFFFFFFFFE0000
001FFFFFFFFFFFFFFFFFFFFFFFFFFFFE0000
003FFFFFFFFFFFFFFFFFFFFFFFFFFFFE0000
007FFFFFFFFFFFFFFFFFFFFFFFFFFFFE0000
007FFFFFFFFFFFFFFFFFFFFFFFFFFFFE0000
00FFFFFFFFFFFFFFFFFFFFFFFFFFFFFE0000
01FFFFFFFFFFFFFFFFFFFFFFFFFFFFFE0000
01FFFFFFFFFFFFFFFFFFFFFFFFFFFFFE0000
03FFFFFFFFFFFFFFFFFFFFFFFFFFFFFE0000
03FFFFFFFFFFFFFFFFFFFFFFFFFFFFFE0000
03FFFFFFFFFFFFFFFFFFFFFFFFFFFFFE0000
07FFFFFFFFFFFFFFFFFFFFFFFFFFFFFE0000
07FFFFFFFFFFFFFFFFFFFFFFFFFFFFFE0000
07FFFFFFFFFFFFFFFFFFFFFFFFFFFFFE0000
0FFFFFFFFFFFFFFFFFFFFFFFFFFFFFFE0000
0FFFFFFFFFFFFFFFFFFFFFFFFFFFFFFE0000
0FFFFFFFFFFFFFFFFFFFFFFFFFFFFFFE0000
1FFFFFFFFFFFFFFFFFFFFFFFFFFFFFFE0000
1FFFFFFFFFFFFFFFFFFFFFFFFFFFFFFE0000
1FFFFFFFFFFFFFFFFFFFFFFFFFFFFFFE0000
1FFFFFFFFFFFFFFFFFFFFFFFFFFFFFFE0000
3FFFFFFFFFFFFE0000000000000000000000
3FFFFFFFFFFFF00000000000000000000000
3FFFFFFFFFFFE00000000000000000000000
3FFFFFFFFFFF800000000000000000000000
3FFFFFFFFFFF000000000000000000000000
3FFFFFFFFFFF000000000000000000000000
7FFFFFFFFFFE000000000000000000000000
7FFFFFFFFFFE000000000000000000000000
7FFFFFFFFFFC000000000000000000000000
7FFFFFFFFFFC000000000000000000000000
7FFFFFFFFFFC000000000000000000000000
7FFFFFFFFFF8000000000000000000000000
7FFFFFFFFFF8000000000000000000000000
7FFFFFFFFFF8000000000000000000000000
7FFFFFFFFFF8000000000000000000000000
7FFFFFFFFFF8000000000000000000000000
FFFFFFFFFFF8000000000000000000000000
FFFFFFFFFFF8000000000000000000000000
FFFFFFFFFFF0000000000000000000000000
FFFFFFFFFFF0000000000000000000000000
FFFFFFFFFFF0000000000000000000000000
FFFFFFFFFFF0000000000000000000000000
FFFFFFFFFFF0000000000000000000000000
FFFFFFFFFFF0000000000000000000000000
FFFFFFFFFFF0000000000000000000000000
FFFFFFFFFFF0000000000000000000000000
FFFFFFFFFFF0000000000000000000000000
FFFFFFFFFFF0000000000000000000000000
FFFFFFFFFFF0000000000000000000000000
FFFFFFFFFFF0000000000000000000000000
FFFFFFFFFFF0000000000000000000000000
FFFFFFFFFFF0000000000000000000000000
FFFFFFFFFFF0000000000000000000000000
FFFFFFFFFFF0000000000000000000000000
FFFFFFFFFFF0000000000000000000000000
FFFFFFFFFFF0000000000000000000000000
FFFFFFFFFFF0000000000000000000000000
FFFFFFFFFFF0000000000000000000000000
FFFFFFFFFFF0000000000000000000000000
FFFFFFFFFFF0000000000000000000000000
FFFFFFFFFFF0000000000000000000000000
FFFFFFFFFFF0000000000000000000000000
FFFFFFFFFFF0000000000000000000000000
FFFFFFFFFFF0000000000000000000000000
FFFFFFFFFFF0000000000000000000000000
FFFFFFFFFFF0000000000000000000000000
FFFFFFFFFFF0000000000000000000000000
FFFFFFFFFFF0000000000000000000000000
FFFFFFFFFFF0000000000000000000000000
FFFFFFFFFFF0000000000000000000000000
FFFFFFFFFFF0000000000000000000000000
FFFFFFFFFFF0000000000000000000000000
FFFFFFFFFFF0000000000000000000000000
FFFFFFFFFFF0000000000000000000000000
FFFFFFFFFFF0000000000000000000000000
FFFFFFFFFFF0000000000000000000000000
FFFFFFFFFFF0000000000000000000000000
FFFFFFFFFFF0000000000000000000000000
FFFFFFFFFFF0000000000000000000000000
FFFFFFFFFFF0000000000000000000000000
FFFFFFFFFFF0000000000000000000000000
FFFFFFFFFFF0000000000000000000000000
FFFFFFFFFFF0000000000000000000000000
FFFFFFFFFFFFFFFFFFFFFFFFFF0000000000
FFFFFFFFFFFFFFFFFFFFFFFFFFFC00000000
FFFFFFFFFFFFFFFFFFFFFFFFFFFFC0000000
FFFFFFFFFFFFFFFFFFFFFFFFFFFFF8000000
FFFFFFFFFFFFFFFFFFFFFFFFFFFFFF000000
FFFFFFFFFFFFFFFFFFFFFFFFFFFFFFC00000
FFFFFFFFFFFFFFFFFFFFFFFFFFFFFFF00000
FFFFFFFFFFFFFFFFFFFFFFFFFFFFFFF80000
FFFFFFFFFFFFFFFFFFFFFFFFFFFFFFFE0000
FFFFFFFFFFFFFFFFFFFFFFFFFFFFFFFF0000
FFFFFFFFFFFFFFFFFFFFFFFFFFFFFFFF8000
FFFFFFFFFFFFFFFFFFFFFFFFFFFFFFFFC000
FFFFFFFFFFFFFFFFFFFFFFFFFFFFFFFFE000
FFFFFFFFFFFFFFFFFFFFFFFFFFFFFFFFF000
FFFFFFFFFFFFFFFFFFFFFFFFFFFFFFFFF800
FFFFFFFFFFFFFFFFFFFFFFFFFFFFFFFFFC00
FFFFFFFFFFFFFFFFFFFFFFFFFFFFFFFFFE00
FFFFFFFFFFFFFFFFFFFFFFFFFFFFFFFFFE00
FFFFFFFFFFFFFFFFFFFFFFFFFFFFFFFFFF00
FFFFFFFFFFFFFFFFFFFFFFFFFFFFFFFFFF80
FFFFFFFFFFFFFFFFFFFFFFFFFFFFFFFFFF80
FFFFFFFFFFFFFFFFFFFFFFFFFFFFFFFFFFC0
FFFFFFFFFFFFFFFFFFFFFFFFFFFFFFFFFFC0
FFFFFFFFFFFFFFFFFFFFFFFFFFFFFFFFFFE0
FFFFFFFFFFFFFFFFFFFFFFFFFFFFFFFFFFE0
FFFFFFFFFFFFFFFFFFFFFFFFFFFFFFFFFFE0
FFFFFFFFFFFFFFFFFFFFFFFFFFFFFFFFFFF0
FFFFFFFFFFFFFFFFFFFFFFFFFFFFFFFFFFF0
FFFFFFFFFFFFFFFFFFFFFFFFFFFFFFFFFFF0
FFFFFFFFFFFFFFFFFFFFFFFFFFFFFFFFFFF8
FFFFFFFFFFFFFFFFFFFFFFFFFFFFFFFFFFF8
FFFFFFFFFFFFFFFFFFFFFFFFFFFFFFFFFFF8
00000000000000000001FFFFFFFFFFFFFFFC
000000000000000000001FFFFFFFFFFFFFFC
0000000000000000000003FFFFFFFFFFFFFC
0000000000000000000000FFFFFFFFFFFFFC
00000000000000000000003FFFFFFFFFFFFC
00000000000000000000001FFFFFFFFFFFFE
00000000000000000000000FFFFFFFFFFFFE
000000000000000000000007FFFFFFFFFFFE
000000000000000000000003FFFFFFFFFFFE
000000000000000000000001FFFFFFFFFFFE
000000000000000000000000FFFFFFFFFFFE
000000000000000000000000FFFFFFFFFFFE
0000000000000000000000007FFFFFFFFFFE
0000000000000000000000007FFFFFFFFFFF
0000000000000000000000003FFFFFFFFFFF
0000000000000000000000003FFFFFFFFFFF
0000000000000000000000003FFFFFFFFFFF
0000000000000000000000001FFFFFFFFFFF
0000000000000000000000001FFFFFFFFFFF
0000000000000000000000001FFFFFFFFFFF
0000000000000000000000000FFFFFFFFFFF
0000000000000000000000000FFFFFFFFFFF
0000000000000000000000000FFFFFFFFFFF
0000000000000000000000000FFFFFFFFFFF
0000000000000000000000000FFFFFFFFFFF
0000000000000000000000000FFFFFFFFFFF
00000000000000000000000007FFFFFFFFFF
00000000000000000000000007FFFFFFFFFF
00000000000000000000000007FFFFFFFFFF
00000000000000000000000007FFFFFFFFFF
00000000000000000000000007FFFFFFFFFF
00000000000000000000000007FFFFFFFFFF
00000000000000000000000007FFFFFFFFFF
00000000000000000000000007FFFFFFFFFF
00000000000000000000000007FFFFFFFFFF
00000000000000000000000007FFFFFFFFFF
00000000000000000000000007FFFFFFFFFF
00000000000000000000000007FFFFFFFFFF
00000000000000000000000007FFFFFFFFFF
00000000000000000000000007FFFFFFFFFF
00000000000000000000000007FFFFFFFFFF
00000000000000000000000007FFFFFFFFFF
00000000000000000000000007FFFFFFFFFF
00000000000000000000000007FFFFFFFFFF
00000000000000000000000007FFFFFFFFFF
00000000000000000000000007FFFFFFFFFF
00000000000000000000000007FFFFFFFFFF
00000000000000000000000007FFFFFFFFFF
00000000000000000000000007FFFFFFFFFF
00000000000000000000000007FFFFFFFFFF
00000000000000000000000007FFFFFFFFFF
00000000000000000000000007FFFFFFFFFF
00000000000000000000000007FFFFFFFFFF
00000000000000000000000007FFFFFFFFFF
00000000000000000000000007FFFFFFFFFF
00000000000000000000000007FFFFFFFFFF
00000000000000000000000007FFFFFFFFFF
00000000000000000000000007FFFFFFFFFF
0000000000000000000000000FFFFFFFFFFF
0000000000000000000000000FFFFFFFFFFF
0000000000000000000000000FFFFFFFFFFE
0000000000000000000000000FFFFFFFFFFE
0000000000000000000000000FFFFFFFFFFE
0000000000000000000000001FFFFFFFFFFE
0000000000000000000000001FFFFFFFFFFE
0000000000000000000000001FFFFFFFFFFE
0000000000000000000000001FFFFFFFFFFE
0000000000000000000000003FFFFFFFFFFE
0000000000000000000000003FFFFFFFFFFE
0000000000000000000000007FFFFFFFFFFE
000000000000000000000000FFFFFFFFFFFC
000000000000000000000001FFFFFFFFFFFC
000000000000000000000003FFFFFFFFFFFC
00000000000000000000000FFFFFFFFFFFFC
00000000000000000000007FFFFFFFFFFFFC
FFFFFFFFFFFFFFFFFFFFFFFFFFFFFFFFFFF8
FFFFFFFFFFFFFFFFFFFFFFFFFFFFFFFFFFF8
FFFFFFFFFFFFFFFFFFFFFFFFFFFFFFFFFFF8
FFFFFFFFFFFFFFFFFFFFFFFFFFFFFFFFFFF8
FFFFFFFFFFFFFFFFFFFFFFFFFFFFFFFFFFF8
FFFFFFFFFFFFFFFFFFFFFFFFFFFFFFFFFFF0
FFFFFFFFFFFFFFFFFFFFFFFFFFFFFFFFFFF0
FFFFFFFFFFFFFFFFFFFFFFFFFFFFFFFFFFF0
FFFFFFFFFFFFFFFFFFFFFFFFFFFFFFFFFFE0
FFFFFFFFFFFFFFFFFFFFFFFFFFFFFFFFFFE0
FFFFFFFFFFFFFFFFFFFFFFFFFFFFFFFFFFE0
FFFFFFFFFFFFFFFFFFFFFFFFFFFFFFFFFFC0
FFFFFFFFFFFFFFFFFFFFFFFFFFFFFFFFFFC0
FFFFFFFFFFFFFFFFFFFFFFFFFFFFFFFFFF80
FFFFFFFFFFFFFFFFFFFFFFFFFFFFFFFFFF80
FFFFFFFFFFFFFFFFFFFFFFFFFFFFFFFFFF00
FFFFFFFFFFFFFFFFFFFFFFFFFFFFFFFFFF00
FFFFFFFFFFFFFFFFFFFFFFFFFFFFFFFFFE00
FFFFFFFFFFFFFFFFFFFFFFFFFFFFFFFFFC00
FFFFFFFFFFFFFFFFFFFFFFFFFFFFFFFFFC00
FFFFFFFFFFFFFFFFFFFFFFFFFFFFFFFFF800
FFFFFFFFFFFFFFFFFFFFFFFFFFFFFFFFF000
FFFFFFFFFFFFFFFFFFFFFFFFFFFFFFFFE000
FFFFFFFFFFFFFFFFFFFFFFFFFFFFFFFFC000
FFFFFFFFFFFFFFFFFFFFFFFFFFFFFFFF8000
FFFFFFFFFFFFFFFFFFFFFFFFFFFFFFFE0000
FFFFFFFFFFFFFFFFFFFFFFFFFFFFFFFC0000
FFFFFFFFFFFFFFFFFFFFFFFFFFFFFFF00000
FFFFFFFFFFFFFFFFFFFFFFFFFFFFFFE00000
FFFFFFFFFFFFFFFFFFFFFFFFFFFFFF000000
FFFFFFFFFFFFFFFFFFFFFFFFFFFFFC000000
FFFFFFFFFFFFFFFFFFFFFFFFFFFFE0000000
FFFFFFFFFFFFFFFFFFFFFFFFFFFF00000000
FFFFFFFFFFFFFFFFFFFFFFFFFFE000000000
FFFFFFFFFFFFFFFFFFFFFFFFF80000000000
FFFFFFFFFFFFFFFFFFFFFF80000000000000
ENDCHAR
STARTCHAR 0036
ENCODING 54
SWIDTH 604 0
DWIDTH 189 0
BBX 145 242 12 0
BITMAP
000000007FFFFFFFFFFFFFFFFFFFFFFE000000
0000000FFFFFFFFFFFFFFFFFFFFFFFFE000000
000000FFFFFFFFFFFFFFFFFFFFFFFFFE000000
000003FFFFFFFFFFFFFFFFFFFFFFFFFE000000
00000FFFFFFFFFFFFFFFFFFFFFFFFFFE000000
00003FFFFFFFFFFFFFFFFFFFFFFFFFFE000000
00007FFFFFFFFFFFFFFFFFFFFFFFFFFE000000
0000FFFFFFFFFFFFFFFFFFFFFFFFFFFE000000
0001FFFFFFFFFFFFFFFFFFFFFFFFFFFE000000
0003FFFFFFFFFFFFFFFFFFFFFFFFFFFE000000
0007FFFFFFFFFFFFFFFFFFFFFFFFFFFE000000
000FFFFFFFFFFFFFFFFFFFFFFFFFFFFE000000
001FFFFFFFFFFFFFFFFFFFFFFFFFFFFE000000
001FFFFFFFFFFFFFFFFFFFFFFFFFFFFE000000
003FFFFFFFFFFFFFFFFFFFFFFFFFFFFE000000
003FFFFFFFFFFFFFFFFFFFFFFFFFFFFE000000
007FFFFFFFFFFFFFFFFFFFFFFFFFFFFE000000
007FFFFFFFFFFFFFFFFFFFFFFFFFFFFE000000
00FFFFFFFFFFFFFFFFFFFFFFFFFFFFFE000000
00FFFFFFFFFFFFFFFFFFFFFFFFFFFFFE000000
01FFFFFFFFFFFFFFFFFFFFFFFFFFFFFE000000
01FFFFFFFFFFFFFFFFFFFFFFFFFFFFFE000000
01FFFFFFFFFFFFFFFFFFFFFFFFFFFFFE000000
03FFFFFFFFFFFFFFFFFFFFFFFFFFFFFE000000
03FFFFFFFFFFFFFFFFFFFFFFFFFFFFFE000000
03FFFFFFFFFFFFFFFFFFFFFFFFFFFFFE000000
07FFFFFFFFFFFFFFFFFFFFFFFFFFFFFE000000
07FFFFFFFFFFFFFFFFFFFFFFFFFFFFFE000000
07FFFFFFFFFFFFFFFFFFFFFFFFFFFFFE000000
07FFFFFFFFFFFFFFFFFFFFFFFFFFFFFE000000
0FFFFFFFFFFFFFFFFFFFFFFFFFFFFFFE000000
0FFFFFFFFFFFFFFFFFFFFFFFFFFFFFFE000000
0FFFFFFFFFFFFFFFFFFFFFFFFFFFFFFE000000
0FFFFFFFFFFFFFFFFFFFFFFFFFFFFFFE000000
0FFFFFFFFFFFFFFFFFFFFFFFFFFFFFFE000000
1FFFFFFFFFFFFFFFFFFFFFFFFFFFFFFE000000
1FFFFFFFFFFFFFC00000000000000000000000
1FFFFFFFFFFFFE000000000000000000000000
1FFFFFFFFFFFF8000000000000000000000000
1FFFFFFFFFFFE0000000000000000000000000
1FFFFFFFFFFFC0000000000000000000000000
1FFFFFFFFFFF80000000000000000000000000
3FFFFFFFFFFF80000000000000000000000000
3FFFFFFFFFFF00000000000000000000000000
3FFFFFFFFFFE00000000000000000000000000
3FFFFFFFFFFE00000000000000000000000000
3FFFFFFFFFFC00000000000000000000000000
3FFFFFFFFFFC00000000000000000000000000
3FFFFFFFFFFC00000000000000000000000000
3FFFFFFFFFF800000000000000000000000000
3FFFFFFFFFF800000000000000000000000000
7FFFFFFFFFF800000000000000000000000000
7FFFFFFFFFF800000000000000000000000000
7FFFFFFFFFF000000000000000000000000000
7FFFFFFFFFF000000000000000000000000000
7FFFFFFFFFF000000000000000000000000000
7FFFFFFFFFF000000000000000000000000000
7FFFFFFFFFF000000000000000000000000000
7FFFFFFFFFF000000000000000000000000000
7FFFFFFFFFE000000000000000000000000000
7FFFFFFFFFE000000000000000000000000000
7FFFFFFFFFE000000000000000000000000000
7FFFFFFFFFE000000000000000000000000000
7FFFFFFFFFE000000000000000000000000000
7FFFFFFFFFE000000000000000000000000000
7FFFFFFFFFE000000000000000000000000000
7FFFFFFFFFE000000000000000000000000000
7FFFFFFFFFE000000000000000000000000000
FFFFFFFFFFE000000000000000000000000000
FFFFFFFFFFE000000000000000000000000000
FFFFFFFFFFE000000000000000000000000000
FFFFFFFFFFC000000000000000000000000000
FFFFFFFFFFC000000000000000000000000000
FFFFFFFFFFC000000000000000000000000000
FFFFFFFFFFC000000000000000000000000000
FFFFFFFFFFC000000000000000000000000000
FFFFFFFFFFC000000000000000000000000000
FFFFFFFFFFC000000000000000000000000000
FFFFFFFFFFC000000000000000000000000000
FFFFFFFFFFC000000000000000000000000000
FFFFFFFFFFC000000000000000000000000000
FFFFFFFFFFC000000000000000000000000000
FFFFFFFFFFC000000000000000000000000000
FFFFFFFFFFC000000000000000000000000000
FFFFFFFFFFC000000000000000000000000000
FFFFFFFFFFC000000000000000000000000000
FFFFFFFFFFC000000000000000000000000000
FFFFFFFFFFC000000000000000000000000000
FFFFFFFFFFC000000000000000000000000000
FFFFFFFFFFC000000000000000000000000000
FFFFFFFFFFC000000000000000000000000000
FFFFFFFFFFC000000000000000000000000000
FFFFFFFFFFC000000000000000000000000000
FFFFFFFFFFC000000000000000000000000000
FFFFFFFFFFC000000007FFFFF0000000000000
FFFFFFFFFFC0000003FFFFFFFFE00000000000
FFFFFFFFFFC000003FFFFFFFFFFF0000000000
FFFFFFFFFFC00003FFFFFFFFFFFFF000000000
FFFFFFFFFFC0000FFFFFFFFFFFFFFE00000000
FFFFFFFFFFC0003FFFFFFFFFFFFFFF80000000
FFFFFFFFFFC000FFFFFFFFFFFFFFFFE0000000
FFFFFFFFFFC003FFFFFFFFFFFFFFFFF8000000
FFFFFFFFFFC00FFFFFFFFFFFFFFFFFFE000000
FFFFFFFFFFC01FFFFFFFFFFFFFFFFFFF000000
FFFFFFFFFFC07FFFFFFFFFFFFFFFFFFF800000
FFFFFFFFFFC0FFFFFFFFFFFFFFFFFFFFE00000
FFFFFFFFFFC1FFFFFFFFFFFFFFFFFFFFF00000
FFFFFFFFFFC3FFFFFFFFFFFFFFFFFFFFF80000
FFFFFFFFFFCFFFFFFFFFFFFFFFFFFFFFFC0000
FFFFFFFFFFDFFFFFFFFFFFFFFFFFFFFFFE0000
FFFFFFFFFFFFFFFFFFFFFFFFFFFFFFFFFE0000
FFFFFFFFFFFFFFFFFFFFFFFFFFFFFFFFFF0000
FFFFFFFFFFFFFFFFFFFFFFFFFFFFFFFFFF8000
FFFFFFFFFFFFFFFFFFFFFFFFFFFFFFFFFF8000
FFFFFFFFFFFFFFFFFFFFFFFFFFFFFFFFFFC000
FFFFFFFFFFFFFFFFFFFFFFFFFFFFFFFFFFE000
FFFFFFFFFFFFFFFFFFFFFFFFFFFFFFFFFFE000
FFFFFFFFFFFFFFFFFFFFFFFFFFFFFFFFFFF000
FFFFFFFFFFFFFFFFFFFFFFFFFFFFFFFFFFF000
FFFFFFFFFFFFFFFFFFFFFFFFFFFFFFFFFFF000
FFFFFFFFFFFFFFFFFFFFFFFFFFFFFFFFFFF800
FFFFFFFFFFFFFFFFFFFFFFFFFFFFFFFFFFF800
FFFFFFFFFFFFFFFFFFFFFFFFFFFFFFFFFFFC00
FFFFFFFFFFFFFFFFFFFFFFFFFFFFFFFFFFFC00
FFFFFFFFFFFFFFFFFFFFFFFFFFFFFFFFFFFC00
FFFFFFFFFFFFFFFFFFFFFFFFFFFFFFFFFFFC00
FFFFFFFFFFFFFFFFFFFFFFFFFFFFFFFFFFFE00
FFFFFFFFFFFFFFFF8000FFFFFFFFFFFFFFFE00
FFFFFFFFFFFFFFF0000007FFFFFFFFFFFFFE00
FFFFFFFFFFFFFF80000000FFFFFFFFFFFFFE00
FFFFFFFFFFFFFE000000003FFFFFFFFFFFFF00
FFFFFFFFFFFFF8000000000FFFFFFFFFFFFF00
FFFFFFFFFFFFE00000000007FFFFFFFFFFFF00
FFFFFFFFFFFFC00000000001FFFFFFFFFFFF00
FFFFFFFFFFFF800000000000FFFFFFFFFFFF00
FFFFFFFFFFFF0000000000007FFFFFFFFFFF00
FFFFFFFFFFFE0000000000003FFFFFFFFFFF00
FFFFFFFFFFFE0000000000003FFFFFFFFFFF80
FFFFFFFFFFFC0000000000001FFFFFFFFFFF80
FFFFFFFFFFF80000000000000FFFFFFFFFFF80
FFFFFFFFFFF80000000000000FFFFFFFFFFF80
FFFFFFFFFFF000000000000007FFFFFFFFFF80
FFFFFFFFFFF000000000000007FFFFFFFFFF80
FFFFFFFFFFF000000000000007FFFFFFFFFF80
FFFFFFFFFFE000000000000003FFFFFFFFFF80
FFFFFFFFFFE000000000000003FFFFFFFFFF80
FFFFFFFFFFE000000000000003FFFFFFFFFF80
FFFFFFFFFFE000000000000003FFFFFFFFFF80
FFFFFFFFFFE000000000000001FFFFFFFFFF80
FFFFFFFFFFC000000000000001FFFFFFFFFF80
FFFFFFFFFFC000000000000001FFFFFFFFFF80
FFFFFFFFFFC000000000000001FFFFFFFFFF80
FFFFFFFFFFC000000000000001FFFFFFFFFF80
FFFFFFFFFFC000000000000001FFFFFFFFFF80
FFFFFFFFFFC000000000000001FFFFFFFFFF80
FFFFFFFFFFC000000000000001FFFFFFFFFF80
FFFFFFFFFFC000000000000001FFFFFFFFFF80
FFFFFFFFFFC000000000000001FFFFFFFFFF80
FFFFFFFFFFC000000000000001FFFFFFFFFF80
FFFFFFFFFFC000000000000001FFFFFFFFFF80
FFFFFFFFFFC000000000000001FFFFFFFFFF80
FFFFFFFFFFC000000000000001FFFFFFFFFF80
FFFFFFFFFFC000000000000001FFFFFFFFFF80
FFFFFFFFFFC000000000000001FFFFFFFFFF80
FFFFFFFFFFC000000000000001FFFFFFFFFF80
FFFFFFFFFFC000000000000001FFFFFFFFFF80
FFFFFFFFFFC000000000000001FFFFFFFFFF80
FFFFFFFFFFC000000000000001FFFFFFFFFF80
7FFFFFFFFFC000000000000001FFFFFFFFFF80
7FFFFFFFFFC000000000000001FFFFFFFFFF80
7FFFFFFFFFC000000000000001FFFFFFFFFF80
7FFFFFFFFFC000000000000001FFFFFFFFFF80
7FFFFFFFFFC000000000000001FFFFFFFFFF80
7FFFFFFFFFC000000000000001FFFFFFFFFF80
7FFFFFFFFFC000000000000001FFFFFFFFFF80
7FFFFFFFFFC000000000000001FFFFFFFFFF80
7FFFFFFFFFC000000000000001FFFFFFFFFF80
7FFFFFFFFFC000000000000001FFFFFFFFFF80
7FFFFFFFFFC000000000000001FFFFFFFFFF80
7FFFFFFFFFC000000000000001FFFFFFFFFF80
7FFFFFFFFFC000000000000001FFFFFFFFFF80
7FFFFFFFFFC000000000000001FFFFFFFFFF80
7FFFFFFFFFC000000000000001FFFFFFFFFF80
7FFFFFFFFFC000000000000001FFFFFFFFFF80
3FFFFFFFFFC000000000000001FFFFFFFFFF80
3FFFFFFFFFC000000000000001FFFFFFFFFF80
3FFFFFFFFFC000000000000001FFFFFFFFFF80
3FFFFFFFFFC000000000000001FFFFFFFFFF80
3FFFFFFFFFC000000000000001FFFFFFFFFF80
3FFFFFFFFFC000000000000001FFFFFFFFFF80
3FFFFFFFFFC000000000000001FFFFFFFFFF80
3FFFFFFFFFC000000000000001FFFFFFFFFF80
1FFFFFFFFFC000000000000001FFFFFFFFFF80
1FFFFFFFFFE000000000000001FFFFFFFFFF80
1FFFFFFFFFE000000000000001FFFFFFFFFF80
1FFFFFFFFFE000000000000003FFFFFFFFFF80
1FFFFFFFFFE000000000000003FFFFFFFFFF80
1FFFFFFFFFE000000000000003FFFFFFFFFF80
1FFFFFFFFFF000000000000003FFFFFFFFFF80
0FFFFFFFFFF000000000000007FFFFFFFFFF80
0FFFFFFFFFF800000000000007FFFFFFFFFF80
0FFFFFFFFFF800000000000007FFFFFFFFFF80
0FFFFFFFFFFC0000000000000FFFFFFFFFFF80
07FFFFFFFFFE0000000000001FFFFFFFFFFF80
07FFFFFFFFFF0000000000003FFFFFFFFFFF80
07FFFFFFFFFF8000000000007FFFFFFFFFFF80
07FFFFFFFFFFE00000000001FFFFFFFFFFFF80
03FFFFFFFFFFFC000000000FFFFFFFFFFFFF80
03FFFFFFFFFFFFE0000000FFFFFFFFFFFFFF00
03FFFFFFFFFFFFFFFFFFFFFFFFFFFFFFFFFF00
01FFFFFFFFFFFFFFFFFFFFFFFFFFFFFFFFFF00
01FFFFFFFFFFFFFFFFFFFFFFFFFFFFFFFFFF00
01FFFFFFFFFFFFFFFFFFFFFFFFFFFFFFFFFF00
00FFFFFFFFFFFFFFFFFFFFFFFFFFFFFFFFFF00
00FFFFFFFFFFFFFFFFFFFFFFFFFFFFFFFFFF00
00FFFFFFFFFFFFFFFFFFFFFFFFFFFFFFFFFE00
007FFFFFFFFFFFFFFFFFFFFFFFFFFFFFFFFE00
007FFFFFFFFFFFFFFFFFFFFFFFFFFFFFFFFE00
003FFFFFFFFFFFFFFFFFFFFFFFFFFFFFFFFE00
003FFFFFFFFFFFFFFFFFFFFFFFFFFFFFFFFC00
001FFFFFFFFFFFFFFFFFFFFFFFFFFFFFFFFC00
000FFFFFFFFFFFFFFFFFFFFFFFFFFFFFFFFC00
000FFFFFFFFFFFFFFFFFFFFFFFFFFFFFFFF800
0007FFFFFFFFFFFFFFFFFFFFFFFFFFFFFFF800
0003FFFFFFFFFFFFFFFFFFFFFFFFFFFFFFF000
0001FFFFFFFFFFFFFFFFFFFFFFFFFFFFFFF000
0001FFFFFFFFFFFFFFFFFFFFFFFFFFFFFFE000
0000FFFFFFFFFFFFFFFFFFFFFFFFFFFFFFE000
00007FFFFFFFFFFFFFFFFFFFFFFFFFFFFFC000
00003FFFFFFFFFFFFFFFFFFFFFFFFFFFFF8000
00000FFFFFFFFFFFFFFFFFFFFFFFFFFFFF0000
000007FFFFFFFFFFFFFFFFFFFFFFFFFFFE0000
000003FFFFFFFFFFFFFFFFFFFFFFFFFFFC0000
000000FFFFFFFFFFFFFFFFFFFFFFFFFFF80000
0000003FFFFFFFFFFFFFFFFFFFFFFFFFF00000
0000000FFFFFFFFFFFFFFFFFFFFFFFFFC00000
00000003FFFFFFFFFFFFFFFFFFFFFFFF000000
000000007FFFFFFFFFFFFFFFFFFFFFFC000000
000000000FFFFFFFFFFFFFFFFFFFFFE0000000
00000000007FFFFFFFFFFFFFFFFFFE00000000
000000000001FFFFFFFFFFFFFFFF8000000000
000000000000007FFFFFFFFFFC000000000000
ENDCHAR
STARTCHAR 0037
ENCODING 55
SWIDTH 544 0
DWIDTH 170 0
BBX 128 242 0 0
BITMAP
FFFFFFFFFFFFFFFFFFFFFFFE00000000
FFFFFFFFFFFFFFFFFFFFFFFFF8000000
FFFFFFFFFFFFFFFFFFFFFFFFFF000000
FFFFFFFFFFFFFFFFFFFFFFFFFFC00000
FFFFFFFFFFFFFFFFFFFFFFFFFFF00000
FFFFFFFFFFFFFFFFFFFFFFFFFFFC0000
FFFFFFFFFFFFFFFFFFFFFFFFFFFE0000
FFFFFFFFFFFFFFFFFFFFFFFFFFFF0000
FFFFFFFFFFFFFFFFFFFFFFFFFFFF8000
FFFFFFFFFFFFFFFFFFFFFFFFFFFFC000
FFFFFFFFFFFFFFFFFFFFFFFFFFFFE000
FFFFFFFFFFFFFFFFFFFFFFFFFFFFF000
FFFFFFFFFFFFFFFFFFFFFFFFFFFFF800
FFFFFFFFFFFFFFFFFFFFFFFFFFFFF800
FFFFFFFFFFFFFFFFFFFFFFFFFFFFFC00
FFFFFFFFFFFFFFFFFFFFFFFFFFFFFC00
FFFFFFFFFFFFFFFFFFFFFFFFFFFFFE00
FFFFFFFFFFFFFFFFFFFFFFFFFFFFFE00
FFFFFFFFFFFFFFFFFFFFFFFFFFFFFF00
FFFFFFFFFFFFFFFFFFFFFFFFFFFFFF00
FFFFFFFFFFFFFFFFFFFFFFFFFFFFFF80
FFFFFFFFFFFFFFFFFFFFFFFFFFFFFF80
FFFFFFFFFFFFFFFFFFFFFFFFFFFFFF80
FFFFFFFFFFFFFFFFFFFFFFFFFFFFFFC0
FFFFFFFFFFFFFFFFFFFFFFFFFFFFFFC0
FFFFFFFFFFFFFFFFFFFFFFFFFFFFFFC0
FFFFFFFFFFFFFFFFFFFFFFFFFFFFFFE0
FFFFFFFFFFFFFFFFFFFFFFFFFFFFFFE0
FFFFFFFFFFFFFFFFFFFFFFFFFFFFFFE0
FFFFFFFFFFFFFFFFFFFFFFFFFFFFFFE0
FFFFFFFFFFFFFFFFFFFFFFFFFFFFFFF0
FFFFFFFFFFFFFFFFFFFFFFFFFFFFFFF0
FFFFFFFFFFFFFFFFFFFFFFFFFFFFFFF0
FFFFFFFFFFFFFFFFFFFFFFFFFFFFFFF0
FFFFFFFFFFFFFFFFFFFFFFFFFFFFFFF0
FFFFFFFFFFFFFFFFFFFFFFFFFFFFFFF8
00000000000000001FFFFFFFFFFFFFF8
000000000000000001FFFFFFFFFFFFF8
0000000000000000007FFFFFFFFFFFF8
0000000000000000001FFFFFFFFFFFF8
0000000000000000000FFFFFFFFFFFF8
00000000000000000007FFFFFFFFFFFC
00000000000000000007FFFFFFFFFFFC
00000000000000000003FFFFFFFFFFFC
00000000000000000001FFFFFFFFFFFC
00000000000000000001FFFFFFFFFFFC
00000000000000000000FFFFFFFFFFFC
00000000000000000000FFFFFFFFFFFC
00000000000000000000FFFFFFFFFFFC
000000000000000000007FFFFFFFFFFC
000000000000000000007FFFFFFFFFFE
000000000000000000007FFFFFFFFFFE
000000000000000000003FFFFFFFFFFE
000000000000000000003FFFFFFFFFFE
000000000000000000003FFFFFFFFFFE
000000000000000000003FFFFFFFFFFE
000000000000000000003FFFFFFFFFFE
000000000000000000003FFFFFFFFFFE
000000000000000000001FFFFFFFFFFE
000000000000000000001FFFFFFFFFFE
000000000000000000001FFFFFFFFFFE
000000000000000000001FFFFFFFFFFE
000000000000000000001FFFFFFFFFFE
000000000000000000001FFFFFFFFFFE
000000000000000000001FFFFFFFFFFE
000000000000000000001FFFFFFFFFFE
000000000000000000001FFFFFFFFFFF
000000000000000000001FFFFFFFFFFF
000000000000000000001FFFFFFFFFFF
000000000000000000000FFFFFFFFFFF
000000000000000000000FFFFFFFFFFF
000000000000000000000FFFFFFFFFFF
000000000000000000000FFFFFFFFFFF
000000000000000000000FFFFFFFFFFF
000000000000000000000FFFFFFFFFFF
000000000000000000000FFFFFFFFFFF
000000000000000000000FFFFFFFFFFF
000000000000000000000FFFFFFFFFFF
000000000000000000000FFFFFFFFFFF
000000000000000000000FFFFFFFFFFF
000000000000000000000FFFFFFFFFFF
000000000000000000000FFFFFFFFFFF
000000000000000000000FFFFFFFFFFF
000000000000000000000FFFFFFFFFFF
000000000000000000000FFFFFFFFFFF
000000000000000000000FFFFFFFFFFF
000000000000000000000FFFFFFFFFFF
000000000000000000000FFFFFFFFFFF
000000000000000000000FFFFFFFFFFF
000000000000000000000FFFFFFFFFFF
000000000000000000000FFFFFFFFFFF
000000000000000000000FFFFFFFFFFF
000000000000000000000FFFFFFFFFFF
000000000000000000000FFFFFFFFFFF
000000000000000000000FFFFFFFFFFF
000000000000000000000FFFFFFFFFFF
000000000000000000000FFFFFFFFFFF
000000000000000000000FFFFFFFFFFF
000000000000000000000FFFFFFFFFFF
000000000000000000000FFFFFFFFFFF
000000000000000000000FFFFFFFFFFF
000000000000000000000FFFFFFFFFFF
000000000000000000000FFFFFFFFFFF
000000000000000000000FFFFFFFFFFF
000000000000000000000FFFFFFFFFFF
000000000000000000000FFFFFFFFFFF
000000000000000000000FFFFFFFFFFF
000000000000000000000FFFFFFFFFFF
000000000000000000000FFFFFFFFFFF
000000000000000000000FFFFFFFFFFF
000000000000000000000FFFFFFFFFFF
000000000000000000000FFFFFFFFFFF
000000000000000000000FFFFFFFFFFF
000000000000000000000FFFFFFFFFFF
000000000000000000000FFFFFFFFFFF
000000000000000000000FFFFFFFFFFF
000000000000000000000FFFFFFFFFFF
000000000000000000000FFFFFFFFFFF
000000000000000000000FFFFFFFFFFF
000000000000000000000FFFFFFFFFFF
000000000000000000000FFFFFFFFFFF
000000000000000000000FFFFFFFFFFF
000000000000000000000FFFFFFFFFFF
000000000000000000000FFFFFFFFFFF
000000000000000000000FFFFFFFFFFF
000000000000000000000FFFFFFFFFFF
000000000000000000000FFFFFFFFFFF
000000000000000000000FFFFFFFFFFF
000000000000000000000FFFFFFFFFFF
000000000000000000000FFFFFFFFFFF
000000000000000000000FFFFFFFFFFF
000000000000000000000FFFFFFFFFFF
000000000000000000000FFFFFFFFFFF
000000000000000000000FFFFFFFFFFF
000000000000000000000FFFFFFFFFFF
000000000000000000000FFFFFFFFFFF
000000000000000000000FFFFFFFFFFF
000000000000000000000FFFFFFFFFFF
000000000000000000000FFFFFFFFFFF
000000000000000000000FFFFFFFFFFF
000000000000000000000FFFFFFFFFFF
000000000000000000000FFFFFFFFFFF
000000000000000000000FFFFFFFFFFF
000000000000000000000FFFFFFFFFFF
000000000000000000000FFFFFFFFFFF
000000000000000000000FFFFFFFFFFF
000000000000000000000FFFFFFFFFFF
000000000000000000000FFFFFFFFFFF
000000000000000000000FFFFFFFFFFF
000000000000000000000FFFFFFFFFFF
000000000000000000000FFFFFFFFFFF
000000000000000000000FFFFFFFFFFF
000000000000000000000FFFFFFFFFFF
000000000000000000000FFFFFFFFFFF
000000000000000000000FFFFFFFFFFF
000000000000000000000FFFFFFFFFFF
000000000000000000000FFFFFFFFFFF
000000000000000000000FFFFFFFFFFF
000000000000000000000FFFFFFFFFFF
000000000000000000000FFFFFFFFFFF
000000000000000000000FFFFFFFFFFF
000000000000000000000FFFFFFFFFFF
000000000000000000000FFFFFFFFFFF
000000000000000000000FFFFFFFFFFF
000000000000000000000FFFFFFFFFFF
000000000000000000000FFFFFFFFFFF
000000000000000000000FFFFFFFFFFF
000000000000000000000FFFFFFFFFFF
000000000000000000000FFFFFFFFFFF
000000000000000000000FFFFFFFFFFF
000000000000000000000FFFFFFFFFFF
000000000000000000000FFFFFFFFFFF
000000000000000000000FFFFFFFFFFF
000000000000000000000FFFFFFFFFFF
000000000000000000000FFFFFFFFFFF
000000000000000000000FFFFFFFFFFF
000000000000000000000FFFFFFFFFFF
000000000000000000000FFFFFFFFFFF
000000000000000000000FFFFFFFFFFF
000000000000000000000FFFFFFFFFFF
000000000000000000000FFFFFFFFFFF
000000000000000000000FFFFFFFFFFF
000000000000000000000FFFFFFFFFFF
000000000000000000000FFFFFFFFFFF
000000000000000000000FFFFFFFFFFF
000000000000000000000FFFFFFFFFFF
000000000000000000000FFFFFFFFFFF
000000000000000000000FFFFFFFFFFF
000000000000000000000FFFFFFFFFFF
000000000000000000000FFFFFFFFFFF
000000000000000000000FFFFFFFFFFF
000000000000000000000FFFFFFFFFFF
000000000000000000000FFFFFFFFFFF
000000000000000000000FFFFFFFFFFF
000000000000000000000FFFFFFFFFFF
000000000000000000000FFFFFFFFFFF
000000000000000000000FFFFFFFFFFF
000000000000000000000FFFFFFFFFFF
000000000000000000000FFFFFFFFFFF
000000000000000000000FFFFFFFFFFF
000000000000000000000FFFFFFFFFFF
000000000000000000000FFFFFFFFFFF
000000000000000000000FFFFFFFFFFF
000000000000000000000FFFFFFFFFFF
000000000000000000000FFFFFFFFFFF
000000000000000000000FFFFFFFFFFF
000000000000000000000FFFFFFFFFFF
000000000000000000000FFFFFFFFFFF
000000000000000000000FFFFFFFFFFF
000000000000000000000FFFFFFFFFFF
000000000000000000000FFFFFFFFFFF
000000000000000000000FFFFFFFFFFF
000000000000000000000FFFFFFFFFFF
000000000000000000000FFFFFFFFFFF
000000000000000000000FFFFFFFFFFF
000000000000000000000FFFFFFFFFFF
000000000000000000000FFFFFFFFFFF
000000000000000000000FFFFFFFFFFF
000000000000000000000FFFFFFFFFFF
000000000000000000000FFFFFFFFFFF
000000000000000000000FFFFFFFFFFF
000000000000000000000FFFFFFFFFFF
000000000000000000000FFFFFFFFFFF
000000000000000000000FFFFFFFFFFF
000000000000000000000FFFFFFFFFFF
000000000000000000000FFFFFFFFFFF
000000000000000000000FFFFFFFFFFF
000000000000000000000FFFFFFFFFFF
000000000000000000000FFFFFFFFFFF
000000000000000000000FFFFFFFFFFF
000000000000000000000FFFFFFFFFFF
000000000000000000000FFFFFFFFFFF
000000000000000000000FFFFFFFFFFF
000000000000000000000FFFFFFFFFFF
000000000000000000000FFFFFFFFFFF
000000000000000000000FFFFFFFFFFF
000000000000000000000FFFFFFFFFFF
000000000000000000000FFFFFFFFFFF
000000000000000000000FFFFFFFFFFF
000000000000000000000FFFFFFFFFFF
000000000000000000000FFFFFFFFFFF
000000000000000000000FFFFFFFFFFF
ENDCHAR
STARTCHAR 0038
ENCODING 56
SWIDTH 588 0
DWIDTH 184 0
BBX 150 242 17 0
BITMAP
00000000000007FFFFFFFFFFC0000000000000
00000000007FFFFFFFFFFFFFFFFC0000000000
000000001FFFFFFFFFFFFFFFFFFFF000000000
00000003FFFFFFFFFFFFFFFFFFFFFF80000000
0000003FFFFFFFFFFFFFFFFFFFFFFFF0000000
000001FFFFFFFFFFFFFFFFFFFFFFFFFE000000
000007FFFFFFFFFFFFFFFFFFFFFFFFFFC00000
00001FFFFFFFFFFFFFFFFFFFFFFFFFFFF00000
00007FFFFFFFFFFFFFFFFFFFFFFFFFFFF80000
0000FFFFFFFFFFFFFFFFFFFFFFFFFFFFFE0000
0003FFFFFFFFFFFFFFFFFFFFFFFFFFFFFF0000
0007FFFFFFFFFFFFFFFFFFFFFFFFFFFFFFC000
000FFFFFFFFFFFFFFFFFFFFFFFFFFFFFFFE000
001FFFFFFFFFFFFFFFFFFFFFFFFFFFFFFFF000
003FFFFFFFFFFFFFFFFFFFFFFFFFFFFFFFF000
007FFFFFFFFFFFFFFFFFFFFFFFFFFFFFFFF800
007FFFFFFFFFFFFFFFFFFFFFFFFFFFFFFFFC00
00FFFFFFFFFFFFFFFFFFFFFFFFFFFFFFFFFE00
01FFFFFFFFFFFFFFFFFFFFFFFFFFFFFFFFFE00
01FFFFFFFFFFFFFFFFFFFFFFFFFFFFFFFFFF00
03FFFFFFFFFFFFFFFFFFFFFFFFFFFFFFFFFF00
03FFFFFFFFFFFFFFFFFFFFFFFFFFFFFFFFFF80
07FFFFFFFFFFFFFFFFFFFFFFFFFFFFFFFFFF80
07FFFFFFFFFFFFFFFFFFFFFFFFFFFFFFFFFFC0
07FFFFFFFFFFFFFFFFFFFFFFFFFFFFFFFFFFC0
0FFFFFFFFFFFFFFFFFFFFFFFFFFFFFFFFFFFC0
0FFFFFFFFFFFFFFFFFFFFFFFFFFFFFFFFFFFE0
0FFFFFFFFFFFFFFFFFFFFFFFFFFFFFFFFFFFE0
1FFFFFFFFFFFFFFFFFFFFFFFFFFFFFFFFFFFE0
1FFFFFFFFFFFFFFFFFFFFFFFFFFFFFFFFFFFE0
1FFFFFFFFFFFFFFFFFFFFFFFFFFFFFFFFFFFF0
1FFFFFFFFFFFFFFC000003FFFFFFFFFFFFFFF0
3FFFFFFFFFFFFFC00000001FFFFFFFFFFFFFF0
3FFFFFFFFFFFFE0000000007FFFFFFFFFFFFF0
3FFFFFFFFFFFFC0000000001FFFFFFFFFFFFF0
3FFFFFFFFFFFF000000000007FFFFFFFFFFFF8
3FFFFFFFFFFFE000000000003FFFFFFFFFFFF8
7FFFFFFFFFFFC000000000001FFFFFFFFFFFF8
7FFFFFFFFFFF8000000000000FFFFFFFFFFFF8
7FFFFFFFFFFF80000000000007FFFFFFFFFFF8
7FFFFFFFFFFF00000000000007FFFFFFFFFFF8
7FFFFFFFFFFF00000000000003FFFFFFFFFFF8
7FFFFFFFFFFE00000000000003FFFFFFFFFFF8
7FFFFFFFFFFE00000000000001FFFFFFFFFFF8
7FFFFFFFFFFE00000000000001FFFFFFFFFFF8
7FFFFFFFFFFC00000000000001FFFFFFFFFFFC
7FFFFFFFFFFC00000000000000FFFFFFFFFFFC
FFFFFFFFFFFC00000000000000FFFFFFFFFFFC
FFFFFFFFFFFC00000000000000FFFFFFFFFFFC
FFFFFFFFFFF800000000000000FFFFFFFFFFFC
FFFFFFFFFFF8000000000000007FFFFFFFFFFC
FFFFFFFFFFF8000000000000007FFFFFFFFFFC
FFFFFFFFFFF8000000000000007FFFFFFFFFFC
FFFFFFFFFFF8000000000000007FFFFFFFFFFC
FFFFFFFFFFF8000000000000007FFFFFFFFFFC
FFFFFFFFFFF8000000000000007FFFFFFFFFFC
FFFFFFFFFFF8000000000000007FFFFFFFFFFC
FFFFFFFFFFF0000000000000007FFFFFFFFFFC
FFFFFFFFFFF0000000000000003FFFFFFFFFFC
FFFFFFFFFFF0000000000000003FFFFFFFFFFC
FFFFFFFFFFF0000000000000003FFFFFFFFFFC
FFFFFFFFFFF0000000000000003FFFFFFFFFFC
FFFFFFFFFFF0000000000000003FFFFFFFFFFC
FFFFFFFFFFF0000000000000003FFFFFFFFFFC
FFFFFFFFFFF0000000000000003FFFFFFFFFFC
FFFFFFFFFFF0000000000000003FFFFFFFFFFC
FFFFFFFFFFF0000000000000003FFFFFFFFFFC
FFFFFFFFFFF0000000000000003FFFFFFFFFFC
FFFFFFFFFFF0000000000000003FFFFFFFFFFC
FFFFFFFFFFF0000000000000003FFFFFFFFFFC
FFFFFFFFFFF0000000000000003FFFFFFFFFFC
FFFFFFFFFFF0000000000000003FFFFFFFFFFC
FFFFFFFFFFF0000000000000003FFFFFFFFFFC
FFFFFFFFFFF0000000000000003FFFFFFFFFFC
FFFFFFFFFFF0000000000000003FFFFFFFFFFC
FFFFFFFFFFF0000000000000003FFFFFFFFFFC
FFFFFFFFFFF0000000000000003FFFFFFFFFFC
FFFFFFFFFFF0000000000000003FFFFFFFFFFC
FFFFFFFFFFF0000000000000003FFFFFFFFFFC
FFFFFFFFFFF0000000000000003FFFFFFFFFFC
FFFFFFFFFFF0000000000000003FFFFFFFFFFC
FFFFFFFFFFF0000000000000003FFFFFFFFFFC
FFFFFFFFFFF0000000000000003FFFFFFFFFFC
FFFFFFFFFFF0000000000000003FFFFFFFFFFC
FFFFFFFFFFF0000000000000003FFFFFFFFFFC
FFFFFFFFFFF0000000000000003FFFFFFFFFFC
FFFFFFFFFFF0000000000000003FFFFFFFFFFC
FFFFFFFFFFF8000000000000003FFFFFFFFFFC
FFFFFFFFFFF8000000000000003FFFFFFFFFFC
FFFFFFFFFFF8000000000000007FFFFFFFFFFC
7FFFFFFFFFF8000000000000007FFFFFFFFFFC
7FFFFFFFFFF8000000000000007FFFFFFFFFFC
7FFFFFFFFFF8000000000000007FFFFFFFFFF8
7FFFFFFFFFFC000000000000007FFFFFFFFFF8
7FFFFFFFFFFC00000000000000FFFFFFFFFFF8
7FFFFFFFFFFC00000000000000FFFFFFFFFFF8
7FFFFFFFFFFE00000000000000FFFFFFFFFFF8
3FFFFFFFFFFE00000000000001FFFFFFFFFFF8
3FFFFFFFFFFE00000000000001FFFFFFFFFFF8
3FFFFFFFFFFF00000000000001FFFFFFFFFFF8
3FFFFFFFFFFF00000000000003FFFFFFFFFFF0
3FFFFFFFFFFF80000000000007FFFFFFFFFFF0
1FFFFFFFFFFFC0000000000007FFFFFFFFFFF0
1FFFFFFFFFFFE000000000000FFFFFFFFFFFF0
1FFFFFFFFFFFF000000000001FFFFFFFFFFFE0
1FFFFFFFFFFFF800000000007FFFFFFFFFFFE0
0FFFFFFFFFFFFE0000000000FFFFFFFFFFFFE0
0FFFFFFFFFFFFF8000000003FFFFFFFFFFFFE0
07FFFFFFFFFFFFF00000003FFFFFFFFFFFFFC0
07FFFFFFFFFFFFFFC00007FFFFFFFFFFFFFFC0
03FFFFFFFFFFFFFFFFFFFFFFFFFFFFFFFFFF80
03FFFFFFFFFFFFFFFFFFFFFFFFFFFFFFFFFF80
01FFFFFFFFFFFFFFFFFFFFFFFFFFFFFFFFFF00
01FFFFFFFFFFFFFFFFFFFFFFFFFFFFFFFFFF00
00FFFFFFFFFFFFFFFFFFFFFFFFFFFFFFFFFE00
007FFFFFFFFFFFFFFFFFFFFFFFFFFFFFFFFE00
007FFFFFFFFFFFFFFFFFFFFFFFFFFFFFFFFC00
003FFFFFFFFFFFFFFFFFFFFFFFFFFFFFFFF800
001FFFFFFFFFFFFFFFFFFFFFFFFFFFFFFFF000
000FFFFFFFFFFFFFFFFFFFFFFFFFFFFFFFE000
0007FFFFFFFFFFFFFFFFFFFFFFFFFFFFFFC000
0003FFFFFFFFFFFFFFFFFFFFFFFFFFFFFF8000
000FFFFFFFFFFFFFFFFFFFFFFFFFFFFFFF8000
001FFFFFFFFFFFFFFFFFFFFFFFFFFFFFFFC000
003FFFFFFFFFFFFFFFFFFFFFFFFFFFFFFFE000
007FFFFFFFFFFFFFFFFFFFFFFFFFFFFFFFF000
007FFFFFFFFFFFFFFFFFFFFFFFFFFFFFFFF800
00FFFFFFFFFFFFFFFFFFFFFFFFFFFFFFFFF800
01FFFFFFFFFFFFFFFFFFFFFFFFFFFFFFFFFC00
03FFFFFFFFFFFFFFFFFFFFFFFFFFFFFFFFFE00
03FFFFFFFFFFFFFFFFFFFFFFFFFFFFFFFFFE00
07FFFFFFFFFFFFFFFFFFFFFFFFFFFFFFFFFF00
07FFFFFFFFFFFFFFFFFFFFFFFFFFFFFFFFFF00
0FFFFFFFFFFFFFFF80000FFFFFFFFFFFFFFF80
0FFFFFFFFFFFFFE00000003FFFFFFFFFFFFF80
0FFFFFFFFFFFFF0000000007FFFFFFFFFFFFC0
1FFFFFFFFFFFFC0000000001FFFFFFFFFFFFC0
1FFFFFFFFFFFF800000000007FFFFFFFFFFFE0
1FFFFFFFFFFFE000000000003FFFFFFFFFFFE0
3FFFFFFFFFFFC000000000001FFFFFFFFFFFE0
3FFFFFFFFFFF8000000000000FFFFFFFFFFFE0
3FFFFFFFFFFF80000000000007FFFFFFFFFFF0
3FFFFFFFFFFF00000000000003FFFFFFFFFFF0
3FFFFFFFFFFF00000000000003FFFFFFFFFFF0
7FFFFFFFFFFE00000000000001FFFFFFFFFFF0
7FFFFFFFFFFE00000000000001FFFFFFFFFFF8
7FFFFFFFFFFC00000000000000FFFFFFFFFFF8
7FFFFFFFFFFC00000000000000FFFFFFFFFFF8
7FFFFFFFFFFC00000000000000FFFFFFFFFFF8
7FFFFFFFFFF800000000000000FFFFFFFFFFF8
7FFFFFFFFFF8000000000000007FFFFFFFFFF8
7FFFFFFFFFF8000000000000007FFFFFFFFFF8
FFFFFFFFFFF8000000000000007FFFFFFFFFFC
FFFFFFFFFFF8000000000000007FFFFFFFFFFC
FFFFFFFFFFF8000000000000007FFFFFFFFFFC
FFFFFFFFFFF0000000000000003FFFFFFFFFFC
FFFFFFFFFFF0000000000000003FFFFFFFFFFC
FFFFFFFFFFF0000000000000003FFFFFFFFFFC
FFFFFFFFFFF0000000000000003FFFFFFFFFFC
FFFFFFFFFFF0000000000000003FFFFFFFFFFC
FFFFFFFFFFF0000000000000003FFFFFFFFFFC
FFFFFFFFFFF0000000000000003FFFFFFFFFFC
FFFFFFFFFFF0000000000000003FFFFFFFFFFC
FFFFFFFFFFF0000000000000003FFFFFFFFFFC
FFFFFFFFFFF0000000000000003FFFFFFFFFFC
FFFFFFFFFFF0000000000000003FFFFFFFFFFC
FFFFFFFFFFF0000000000000003FFFFFFFFFFC
FFFFFFFFFFF0000000000000003FFFFFFFFFFC
FFFFFFFFFFF0000000000000003FFFFFFFFFFC
FFFFFFFFFFF0000000000000003FFFFFFFFFFC
FFFFFFFFFFF0000000000000003FFFFFFFFFFC
FFFFFFFFFFF0000000000000003FFFFFFFFFFC
FFFFFFFFFFF0000000000000003FFFFFFFFFFC
FFFFFFFFFFF0000000000000003FFFFFFFFFFC
FFFFFFFFFFF0000000000000003FFFFFFFFFFC
FFFFFFFFFFF0000000000000003FFFFFFFFFFC
FFFFFFFFFFF0000000000000003FFFFFFFFFFC
FFFFFFFFFFF0000000000000003FFFFFFFFFFC
FFFFFFFFFFF0000000000000003FFFFFFFFFFC
FFFFFFFFFFF0000000000000003FFFFFFFFFFC
FFFFFFFFFFF0000000000000003FFFFFFFFFFC
FFFFFFFFFFF0000000000000003FFFFFFFFFFC
FFFFFFFFFFF0000000000000003FFFFFFFFFFC
FFFFFFFFFFF0000000000000003FFFFFFFFFFC
FFFFFFFFFFF8000000000000003FFFFFFFFFFC
FFFFFFFFFFF8000000000000003FFFFFFFFFFC
FFFFFFFFFFF8000000000000007FFFFFFFFFFC
FFFFFFFFFFF8000000000000007FFFFFFFFFFC
FFFFFFFFFFF8000000000000007FFFFFFFFFFC
FFFFFFFFFFF8000000000000007FFFFFFFFFFC
FFFFFFFFFFF8000000000000007FFFFFFFFFFC
FFFFFFFFFFF8000000000000007FFFFFFFFFFC
FFFFFFFFFFFC000000000000007FFFFFFFFFFC
FFFFFFFFFFFC00000000000000FFFFFFFFFFFC
FFFFFFFFFFFC00000000000000FFFFFFFFFFFC
FFFFFFFFFFFC00000000000000FFFFFFFFFFFC
7FFFFFFFFFFE00000000000000FFFFFFFFFFF8
7FFFFFFFFFFE00000000000001FFFFFFFFFFF8
7FFFFFFFFFFE00000000000001FFFFFFFFFFF8
7FFFFFFFFFFF00000000000001FFFFFFFFFFF8
7FFFFFFFFFFF00000000000003FFFFFFFFFFF8
7FFFFFFFFFFF80000000000003FFFFFFFFFFF8
7FFFFFFFFFFF80000000000007FFFFFFFFFFF8
7FFFFFFFFFFFC0000000000007FFFFFFFFFFF8
7FFFFFFFFFFFE000000000000FFFFFFFFFFFF8
7FFFFFFFFFFFF000000000001FFFFFFFFFFFF8
3FFFFFFFFFFFF800000000003FFFFFFFFFFFF0
3FFFFFFFFFFFFE0000000000FFFFFFFFFFFFF0
3FFFFFFFFFFFFF8000000001FFFFFFFFFFFFF0
3FFFFFFFFFFFFFE00000000FFFFFFFFFFFFFF0
3FFFFFFFFFFFFFFF000000FFFFFFFFFFFFFFF0
3FFFFFFFFFFFFFFFFFFFFFFFFFFFFFFFFFFFE0
1FFFFFFFFFFFFFFFFFFFFFFFFFFFFFFFFFFFE0
1FFFFFFFFFFFFFFFFFFFFFFFFFFFFFFFFFFFE0
1FFFFFFFFFFFFFFFFFFFFFFFFFFFFFFFFFFFE0
1FFFFFFFFFFFFFFFFFFFFFFFFFFFFFFFFFFFC0
0FFFFFFFFFFFFFFFFFFFFFFFFFFFFFFFFFFFC0
0FFFFFFFFFFFFFFFFFFFFFFFFFFFFFFFFFFFC0
0FFFFFFFFFFFFFFFFFFFFFFFFFFFFFFFFFFF80
07FFFFFFFFFFFFFFFFFFFFFFFFFFFFFFFFFF80
07FFFFFFFFFFFFFFFFFFFFFFFFFFFFFFFFFF00
03FFFFFFFFFFFFFFFFFFFFFFFFFFFFFFFFFF00
03FFFFFFFFFFFFFFFFFFFFFFFFFFFFFFFFFE00
01FFFFFFFFFFFFFFFFFFFFFFFFFFFFFFFFFE00
01FFFFFFFFFFFFFFFFFFFFFFFFFFFFFFFFFC00
00FFFFFFFFFFFFFFFFFFFFFFFFFFFFFFFFFC00
007FFFFFFFFFFFFFFFFFFFFFFFFFFFFFFFF800
007FFFFFFFFFFFFFFFFFFFFFFFFFFFFFFFF000
003FFFFFFFFFFFFFFFFFFFFFFFFFFFFFFFE000
001FFFFFFFFFFFFFFFFFFFFFFFFFFFFFFFC000
000FFFFFFFFFFFFFFFFFFFFFFFFFFFFFFF8000
0003FFFFFFFFFFFFFFFFFFFFFFFFFFFFFF0000
0001FFFFFFFFFFFFFFFFFFFFFFFFFFFFFE0000
0000FFFFFFFFFFFFFFFFFFFFFFFFFFFFF80000
00003FFFFFFFFFFFFFFFFFFFFFFFFFFFE00000
00000FFFFFFFFFFFFFFFFFFFFFFFFFFF800000
000001FFFFFFFFFFFFFFFFFFFFFFFFFE000000
0000007FFFFFFFFFFFFFFFFFFFFFFFF0000000
00000007FFFFFFFFFFFFFFFFFFFFFF00000000
000000003FFFFFFFFFFFFFFFFFFFF000000000
0000000000FFFFFFFFFFFFFFFFF80000000000
0000000000000FFFFFFFFFFF80000000000000
ENDCHAR
STARTCHAR 0039
ENCODING 57
SWIDTH 604 0
DWIDTH 189 0
BBX 145 242 13 0
BITMAP
00000000001FFFFFFFFFFF0000000000000000
00000000FFFFFFFFFFFFFFFFE0000000000000
0000003FFFFFFFFFFFFFFFFFFF000000000000
000003FFFFFFFFFFFFFFFFFFFFF80000000000
00001FFFFFFFFFFFFFFFFFFFFFFF0000000000
00007FFFFFFFFFFFFFFFFFFFFFFFE000000000
0001FFFFFFFFFFFFFFFFFFFFFFFFF800000000
0003FFFFFFFFFFFFFFFFFFFFFFFFFE00000000
000FFFFFFFFFFFFFFFFFFFFFFFFFFF80000000
001FFFFFFFFFFFFFFFFFFFFFFFFFFFE0000000
003FFFFFFFFFFFFFFFFFFFFFFFFFFFF0000000
007FFFFFFFFFFFFFFFFFFFFFFFFFFFFC000000
00FFFFFFFFFFFFFFFFFFFFFFFFFFFFFE000000
01FFFFFFFFFFFFFFFFFFFFFFFFFFFFFF000000
01FFFFFFFFFFFFFFFFFFFFFFFFFFFFFF800000
03FFFFFFFFFFFFFFFFFFFFFFFFFFFFFFC00000
07FFFFFFFFFFFFFFFFFFFFFFFFFFFFFFE00000
07FFFFFFFFFFFFFFFFFFFFFFFFFFFFFFE00000
0FFFFFFFFFFFFFFFFFFFFFFFFFFFFFFFF00000
0FFFFFFFFFFFFFFFFFFFFFFFFFFFFFFFF80000
0FFFFFFFFFFFFFFFFFFFFFFFFFFFFFFFF80000
1FFFFFFFFFFFFFFFFFFFFFFFFFFFFFFFFC0000
1FFFFFFFFFFFFFFFFFFFFFFFFFFFFFFFFE0000
1FFFFFFFFFFFFFFFFFFFFFFFFFFFFFFFFE0000
3FFFFFFFFFFFFFFFFFFFFFFFFFFFFFFFFF0000
3FFFFFFFFFFFFFFFFFFFFFFFFFFFFFFFFF0000
3FFFFFFFFFFFFFFFFFFFFFFFFFFFFFFFFF8000
3FFFFFFFFFFFFFFFFFFFFFFFFFFFFFFFFF8000
7FFFFFFFFFFFFFFFFFFFFFFFFFFFFFFFFF8000
7FFFFFFFFFFFFFFFFFFFFFFFFFFFFFFFFFC000
7FFFFFFFFFFFFFFFFFFFFFFFFFFFFFFFFFC000
7FFFFFFFFFFFFFFFFFFFFFFFFFFFFFFFFFE000
7FFFFFFFFFFFFFFFFFFFFFFFFFFFFFFFFFE000
7FFFFFFFFFFFFF80000003FFFFFFFFFFFFE000
7FFFFFFFFFFFF8000000001FFFFFFFFFFFF000
FFFFFFFFFFFFC00000000003FFFFFFFFFFF000
FFFFFFFFFFFF000000000000FFFFFFFFFFF000
FFFFFFFFFFFE0000000000007FFFFFFFFFF000
FFFFFFFFFFFC0000000000003FFFFFFFFFF800
FFFFFFFFFFF80000000000001FFFFFFFFFF800
FFFFFFFFFFF80000000000000FFFFFFFFFF800
FFFFFFFFFFF00000000000000FFFFFFFFFF800
FFFFFFFFFFF000000000000007FFFFFFFFF800
FFFFFFFFFFE000000000000007FFFFFFFFFC00
FFFFFFFFFFE000000000000003FFFFFFFFFC00
FFFFFFFFFFE000000000000003FFFFFFFFFC00
FFFFFFFFFFE000000000000003FFFFFFFFFC00
FFFFFFFFFFC000000000000003FFFFFFFFFC00
FFFFFFFFFFC000000000000001FFFFFFFFFC00
FFFFFFFFFFC000000000000001FFFFFFFFFE00
FFFFFFFFFFC000000000000001FFFFFFFFFE00
FFFFFFFFFFC000000000000001FFFFFFFFFE00
FFFFFFFFFFC000000000000001FFFFFFFFFE00
FFFFFFFFFFC000000000000001FFFFFFFFFE00
FFFFFFFFFFC000000000000001FFFFFFFFFE00
FFFFFFFFFFC000000000000001FFFFFFFFFE00
FFFFFFFFFFC000000000000001FFFFFFFFFE00
FFFFFFFFFFC000000000000001FFFFFFFFFF00
FFFFFFFFFFC000000000000001FFFFFFFFFF00
FFFFFFFFFFC000000000000001FFFFFFFFFF00
FFFFFFFFFFC000000000000001FFFFFFFFFF00
FFFFFFFFFFC000000000000001FFFFFFFFFF00
FFFFFFFFFFC000000000000001FFFFFFFFFF00
FFFFFFFFFFC000000000000001FFFFFFFFFF00
FFFFFFFFFFC000000000000001FFFFFFFFFF00
FFFFFFFFFFC000000000000001FFFFFFFFFF00
FFFFFFFFFFC000000000000001FFFFFFFFFF00
FFFFFFFFFFC000000000000001FFFFFFFFFF00
FFFFFFFFFFC000000000000001FFFFFFFFFF00
FFFFFFFFFFC000000000000001FFFFFFFFFF00
FFFFFFFFFFC000000000000001FFFFFFFFFF00
FFFFFFFFFFC000000000000001FFFFFFFFFF00
FFFFFFFFFFC000000000000001FFFFFFFFFF80
FFFFFFFFFFC000000000000001FFFFFFFFFF80
FFFFFFFFFFC000000000000001FFFFFFFFFF80
FFFFFFFFFFC000000000000001FFFFFFFFFF80
FFFFFFFFFFC000000000000001FFFFFFFFFF80
FFFFFFFFFFC000000000000001FFFFFFFFFF80
FFFFFFFFFFC000000000000001FFFFFFFFFF80
FFFFFFFFFFC000000000000001FFFFFFFFFF80
FFFFFFFFFFC000000000000001FFFFFFFFFF80
FFFFFFFFFFC000000000000001FFFFFFFFFF80
FFFFFFFFFFC000000000000001FFFFFFFFFF80
FFFFFFFFFFC000000000000001FFFFFFFFFF80
FFFFFFFFFFC000000000000001FFFFFFFFFF80
FFFFFFFFFFC000000000000001FFFFFFFFFF80
FFFFFFFFFFC000000000000001FFFFFFFFFF80
FFFFFFFFFFC000000000000001FFFFFFFFFF80
FFFFFFFFFFC000000000000001FFFFFFFFFF80
FFFFFFFFFFC000000000000001FFFFFFFFFF80
FFFFFFFFFFC000000000000001FFFFFFFFFF80
FFFFFFFFFFC000000000000001FFFFFFFFFF80
FFFFFFFFFFC000000000000001FFFFFFFFFF80
FFFFFFFFFFE000000000000001FFFFFFFFFF80
FFFFFFFFFFE000000000000003FFFFFFFFFF80
FFFFFFFFFFE000000000000003FFFFFFFFFF80
FFFFFFFFFFE000000000000003FFFFFFFFFF80
FFFFFFFFFFE000000000000003FFFFFFFFFF80
FFFFFFFFFFF000000000000007FFFFFFFFFF80
FFFFFFFFFFF000000000000007FFFFFFFFFF80
FFFFFFFFFFF800000000000007FFFFFFFFFF80
FFFFFFFFFFF80000000000000FFFFFFFFFFF80
FFFFFFFFFFFC0000000000000FFFFFFFFFFF80
FFFFFFFFFFFC0000000000001FFFFFFFFFFF80
7FFFFFFFFFFE0000000000003FFFFFFFFFFF80
7FFFFFFFFFFF0000000000003FFFFFFFFFFF80
7FFFFFFFFFFF0000000000007FFFFFFFFFFF80
7FFFFFFFFFFF800000000000FFFFFFFFFFFF80
7FFFFFFFFFFFC00000000001FFFFFFFFFFFF80
7FFFFFFFFFFFF00000000003FFFFFFFFFFFF80
7FFFFFFFFFFFF8000000000FFFFFFFFFFFFF80
3FFFFFFFFFFFFE000000003FFFFFFFFFFFFF80
3FFFFFFFFFFFFF80000000FFFFFFFFFFFFFF80
3FFFFFFFFFFFFFF0000007FFFFFFFFFFFFFF80
3FFFFFFFFFFFFFFF8000FFFFFFFFFFFFFFFF80
3FFFFFFFFFFFFFFFFFFFFFFFFFFFFFFFFFFF80
1FFFFFFFFFFFFFFFFFFFFFFFFFFFFFFFFFFF80
1FFFFFFFFFFFFFFFFFFFFFFFFFFFFFFFFFFF80
1FFFFFFFFFFFFFFFFFFFFFFFFFFFFFFFFFFF80
0FFFFFFFFFFFFFFFFFFFFFFFFFFFFFFFFFFF80
0FFFFFFFFFFFFFFFFFFFFFFFFFFFFFFFFFFF80
0FFFFFFFFFFFFFFFFFFFFFFFFFFFFFFFFFFF80
07FFFFFFFFFFFFFFFFFFFFFFFFFFFFFFFFFF80
07FFFFFFFFFFFFFFFFFFFFFFFFFFFFFFFFFF80
03FFFFFFFFFFFFFFFFFFFFFFFFFFFFFFFFFF80
03FFFFFFFFFFFFFFFFFFFFFFFFFFFFFFFFFF80
01FFFFFFFFFFFFFFFFFFFFFFFFFFFFFFFFFF80
01FFFFFFFFFFFFFFFFFFFFFFFFFFFFFFFFFF80
00FFFFFFFFFFFFFFFFFFFFFFFFFFFFFFFFFF80
00FFFFFFFFFFFFFFFFFFFFFFFFFFFFFFFFFF80
007FFFFFFFFFFFFFFFFFFFFFFFFFFFFFFFFF80
003FFFFFFFFFFFFFFFFFFFFFFFFFFFFFFFFF80
001FFFFFFFFFFFFFFFFFFFFFFDFFFFFFFFFF80
001FFFFFFFFFFFFFFFFFFFFFF9FFFFFFFFFF80
000FFFFFFFFFFFFFFFFFFFFFE1FFFFFFFFFF80
0007FFFFFFFFFFFFFFFFFFFFC1FFFFFFFFFF80
0003FFFFFFFFFFFFFFFFFFFF81FFFFFFFFFF80
0000FFFFFFFFFFFFFFFFFFFF01FFFFFFFFFF80
00007FFFFFFFFFFFFFFFFFFC01FFFFFFFFFF80
00003FFFFFFFFFFFFFFFFFF801FFFFFFFFFF80
00000FFFFFFFFFFFFFFFFFE001FFFFFFFFFF80
000003FFFFFFFFFFFFFFFF8001FFFFFFFFFF80
000000FFFFFFFFFFFFFFFE0001FFFFFFFFFF80
0000003FFFFFFFFFFFFFF80001FFFFFFFFFF80
00000007FFFFFFFFFFFFE00001FFFFFFFFFF80
000000007FFFFFFFFFFE000001FFFFFFFFFF80
0000000003FFFFFFFFE0000001FFFFFFFFFF80
000000000007FFFFF000000001FFFFFFFFFF80
00000000000000000000000001FFFFFFFFFF80
00000000000000000000000001FFFFFFFFFF80
00000000000000000000000001FFFFFFFFFF80
00000000000000000000000001FFFFFFFFFF80
00000000000000000000000001FFFFFFFFFF80
00000000000000000000000001FFFFFFFFFF80
00000000000000000000000001FFFFFFFFFF80
00000000000000000000000001FFFFFFFFFF80
00000000000000000000000001FFFFFFFFFF80
00000000000000000000000001FFFFFFFFFF80
00000000000000000000000001FFFFFFFFFF80
00000000000000000000000001FFFFFFFFFF80
00000000000000000000000001FFFFFFFFFF80
00000000000000000000000001FFFFFFFFFF80
00000000000000000000000001FFFFFFFFFF80
00000000000000000000000001FFFFFFFFFF80
00000000000000000000000001FFFFFFFFFF80
00000000000000000000000001FFFFFFFFFF80
00000000000000000000000001FFFFFFFFFF80
00000000000000000000000001FFFFFFFFFF80
00000000000000000000000001FFFFFFFFFF80
00000000000000000000000001FFFFFFFFFF80
00000000000000000000000001FFFFFFFFFF80
00000000000000000000000001FFFFFFFFFF80
00000000000000000000000001FFFFFFFFFF80
00000000000000000000000003FFFFFFFFFF80
00000000000000000000000003FFFFFFFFFF80
00000000000000000000000003FFFFFFFFFF80
00000000000000000000000003FFFFFFFFFF00
00000000000000000000000003FFFFFFFFFF00
00000000000000000000000003FFFFFFFFFF00
00000000000000000000000003FFFFFFFFFF00
00000000000000000000000003FFFFFFFFFF00
00000000000000000000000003FFFFFFFFFF00
00000000000000000000000003FFFFFFFFFF00
00000000000000000000000003FFFFFFFFFF00
00000000000000000000000007FFFFFFFFFF00
00000000000000000000000007FFFFFFFFFF00
00000000000000000000000007FFFFFFFFFF00
00000000000000000000000007FFFFFFFFFF00
00000000000000000000000007FFFFFFFFFF00
00000000000000000000000007FFFFFFFFFF00
0000000000000000000000000FFFFFFFFFFF00
0000000000000000000000000FFFFFFFFFFF00
0000000000000000000000000FFFFFFFFFFE00
0000000000000000000000001FFFFFFFFFFE00
0000000000000000000000001FFFFFFFFFFE00
0000000000000000000000001FFFFFFFFFFE00
0000000000000000000000003FFFFFFFFFFE00
0000000000000000000000003FFFFFFFFFFE00
0000000000000000000000007FFFFFFFFFFE00
0000000000000000000000007FFFFFFFFFFE00
000000000000000000000000FFFFFFFFFFFE00
000000000000000000000001FFFFFFFFFFFC00
000000000000000000000003FFFFFFFFFFFC00
00000000000000000000000FFFFFFFFFFFFC00
00000000000000000000003FFFFFFFFFFFFC00
0000000000000000000001FFFFFFFFFFFFFC00
00003FFFFFFFFFFFFFFFFFFFFFFFFFFFFFFC00
00003FFFFFFFFFFFFFFFFFFFFFFFFFFFFFFC00
00003FFFFFFFFFFFFFFFFFFFFFFFFFFFFFF800
00003FFFFFFFFFFFFFFFFFFFFFFFFFFFFFF800
00003FFFFFFFFFFFFFFFFFFFFFFFFFFFFFF800
00003FFFFFFFFFFFFFFFFFFFFFFFFFFFFFF800
00003FFFFFFFFFFFFFFFFFFFFFFFFFFFFFF000
00003FFFFFFFFFFFFFFFFFFFFFFFFFFFFFF000
00003FFFFFFFFFFFFFFFFFFFFFFFFFFFFFF000
00003FFFFFFFFFFFFFFFFFFFFFFFFFFFFFF000
00003FFFFFFFFFFFFFFFFFFFFFFFFFFFFFE000
00003FFFFFFFFFFFFFFFFFFFFFFFFFFFFFE000
00003FFFFFFFFFFFFFFFFFFFFFFFFFFFFFE000
00003FFFFFFFFFFFFFFFFFFFFFFFFFFFFFE000
00003FFFFFFFFFFFFFFFFFFFFFFFFFFFFFC000
00003FFFFFFFFFFFFFFFFFFFFFFFFFFFFFC000
00003FFFFFFFFFFFFFFFFFFFFFFFFFFFFF8000
00003FFFFFFFFFFFFFFFFFFFFFFFFFFFFF8000
00003FFFFFFFFFFFFFFFFFFFFFFFFFFFFF8000
00003FFFFFFFFFFFFFFFFFFFFFFFFFFFFF0000
00003FFFFFFFFFFFFFFFFFFFFFFFFFFFFF0000
00003FFFFFFFFFFFFFFFFFFFFFFFFFFFFE0000
00003FFFFFFFFFFFFFFFFFFFFFFFFFFFFC0000
00003FFFFFFFFFFFFFFFFFFFFFFFFFFFFC0000
00003FFFFFFFFFFFFFFFFFFFFFFFFFFFF80000
00003FFFFFFFFFFFFFFFFFFFFFFFFFFFF00000
00003FFFFFFFFFFFFFFFFFFFFFFFFFFFE00000
00003FFFFFFFFFFFFFFFFFFFFFFFFFFFE00000
00003FFFFFFFFFFFFFFFFFFFFFFFFFFF800000
00003FFFFFFFFFFFFFFFFFFFFFFFFFFF000000
00003FFFFFFFFFFFFFFFFFFFFFFFFFFE000000
00003FFFFFFFFFFFFFFFFFFFFFFFFFF8000000
00003FFFFFFFFFFFFFFFFFFFFFFFFFE0000000
00003FFFFFFFFFFFFFFFFFFFFFFFFF80000000
00003FFFFFFFFFFFFFFFFFFFFFFFF800000000
00003FFFFFFFFFFFFFFFFFFFFFFF0000000000
ENDCHAR
STARTCHAR 003A
ENCODING 58
SWIDTH 294 0
DWIDTH 92 0
BBX 51 179 8 0
BITMAP
0001FFFFFC0000
007FFFFFFFE000
01FFFFFFFFF800
07FFFFFFFFFC00
0FFFFFFFFFFF00
1FFFFFFFFFFF00
1FFFFFFFFFFF80
3FFFFFFFFFFF80
3FFFFFFFFFFFC0
7FFFFFFFFFFFC0
7FFFFFFFFFFFC0
7FFFFFFFFFFFC0
7FFFFFFFFFFFE0
7FFFFFFFFFFFE0
FFFFFFFFFFFFE0
FFFFFFFFFFFFE0
FFFFFFFFFFFFE0
FFFFFFFFFFFFE0
FFFFFFFFFFFFE0
FFFFFFFFFFFFE0
FFFFFFFFFFFFE0
FFFFFFFFFFFFE0
FFFFFFFFFFFFE0
FFFFFFFFFFFFE0
FFFFFFFFFFFFE0
FFFFFFFFFFFFE0
FFFFFFFFFFFFE0
FFFFFFFFFFFFE0
FFFFFFFFFFFFE0
FFFFFFFFFFFFE0
FFFFFFFFFFFFE0
FFFFFFFFFFFFE0
7FFFFFFFFFFFE0
7FFFFFFFFFFFC0
7FFFFFFFFFFFC0
7FFFFFFFFFFFC0
7FFFFFFFFFFFC0
3FFFFFFFFFFF80
3FFFFFFFFFFF80
1FFFFFFFFFFF00
0FFFFFFFFFFE00
07FFFFFFFFFC00
03FFFFFFFFF800
00FFFFFFFFC000
0007FFFFF80000
00000000000000
00000000000000
00000000000000
00000000000000
00000000000000
00000000000000
00000000000000
00000000000000
00000000000000
00000000000000
00000000000000
00000000000000
00000000000000
00000000000000
00000000000000
00000000000000
00000000000000
00000000000000
00000000000000
00000000000000
00000000000000
00000000000000
00000000000000
00000000000000
00000000000000
00000000000000
00000000000000
00000000000000
00000000000000
00000000000000
00000000000000
00000000000000
00000000000000
00000000000000
00000000000000
00000000000000
00000000000000
00000000000000
00000000000000
00000000000000
00000000000000
00000000000000
00000000000000
00000000000000
00000000000000
00000000000000
00000000000000
00000000000000
00000000000000
00000000000000
00000000000000
00000000000000
00000000000000
00000000000000
00000000000000
00000000000000
00000000000000
00000000000000
00000000000000
00000000000000
00000000000000
00000000000000
00000000000000
00000000000000
00000000000000
00000000000000
00000000000000
00000000000000
00000000000000
00000000000000
00000000000000
00000000000000
00000000000000
00000000000000
00000000000000
00000000000000
00000000000000
00000000000000
00000000000000
00000000000000
00000000000000
00000000000000
00000000000000
00000000000000
00000000000000
00000000000000
00000000000000
00000000000000
00000000000000
0003FFFFFC0000
007FFFFFFFE000
01FFFFFFFFF800
07FFFFFFFFFE00
0FFFFFFFFFFF00
1FFFFFFFFFFF00
1FFFFFFFFFFF80
3FFFFFFFFFFF80
3FFFFFFFFFFFC0
7FFFFFFFFFFFC0
7FFFFFFFFFFFC0
7FFFFFFFFFFFC0
7FFFFFFFFFFFE0
7FFFFFFFFFFFE0
FFFFFFFFFFFFE0
FFFFFFFFFFFFE0
FFFFFFFFFFFFE0
FFFFFFFFFFFFE0
FFFFFFFFFFFFE0
FFFFFFFFFFFFE0
FFFFFFFFFFFFE0
FFFFFFFFFFFFE0
FFFFFFFFFFFFE0
FFFFFFFFFFFFE0
FFFFFFFFFFFFE0
FFFFFFFFFFFFE0
FFFFFFFFFFFFE0
FFFFFFFFFFFFE0
FFFFFFFFFFFFE0
FFFFFFFFFFFFE0
FFFFFFFFFFFFE0
FFFFFFFFFFFFE0
7FFFFFFFFFFFE0
7FFFFFFFFFFFC0
7FFFFFFFFFFFC0
7FFFFFFFFFFFC0
7FFFFFFFFFFFC0
3FFFFFFFFFFF80
3FFFFFFFFFFF80
1FFFFFFFFFFF00
0FFFFFFFFFFE00
07FFFFFFFFFC00
03FFFFFFFFF800
007FFFFFFFC000
0007FFFFF80000
ENDCHAR
STARTCHAR 003B
ENCODING 59
SWIDTH 294 0
DWIDTH 92 0
BBX 51 205 19 -27
BITMAP
0001FFFFFC0000
007FFFFFFFE000
01FFFFFFFFF800
07FFFFFFFFFC00
0FFFFFFFFFFF00
1FFFFFFFFFFF00
1FFFFFFFFFFF80
3FFFFFFFFFFF80
3FFFFFFFFFFFC0
7FFFFFFFFFFFC0
7FFFFFFFFFFFC0
7FFFFFFFFFFFC0
7FFFFFFFFFFFE0
7FFFFFFFFFFFE0
FFFFFFFFFFFFE0
FFFFFFFFFFFFE0
FFFFFFFFFFFFE0
FFFFFFFFFFFFE0
FFFFFFFFFFFFE0
FFFFFFFFFFFFE0
FFFFFFFFFFFFE0
FFFFFFFFFFFFE0
FFFFFFFFFFFFE0
FFFFFFFFFFFFE0
FFFFFFFFFFFFE0
FFFFFFFFFFFFE0
FFFFFFFFFFFFE0
FFFFFFFFFFFFE0
FFFFFFFFFFFFE0
FFFFFFFFFFFFE0
FFFFFFFFFFFFE0
FFFFFFFFFFFFE0
7FFFFFFFFFFFE0
7FFFFFFFFFFFC0
7FFFFFFFFFFFC0
7FFFFFFFFFFFC0
7FFFFFFFFFFFC0
3FFFFFFFFFFF80
3FFFFFFFFFFF80
1FFFFFFFFFFF00
0FFFFFFFFFFE00
07FFFFFFFFFC00
03FFFFFFFFF800
00FFFFFFFFC000
0007FFFFF80000
00000000000000
00000000000000
00000000000000
00000000000000
00000000000000
00000000000000
00000000000000
00000000000000
00000000000000
00000000000000
00000000000000
00000000000000
00000000000000
00000000000000
00000000000000
00000000000000
00000000000000
00000000000000
00000000000000
00000000000000
00000000000000
00000000000000
00000000000000
00000000000000
00000000000000
00000000000000
00000000000000
00000000000000
00000000000000
00000000000000
00000000000000
00000000000000
00000000000000
00000000000000
00000000000000
00000000000000
00000000000000
00000000000000
00000000000000
00000000000000
00000000000000
00000000000000
00000000000000
00000000000000
00000000000000
00000000000000
00000000000000
00000000000000
00000000000000
00000000000000
00000000000000
00000000000000
00000000000000
00000000000000
00000000000000
00000000000000
00000000000000
00000000000000
00000000000000
00000000000000
00000000000000
00000000000000
00000000000000
00000000000000
00000000000000
00000000000000
00000000000000
00000000000000
00000000000000
00000000000000
00000000000000
00000000000000
00000000000000
00000000000000
00000000000000
00000000000000
00000000000000
00000000000000
00000000000000
00000000000000
00000000000000
00000000000000
00000000000000
00000000000000
00000000000000
00000000000000
00000000000000
00000000000000
00000000000000
0003FFFFFC0000
007FFFFFFFE000
01FFFFFFFFF800
07FFFFFFFFFE00
0FFFFFFFFFFF00
1FFFFFFFFFFF00
1FFFFFFFFFFF80
3FFFFFFFFFFF80
3FFFFFFFFFFFC0
7FFFFFFFFFFFC0
7FFFFFFFFFFFC0
7FFFFFFFFFFFC0
7FFFFFFFFFFFE0
7FFFFFFFFFFFE0
FFFFFFFFFFFFE0
FFFFFFFFFFFFE0
FFFFFFFFFFFFE0
FFFFFFFFFFFFE0
FFFFFFFFFFFFE0
FFFFFFFFFFFFE0
FFFFFFFFFFFFE0
FFFFFFFFFFFFE0
FFFFFFFFFFFFE0
FFFFFFFFFFFFE0
FFFFFFFFFFFFE0
FFFFFFFFFFFFE0
FFFFFFFFFFFFE0
FFFFFFFFFFFFE0
FFFFFFFFFFFFE0
FFFFFFFFFFFFE0
FFFFFFFFFFFFE0
FFFFFFFFFFFFE0
7FFFFFFFFFFFC0
7FFFFFFFFFFFC0
7FFFFFFFFFFFC0
7FFFFFFFFFFFC0
7FFFFFFFFFFFC0
3FFFFFFFFFFFC0
3FFFFFFFFFFF80
1FFFFFFFFFFF80
0FFFFFFFFFFF80
07FFFFFFFFFF00
03FFFFFFFFFF00
007FFFFFFFFF00
0007FFFFFFFE00
0000007FFFFE00
000000FFFFFE00
000001FFFFFC00
000007FFFFFC00
00000FFFFFF800
00003FFFFFF800
0000FFFFFFF000
0003FFFFFFE000
001FFFFFFFE000
03FFFFFFFFC000
FFFFFFFFFF8000
FFFFFFFFFF0000
FFFFFFFFFE0000
FFFFFFFFFC0000
FFFFFFFFF80000
FFFFFFFFF00000
FFFFFFFFE00000
FFFFFFFF800000
FFFFFFFF000000
FFFFFFFC000000
FFFFFFF0000000
FFFFFFC0000000
FFFFFF00000000
FFFFF800000000
FFFF8000000000
FFE00000000000
ENDCHAR
STARTCHAR 003C
ENCODING 60
SWIDTH 233 0
DWIDTH 73 0
BBX 54 113 9 26
BITMAP
00000003FFFFFC
00000007FFFFF8
00000007FFFFF8
0000000FFFFFF0
0000001FFFFFF0
0000001FFFFFE0
0000003FFFFFE0
0000003FFFFFC0
0000007FFFFFC0
0000007FFFFF80
000000FFFFFF00
000000FFFFFF00
000001FFFFFE00
000003FFFFFE00
000003FFFFFC00
000007FFFFFC00
000007FFFFF800
00000FFFFFF800
00000FFFFFF000
00001FFFFFF000
00003FFFFFE000
00003FFFFFE000
00007FFFFFC000
00007FFFFFC000
0000FFFFFF8000
0000FFFFFF8000
0001FFFFFF0000
0001FFFFFF0000
0003FFFFFE0000
0007FFFFFE0000
0007FFFFFC0000
000FFFFFFC0000
000FFFFFF80000
001FFFFFF00000
001FFFFFF00000
003FFFFFE00000
007FFFFFE00000
007FFFFFC00000
00FFFFFFC00000
00FFFFFF800000
01FFFFFF800000
01FFFFFF000000
03FFFFFF000000
03FFFFFE000000
07FFFFFE000000
0FFFFFFC000000
0FFFFFFC000000
1FFFFFF8000000
1FFFFFF8000000
3FFFFFF0000000
3FFFFFF0000000
7FFFFFE0000000
FFFFFFE0000000
FFFFFFC0000000
7FFFFFC0000000
7FFFFFC0000000
3FFFFFE0000000
3FFFFFE0000000
1FFFFFF0000000
1FFFFFF0000000
0FFFFFF8000000
0FFFFFF8000000
07FFFFFC000000
07FFFFFC000000
03FFFFFE000000
03FFFFFE000000
01FFFFFF000000
01FFFFFF000000
00FFFFFF800000
00FFFFFF800000
007FFFFF800000
007FFFFFC00000
003FFFFFC00000
003FFFFFE00000
001FFFFFE00000
001FFFFFF00000
000FFFFFF00000
000FFFFFF80000
0007FFFFF80000
0007FFFFFC0000
0003FFFFFC0000
0003FFFFFE0000
0001FFFFFE0000
0001FFFFFF0000
0000FFFFFF0000
0000FFFFFF8000
00007FFFFF8000
00007FFFFFC000
00003FFFFFC000
00003FFFFFE000
00001FFFFFE000
00001FFFFFF000
00000FFFFFF000
00000FFFFFF000
000007FFFFF800
000007FFFFF800
000003FFFFFC00
000003FFFFFC00
000001FFFFFE00
000001FFFFFE00
000000FFFFFF00
000000FFFFFF00
0000007FFFFF80
0000007FFFFF80
0000003FFFFFC0
0000003FFFFFC0
0000001FFFFFE0
0000001FFFFFE0
0000000FFFFFF0
0000000FFFFFF0
00000007FFFFF8
00000007FFFFF8
00000003FFFFFC
ENDCHAR
STARTCHAR 003D
ENCODING 61
SWIDTH 604 0
DWIDTH 189 0
BBX 161 123 13 25
BITMAP
0003FFFFFFFFFFFFFFFFFFFFFFFFFFFFFFFFF00000
007FFFFFFFFFFFFFFFFFFFFFFFFFFFFFFFFFFF8000
03FFFFFFFFFFFFFFFFFFFFFFFFFFFFFFFFFFFFE000
07FFFFFFFFFFFFFFFFFFFFFFFFFFFFFFFFFFFFF000
0FFFFFFFFFFFFFFFFFFFFFFFFFFFFFFFFFFFFFF800
1FFFFFFFFFFFFFFFFFFFFFFFFFFFFFFFFFFFFFFC00
3FFFFFFFFFFFFFFFFFFFFFFFFFFFFFFFFFFFFFFE00
3FFFFFFFFFFFFFFFFFFFFFFFFFFFFFFFFFFFFFFE00
7FFFFFFFFFFFFFFFFFFFFFFFFFFFFFFFFFFFFFFF00
7FFFFFFFFFFFFFFFFFFFFFFFFFFFFFFFFFFFFFFF00
7FFFFFFFFFFFFFFFFFFFFFFFFFFFFFFFFFFFFFFF00
FFFFFFFFFFFFFFFFFFFFFFFFFFFFFFFFFFFFFFFF00
FFFFFFFFFFFFFFFFFFFFFFFFFFFFFFFFFFFFFFFF00
FFFFFFFFFFFFFFFFFFFFFFFFFFFFFFFFFFFFFFFF80
FFFFFFFFFFFFFFFFFFFFFFFFFFFFFFFFFFFFFFFF80
FFFFFFFFFFFFFFFFFFFFFFFFFFFFFFFFFFFFFFFF80
FFFFFFFFFFFFFFFFFFFFFFFFFFFFFFFFFFFFFFFF80
FFFFFFFFFFFFFFFFFFFFFFFFFFFFFFFFFFFFFFFF80
FFFFFFFFFFFFFFFFFFFFFFFFFFFFFFFFFFFFFFFF80
FFFFFFFFFFFFFFFFFFFFFFFFFFFFFFFFFFFFFFFF80
FFFFFFFFFFFFFFFFFFFFFFFFFFFFFFFFFFFFFFFF80
FFFFFFFFFFFFFFFFFFFFFFFFFFFFFFFFFFFFFFFF80
FFFFFFFFFFFFFFFFFFFFFFFFFFFFFFFFFFFFFFFF80
FFFFFFFFFFFFFFFFFFFFFFFFFFFFFFFFFFFFFFFF80
FFFFFFFFFFFFFFFFFFFFFFFFFFFFFFFFFFFFFFFF80
FFFFFFFFFFFFFFFFFFFFFFFFFFFFFFFFFFFFFFFF80
FFFFFFFFFFFFFFFFFFFFFFFFFFFFFFFFFFFFFFFF80
FFFFFFFFFFFFFFFFFFFFFFFFFFFFFFFFFFFFFFFF80
FFFFFFFFFFFFFFFFFFFFFFFFFFFFFFFFFFFFFFFF80
FFFFFFFFFFFFFFFFFFFFFFFFFFFFFFFFFFFFFFFF80
FFFFFFFFFFFFFFFFFFFFFFFFFFFFFFFFFFFFFFFF80
FFFFFFFFFFFFFFFFFFFFFFFFFFFFFFFFFFFFFFFF80
FFFFFFFFFFFFFFFFFFFFFFFFFFFFFFFFFFFFFFFF00
FFFFFFFFFFFFFFFFFFFFFFFFFFFFFFFFFFFFFFFF00
FFFFFFFFFFFFFFFFFFFFFFFFFFFFFFFFFFFFFFFF00
7FFFFFFFFFFFFFFFFFFFFFFFFFFFFFFFFFFFFFFF00
7FFFFFFFFFFFFFFFFFFFFFFFFFFFFFFFFFFFFFFF00
7FFFFFFFFFFFFFFFFFFFFFFFFFFFFFFFFFFFFFFE00
3FFFFFFFFFFFFFFFFFFFFFFFFFFFFFFFFFFFFFFE00
3FFFFFFFFFFFFFFFFFFFFFFFFFFFFFFFFFFFFFFC00
1FFFFFFFFFFFFFFFFFFFFFFFFFFFFFFFFFFFFFF800
0FFFFFFFFFFFFFFFFFFFFFFFFFFFFFFFFFFFFFF000
03FFFFFFFFFFFFFFFFFFFFFFFFFFFFFFFFFFFFE000
00FFFFFFFFFFFFFFFFFFFFFFFFFFFFFFFFFFFF0000
0007FFFFFFFFFFFFFFFFFFFFFFFFFFFFFFFFE00000
000000000000000000000000000000000000000000
000000000000000000000000000000000000000000
000000000000000000000000000000000000000000
000000000000000000000000000000000000000000
000000000000000000000000000000000000000000
000000000000000000000000000000000000000000
000000000000000000000000000000000000000000
000000000000000000000000000000000000000000
000000000000000000000000000000000000000000
000000000000000000000000000000000000000000
000000000000000000000000000000000000000000
000000000000000000000000000000000000000000
000000000000000000000000000000000000000000
000000000000000000000000000000000000000000
000000000000000000000000000000000000000000
000000000000000000000000000000000000000000
000000000000000000000000000000000000000000
000000000000000000000000000000000000000000
000000000000000000000000000000000000000000
000000000000000000000000000000000000000000
000000000000000000000000000000000000000000
000000000000000000000000000000000000000000
000000000000000000000000000000000000000000
000000000000000000000000000000000000000000
000000000000000000000000000000000000000000
000000000000000000000000000000000000000000
000000000000000000000000000000000000000000
000000000000000000000000000000000000000000
000000000000000000000000000000000000000000
000000000000000000000000000000000000000000
000000000000000000000000000000000000000000
000000000000000000000000000000000000000000
000000000000000000000000000000000000000000
0003FFFFFFFFFFFFFFFFFFFFFFFFFFFFFFFFF00000
007FFFFFFFFFFFFFFFFFFFFFFFFFFFFFFFFFFF8000
03FFFFFFFFFFFFFFFFFFFFFFFFFFFFFFFFFFFFE000
07FFFFFFFFFFFFFFFFFFFFFFFFFFFFFFFFFFFFF000
0FFFFFFFFFFFFFFFFFFFFFFFFFFFFFFFFFFFFFF800
1FFFFFFFFFFFFFFFFFFFFFFFFFFFFFFFFFFFFFFC00
3FFFFFFFFFFFFFFFFFFFFFFFFFFFFFFFFFFFFFFE00
3FFFFFFFFFFFFFFFFFFFFFFFFFFFFFFFFFFFFFFE00
7FFFFFFFFFFFFFFFFFFFFFFFFFFFFFFFFFFFFFFF00
7FFFFFFFFFFFFFFFFFFFFFFFFFFFFFFFFFFFFFFF00
7FFFFFFFFFFFFFFFFFFFFFFFFFFFFFFFFFFFFFFF00
FFFFFFFFFFFFFFFFFFFFFFFFFFFFFFFFFFFFFFFF00
FFFFFFFFFFFFFFFFFFFFFFFFFFFFFFFFFFFFFFFF00
FFFFFFFFFFFFFFFFFFFFFFFFFFFFFFFFFFFFFFFF80
FFFFFFFFFFFFFFFFFFFFFFFFFFFFFFFFFFFFFFFF80
FFFFFFFFFFFFFFFFFFFFFFFFFFFFFFFFFFFFFFFF80
FFFFFFFFFFFFFFFFFFFFFFFFFFFFFFFFFFFFFFFF80
FFFFFFFFFFFFFFFFFFFFFFFFFFFFFFFFFFFFFFFF80
FFFFFFFFFFFFFFFFFFFFFFFFFFFFFFFFFFFFFFFF80
FFFFFFFFFFFFFFFFFFFFFFFFFFFFFFFFFFFFFFFF80
FFFFFFFFFFFFFFFFFFFFFFFFFFFFFFFFFFFFFFFF80
FFFFFFFFFFFFFFFFFFFFFFFFFFFFFFFFFFFFFFFF80
FFFFFFFFFFFFFFFFFFFFFFFFFFFFFFFFFFFFFFFF80
FFFFFFFFFFFFFFFFFFFFFFFFFFFFFFFFFFFFFFFF80
FFFFFFFFFFFFFFFFFFFFFFFFFFFFFFFFFFFFFFFF80
FFFFFFFFFFFFFFFFFFFFFFFFFFFFFFFFFFFFFFFF80
FFFFFFFFFFFFFFFFFFFFFFFFFFFFFFFFFFFFFFFF80
FFFFFFFFFFFFFFFFFFFFFFFFFFFFFFFFFFFFFFFF80
FFFFFFFFFFFFFFFFFFFFFFFFFFFFFFFFFFFFFFFF80
FFFFFFFFFFFFFFFFFFFFFFFFFFFFFFFFFFFFFFFF80
FFFFFFFFFFFFFFFFFFFFFFFFFFFFFFFFFFFFFFFF80
FFFFFFFFFFFFFFFFFFFFFFFFFFFFFFFFFFFFFFFF80
FFFFFFFFFFFFFFFFFFFFFFFFFFFFFFFFFFFFFFFF00
FFFFFFFFFFFFFFFFFFFFFFFFFFFFFFFFFFFFFFFF00
FFFFFFFFFFFFFFFFFFFFFFFFFFFFFFFFFFFFFFFF00
7FFFFFFFFFFFFFFFFFFFFFFFFFFFFFFFFFFFFFFF00
7FFFFFFFFFFFFFFFFFFFFFFFFFFFFFFFFFFFFFFF00
7FFFFFFFFFFFFFFFFFFFFFFFFFFFFFFFFFFFFFFE00
3FFFFFFFFFFFFFFFFFFFFFFFFFFFFFFFFFFFFFFE00
3FFFFFFFFFFFFFFFFFFFFFFFFFFFFFFFFFFFFFFC00
1FFFFFFFFFFFFFFFFFFFFFFFFFFFFFFFFFFFFFF800
0FFFFFFFFFFFFFFFFFFFFFFFFFFFFFFFFFFFFFF000
03FFFFFFFFFFFFFFFFFFFFFFFFFFFFFFFFFFFFE000
00FFFFFFFFFFFFFFFFFFFFFFFFFFFFFFFFFFFF0000
0007FFFFFFFFFFFFFFFFFFFFFFFFFFFFFFFFE00000
ENDCHAR
STARTCHAR 003E
ENCODING 62
SWIDTH 240 0
DWIDTH 75 0
BBX 53 113 9 26
BITMAP
FFFFFF00000000
7FFFFF80000000
7FFFFF80000000
3FFFFFC0000000
3FFFFFC0000000
3FFFFFE0000000
1FFFFFE0000000
1FFFFFF0000000
0FFFFFF0000000
0FFFFFF0000000
07FFFFF8000000
07FFFFF8000000
03FFFFFC000000
03FFFFFC000000
01FFFFFE000000
01FFFFFE000000
00FFFFFF000000
00FFFFFF000000
007FFFFF800000
007FFFFF800000
003FFFFFC00000
003FFFFFC00000
001FFFFFE00000
001FFFFFE00000
000FFFFFF00000
000FFFFFF00000
0007FFFFF80000
0007FFFFF80000
0007FFFFFC0000
0003FFFFFC0000
0003FFFFFE0000
0001FFFFFE0000
0001FFFFFF0000
0000FFFFFF0000
0000FFFFFF8000
00007FFFFF8000
00007FFFFFC000
00003FFFFFC000
00003FFFFFE000
00001FFFFFE000
00001FFFFFF000
00000FFFFFF000
00000FFFFFF800
000007FFFFF800
000007FFFFFC00
000003FFFFFC00
000003FFFFFE00
000001FFFFFE00
000001FFFFFF00
000000FFFFFF00
000000FFFFFF80
0000007FFFFF80
0000007FFFFFC0
0000007FFFFFC0
0000003FFFFFE0
0000003FFFFFE0
0000001FFFFFF0
0000001FFFFFF0
0000000FFFFFF8
0000000FFFFFF8
0000001FFFFFF8
0000001FFFFFF8
0000003FFFFFF0
0000003FFFFFF0
0000007FFFFFE0
0000007FFFFFE0
000000FFFFFFC0
000000FFFFFF80
000001FFFFFF80
000001FFFFFF00
000003FFFFFF00
000003FFFFFE00
000007FFFFFE00
000007FFFFFC00
00000FFFFFFC00
00001FFFFFF800
00001FFFFFF000
00003FFFFFF000
00003FFFFFE000
00007FFFFFE000
00007FFFFFC000
0000FFFFFFC000
0000FFFFFF8000
0001FFFFFF0000
0001FFFFFF0000
0003FFFFFE0000
0003FFFFFE0000
0007FFFFFC0000
0007FFFFFC0000
000FFFFFF80000
000FFFFFF80000
001FFFFFF00000
001FFFFFE00000
003FFFFFE00000
003FFFFFC00000
007FFFFFC00000
007FFFFF800000
00FFFFFF800000
00FFFFFF000000
01FFFFFE000000
03FFFFFE000000
03FFFFFC000000
07FFFFFC000000
07FFFFF8000000
0FFFFFF8000000
0FFFFFF0000000
1FFFFFF0000000
1FFFFFE0000000
3FFFFFC0000000
3FFFFFC0000000
7FFFFF80000000
7FFFFF80000000
FFFFFF00000000
ENDCHAR
STARTCHAR 003F
ENCODING 63
SWIDTH 604 0
DWIDTH 189 0
BBX 122 242 42 0
BITMAP
FFFFFFFFFFFFFFFFFE00000000000000
FFFFFFFFFFFFFFFFFFFF800000000000
FFFFFFFFFFFFFFFFFFFFFE0000000000
FFFFFFFFFFFFFFFFFFFFFFE000000000
FFFFFFFFFFFFFFFFFFFFFFFE00000000
FFFFFFFFFFFFFFFFFFFFFFFF80000000
FFFFFFFFFFFFFFFFFFFFFFFFF0000000
FFFFFFFFFFFFFFFFFFFFFFFFFC000000
FFFFFFFFFFFFFFFFFFFFFFFFFE000000
FFFFFFFFFFFFFFFFFFFFFFFFFF800000
FFFFFFFFFFFFFFFFFFFFFFFFFFC00000
FFFFFFFFFFFFFFFFFFFFFFFFFFE00000
FFFFFFFFFFFFFFFFFFFFFFFFFFF00000
FFFFFFFFFFFFFFFFFFFFFFFFFFFC0000
FFFFFFFFFFFFFFFFFFFFFFFFFFFC0000
FFFFFFFFFFFFFFFFFFFFFFFFFFFE0000
FFFFFFFFFFFFFFFFFFFFFFFFFFFF0000
FFFFFFFFFFFFFFFFFFFFFFFFFFFF8000
FFFFFFFFFFFFFFFFFFFFFFFFFFFF8000
FFFFFFFFFFFFFFFFFFFFFFFFFFFFC000
FFFFFFFFFFFFFFFFFFFFFFFFFFFFE000
FFFFFFFFFFFFFFFFFFFFFFFFFFFFE000
FFFFFFFFFFFFFFFFFFFFFFFFFFFFF000
FFFFFFFFFFFFFFFFFFFFFFFFFFFFF000
FFFFFFFFFFFFFFFFFFFFFFFFFFFFF000
FFFFFFFFFFFFFFFFFFFFFFFFFFFFF800
FFFFFFFFFFFFFFFFFFFFFFFFFFFFF800
FFFFFFFFFFFFFFFFFFFFFFFFFFFFFC00
FFFFFFFFFFFFFFFFFFFFFFFFFFFFFC00
FFFFFFFFFFFFFFFFFFFFFFFFFFFFFC00
FFFFFFFFFFFFFFFFFFFFFFFFFFFFFC00
FFFFFFFFFFFFFFFFFFFFFFFFFFFFFE00
FFFFFFFFFFFFFFFFFFFFFFFFFFFFFE00
FFFFFFFFFFFFFFFFFFFFFFFFFFFFFE00
FFFFFFFFFFFFFFFFFFFFFFFFFFFFFE00
FFFFFFFFFFFFFFFFFFFFFFFFFFFFFF00
00000000000000000FFFFFFFFFFFFF00
000000000000000001FFFFFFFFFFFF00
0000000000000000007FFFFFFFFFFF00
0000000000000000003FFFFFFFFFFF00
0000000000000000001FFFFFFFFFFF00
0000000000000000001FFFFFFFFFFF80
0000000000000000000FFFFFFFFFFF80
0000000000000000000FFFFFFFFFFF80
00000000000000000007FFFFFFFFFF80
00000000000000000007FFFFFFFFFF80
00000000000000000007FFFFFFFFFF80
00000000000000000003FFFFFFFFFF80
00000000000000000003FFFFFFFFFF80
00000000000000000003FFFFFFFFFF80
00000000000000000003FFFFFFFFFFC0
00000000000000000003FFFFFFFFFFC0
00000000000000000003FFFFFFFFFFC0
00000000000000000001FFFFFFFFFFC0
00000000000000000001FFFFFFFFFFC0
00000000000000000001FFFFFFFFFFC0
00000000000000000001FFFFFFFFFFC0
00000000000000000001FFFFFFFFFFC0
00000000000000000001FFFFFFFFFFC0
00000000000000000001FFFFFFFFFFC0
00000000000000000001FFFFFFFFFFC0
00000000000000000001FFFFFFFFFFC0
00000000000000000001FFFFFFFFFFC0
00000000000000000001FFFFFFFFFFC0
00000000000000000001FFFFFFFFFFC0
00000000000000000001FFFFFFFFFFC0
00000000000000000001FFFFFFFFFFC0
00000000000000000001FFFFFFFFFFC0
00000000000000000001FFFFFFFFFFC0
00000000000000000001FFFFFFFFFFC0
00000000000000000001FFFFFFFFFFC0
00000000000000000001FFFFFFFFFFC0
00000000000000000001FFFFFFFFFFC0
00000000000000000003FFFFFFFFFFC0
00000000000000000003FFFFFFFFFFC0
00000000000000000003FFFFFFFFFFC0
00000000000000000003FFFFFFFFFFC0
00000000000000000003FFFFFFFFFFC0
00000000000000000003FFFFFFFFFFC0
00000000000000000007FFFFFFFFFFC0
00000000000000000007FFFFFFFFFFC0
00000000000000000007FFFFFFFFFFC0
0000000000000000000FFFFFFFFFFFC0
0000000000000000000FFFFFFFFFFFC0
0000000000000000001FFFFFFFFFFFC0
0000000000000000001FFFFFFFFFFFC0
0000000000000000003FFFFFFFFFFFC0
0000000000000000003FFFFFFFFFFFC0
0000000000000000007FFFFFFFFFFF80
000000000000000000FFFFFFFFFFFF80
000000000000000001FFFFFFFFFFFF80
000000000000000003FFFFFFFFFFFF80
000000000000000007FFFFFFFFFFFF80
00000000000000000FFFFFFFFFFFFF80
00000000000000001FFFFFFFFFFFFF80
00000000000000007FFFFFFFFFFFFF80
0000000000000001FFFFFFFFFFFFFF00
000000000000000FFFFFFFFFFFFFFF00
00000000000001FFFFFFFFFFFFFFFF00
0000000003FFFFFFFFFFFFFFFFFFFF00
00000000FFFFFFFFFFFFFFFFFFFFFF00
0000000FFFFFFFFFFFFFFFFFFFFFFE00
0000007FFFFFFFFFFFFFFFFFFFFFFE00
000001FFFFFFFFFFFFFFFFFFFFFFFE00
000007FFFFFFFFFFFFFFFFFFFFFFFC00
00001FFFFFFFFFFFFFFFFFFFFFFFFC00
00003FFFFFFFFFFFFFFFFFFFFFFFFC00
0000FFFFFFFFFFFFFFFFFFFFFFFFF800
0001FFFFFFFFFFFFFFFFFFFFFFFFF800
0003FFFFFFFFFFFFFFFFFFFFFFFFF800
0007FFFFFFFFFFFFFFFFFFFFFFFFF000
000FFFFFFFFFFFFFFFFFFFFFFFFFF000
001FFFFFFFFFFFFFFFFFFFFFFFFFE000
003FFFFFFFFFFFFFFFFFFFFFFFFFE000
003FFFFFFFFFFFFFFFFFFFFFFFFFC000
007FFFFFFFFFFFFFFFFFFFFFFFFF8000
00FFFFFFFFFFFFFFFFFFFFFFFFFF8000
00FFFFFFFFFFFFFFFFFFFFFFFFFF0000
01FFFFFFFFFFFFFFFFFFFFFFFFFE0000
01FFFFFFFFFFFFFFFFFFFFFFFFFC0000
03FFFFFFFFFFFFFFFFFFFFFFFFF80000
03FFFFFFFFFFFFFFFFFFFFFFFFF80000
07FFFFFFFFFFFFFFFFFFFFFFFFE00000
07FFFFFFFFFFFFFFFFFFFFFFFFC00000
07FFFFFFFFFFFFFFFFFFFFFFFF800000
0FFFFFFFFFFFFFFFFFFFFFFFFF000000
0FFFFFFFFFFFFFFFFFFFFFFFFC000000
1FFFFFFFFFFFFFFFFFFFFFFFF0000000
1FFFFFFFFFFFFFFFFFFFFFFFC0000000
1FFFFFFFFFFFFFFFFFFFFFFF00000000
1FFFFFFFFFFFFFFFFFFFFFF800000000
3FFFFFFFFFFFFFFFFFFFFF8000000000
3FFFFFFFFFFFFFFFFFFFF00000000000
3FFFFFFFFFFFFFFFFC00000000000000
3FFFFFFFFFFFFFFC0000000000000000
3FFFFFFFFFFFFFE00000000000000000
7FFFFFFFFFFFFF000000000000000000
7FFFFFFFFFFFFE000000000000000000
7FFFFFFFFFFFF8000000000000000000
7FFFFFFFFFFFF0000000000000000000
7FFFFFFFFFFFE0000000000000000000
7FFFFFFFFFFFC0000000000000000000
7FFFFFFFFFFF80000000000000000000
7FFFFFFFFFFF80000000000000000000
FFFFFFFFFFFF00000000000000000000
FFFFFFFFFFFE00000000000000000000
FFFFFFFFFFFE00000000000000000000
FFFFFFFFFFFC00000000000000000000
FFFFFFFFFFFC00000000000000000000
FFFFFFFFFFFC00000000000000000000
FFFFFFFFFFF800000000000000000000
FFFFFFFFFFF800000000000000000000
FFFFFFFFFFF800000000000000000000
FFFFFFFFFFF000000000000000000000
FFFFFFFFFFF000000000000000000000
FFFFFFFFFFF000000000000000000000
FFFFFFFFFFF000000000000000000000
FFFFFFFFFFF000000000000000000000
FFFFFFFFFFF000000000000000000000
FFFFFFFFFFE000000000000000000000
FFFFFFFFFFE000000000000000000000
FFFFFFFFFFE000000000000000000000
FFFFFFFFFFE000000000000000000000
FFFFFFFFFFE000000000000000000000
FFFFFFFFFFE000000000000000000000
FFFFFFFFFFE000000000000000000000
FFFFFFFFFFE000000000000000000000
FFFFFFFFFFE000000000000000000000
FFFFFFFFFFE000000000000000000000
FFFFFFFFFFE000000000000000000000
FFFFFFFFFFE000000000000000000000
FFFFFFFFFFE000000000000000000000
FFFFFFFFFFE000000000000000000000
FFFFFFFFFFE000000000000000000000
FFFFFFFFFFE000000000000000000000
FFFFFFFFFFE000000000000000000000
FFFFFFFFFFE000000000000000000000
FFFFFFFFFFE000000000000000000000
FFFFFFFFFFE000000000000000000000
FFFFFFFFFFE000000000000000000000
FFFFFFFFFFE000000000000000000000
FFFFFFFFFFE000000000000000000000
FFFFFFFFFFE000000000000000000000
FFFFFFFFFFE000000000000000000000
FFFFFFFFFFE000000000000000000000
00000000000000000000000000000000
00000000000000000000000000000000
00000000000000000000000000000000
00000000000000000000000000000000
00000000000000000000000000000000
00000000000000000000000000000000
00000000000000000000000000000000
00000000000000000000000000000000
00000000000000000000000000000000
00000000000000000000000000000000
00000000000000000000000000000000
00000000000000000000000000000000
000FFFFF000000000000000000000000
00FFFFFFF00000000000000000000000
03FFFFFFFC0000000000000000000000
0FFFFFFFFE0000000000000000000000
1FFFFFFFFF0000000000000000000000
1FFFFFFFFF8000000000000000000000
3FFFFFFFFF8000000000000000000000
3FFFFFFFFFC000000000000000000000
7FFFFFFFFFC000000000000000000000
7FFFFFFFFFC000000000000000000000
7FFFFFFFFFC000000000000000000000
7FFFFFFFFFC000000000000000000000
7FFFFFFFFFE000000000000000000000
FFFFFFFFFFE000000000000000000000
FFFFFFFFFFE000000000000000000000
FFFFFFFFFFE000000000000000000000
FFFFFFFFFFE000000000000000000000
FFFFFFFFFFE000000000000000000000
FFFFFFFFFFE000000000000000000000
FFFFFFFFFFE000000000000000000000
FFFFFFFFFFE000000000000000000000
FFFFFFFFFFE000000000000000000000
FFFFFFFFFFE000000000000000000000
FFFFFFFFFFE000000000000000000000
FFFFFFFFFFE000000000000000000000
FFFFFFFFFFE000000000000000000000
FFFFFFFFFFE000000000000000000000
FFFFFFFFFFE000000000000000000000
FFFFFFFFFFE000000000000000000000
FFFFFFFFFFE000000000000000000000
FFFFFFFFFFE000000000000000000000
FFFFFFFFFFE000000000000000000000
FFFFFFFFFFE000000000000000000000
7FFFFFFFFFC000000000000000000000
7FFFFFFFFFC000000000000000000000
7FFFFFFFFFC000000000000000000000
7FFFFFFFFFC000000000000000000000
3FFFFFFFFFC000000000000000000000
3FFFFFFFFF8000000000000000000000
3FFFFFFFFF8000000000000000000000
1FFFFFFFFF0000000000000000000000
0FFFFFFFFE0000000000000000000000
07FFFFFFFC0000000000000000000000
01FFFFFFF00000000000000000000000
001FFFFE000000000000000000000000
ENDCHAR
ENDFONT
